%
M48
M72
T01C0.0320
T02C0.0374
T03C0.0400
T04C0.0906
%
T01
X3100Y6162
X3100Y7162
X3100Y8162
X3100Y9162
X3100Y10162
X3100Y11162
X3100Y12162
X3100Y13162
X4600Y13162
X2600Y14662
X2600Y15662
X2600Y19162
X7600Y19162
X8100Y18662
X9600Y18162
X10600Y18162
X11600Y18162
X12600Y18162
X13600Y18162
X14600Y18162
X15600Y18162
X16600Y18162
X17600Y18162
X18600Y18162
X19600Y18162
X20600Y18162
X21600Y18162
X22600Y18162
X22600Y14162
X21600Y14162
X20600Y14162
X19600Y14162
X18600Y14162
X17600Y14162
X16600Y14162
X15600Y14162
X14600Y14162
X13600Y14162
X12600Y14162
X11600Y14162
X10600Y14162
X9600Y14162
X8100Y13662
X4600Y8162
X6100Y6162
X11100Y6162
X15600Y10162
X17600Y10162
X17150Y12162
X19050Y12162
X19100Y13162
X21600Y12162
X23600Y12162
X24100Y13162
T02
X16478Y5229
X15494Y5229
X14706Y5229
X13722Y5229
T03
X14880Y7272
X16320Y7272
X16320Y9052
X14880Y9052
X12320Y9052
X10880Y9052
X10880Y7272
X12320Y7272
X9600Y5162
X9600Y3162
X8320Y7272
X8320Y9052
X6490Y14382
X4710Y14382
X4710Y16942
X6490Y16942
X7820Y20272
X7820Y22052
X10380Y22052
X11820Y22052
X11820Y20272
X10380Y20272
X14380Y20272
X15820Y20272
X15820Y22052
X14380Y22052
X18380Y22052
X19820Y22052
X19820Y20272
X18380Y20272
X22380Y20272
X22380Y22052
X23710Y17442
X25490Y17442
X25490Y14882
X23710Y14882
X22880Y9052
X22880Y7272
X20320Y7272
X18880Y7272
X18880Y9052
X20320Y9052
T04
X17687Y4162
X12513Y4162
M30
