G75*
%MOIN*%
%OFA0B0*%
%FSLAX25Y25*%
%IPPOS*%
%LPD*%
%AMOC8*
5,1,8,0,0,1.08239X$1,22.5*
%
%ADD10OC8,0.05200*%
%ADD11C,0.05200*%
%ADD12C,0.05200*%
%ADD13C,0.06000*%
%ADD14C,0.05740*%
%ADD15C,0.10000*%
%ADD16OC8,0.10000*%
%ADD17C,0.01600*%
D10*
X0031000Y0061618D03*
X0031000Y0071618D03*
X0046000Y0081618D03*
X0061000Y0061618D03*
X0111000Y0061618D03*
X0156000Y0101618D03*
X0176000Y0101618D03*
X0191000Y0131618D03*
X0216000Y0121618D03*
X0236000Y0121618D03*
X0241000Y0131618D03*
X0081000Y0136618D03*
X0046000Y0131618D03*
X0026000Y0146618D03*
X0026000Y0156618D03*
X0026000Y0191618D03*
X0076000Y0191618D03*
X0081000Y0186618D03*
D11*
X0096000Y0184218D02*
X0096000Y0179018D01*
X0106000Y0179018D02*
X0106000Y0184218D01*
X0116000Y0184218D02*
X0116000Y0179018D01*
X0126000Y0179018D02*
X0126000Y0184218D01*
X0136000Y0184218D02*
X0136000Y0179018D01*
X0146000Y0179018D02*
X0146000Y0184218D01*
X0156000Y0184218D02*
X0156000Y0179018D01*
X0166000Y0179018D02*
X0166000Y0184218D01*
X0176000Y0184218D02*
X0176000Y0179018D01*
X0186000Y0179018D02*
X0186000Y0184218D01*
X0196000Y0184218D02*
X0196000Y0179018D01*
X0206000Y0179018D02*
X0206000Y0184218D01*
X0216000Y0184218D02*
X0216000Y0179018D01*
X0226000Y0179018D02*
X0226000Y0184218D01*
X0226000Y0144218D02*
X0226000Y0139018D01*
X0216000Y0139018D02*
X0216000Y0144218D01*
X0206000Y0144218D02*
X0206000Y0139018D01*
X0196000Y0139018D02*
X0196000Y0144218D01*
X0186000Y0144218D02*
X0186000Y0139018D01*
X0176000Y0139018D02*
X0176000Y0144218D01*
X0166000Y0144218D02*
X0166000Y0139018D01*
X0156000Y0139018D02*
X0156000Y0144218D01*
X0146000Y0144218D02*
X0146000Y0139018D01*
X0136000Y0139018D02*
X0136000Y0144218D01*
X0126000Y0144218D02*
X0126000Y0139018D01*
X0116000Y0139018D02*
X0116000Y0144218D01*
X0106000Y0144218D02*
X0106000Y0139018D01*
X0096000Y0139018D02*
X0096000Y0144218D01*
X0033600Y0131618D02*
X0028400Y0131618D01*
X0028400Y0121618D02*
X0033600Y0121618D01*
X0033600Y0111618D02*
X0028400Y0111618D01*
X0028400Y0101618D02*
X0033600Y0101618D01*
X0033600Y0091618D02*
X0028400Y0091618D01*
X0028400Y0081618D02*
X0033600Y0081618D01*
D12*
X0171500Y0121618D03*
X0190500Y0121618D03*
D13*
X0191800Y0090518D02*
X0185800Y0090518D01*
X0200200Y0090518D02*
X0206200Y0090518D01*
X0225800Y0090518D02*
X0231800Y0090518D01*
X0231800Y0072718D02*
X0225800Y0072718D01*
X0206200Y0072718D02*
X0200200Y0072718D01*
X0191800Y0072718D02*
X0185800Y0072718D01*
X0166200Y0072718D02*
X0160200Y0072718D01*
X0151800Y0072718D02*
X0145800Y0072718D01*
X0126200Y0072718D02*
X0120200Y0072718D01*
X0111800Y0072718D02*
X0105800Y0072718D01*
X0086200Y0072718D02*
X0080200Y0072718D01*
X0080200Y0090518D02*
X0086200Y0090518D01*
X0105800Y0090518D02*
X0111800Y0090518D01*
X0120200Y0090518D02*
X0126200Y0090518D01*
X0145800Y0090518D02*
X0151800Y0090518D01*
X0160200Y0090518D02*
X0166200Y0090518D01*
X0237100Y0145818D02*
X0237100Y0151818D01*
X0254900Y0151818D02*
X0254900Y0145818D01*
X0254900Y0171418D02*
X0254900Y0177418D01*
X0237100Y0177418D02*
X0237100Y0171418D01*
X0226800Y0202718D02*
X0220800Y0202718D01*
X0220800Y0220518D02*
X0226800Y0220518D01*
X0201200Y0220518D02*
X0195200Y0220518D01*
X0186800Y0220518D02*
X0180800Y0220518D01*
X0180800Y0202718D02*
X0186800Y0202718D01*
X0195200Y0202718D02*
X0201200Y0202718D01*
X0161200Y0202718D02*
X0155200Y0202718D01*
X0146800Y0202718D02*
X0140800Y0202718D01*
X0140800Y0220518D02*
X0146800Y0220518D01*
X0155200Y0220518D02*
X0161200Y0220518D01*
X0121200Y0220518D02*
X0115200Y0220518D01*
X0106800Y0220518D02*
X0100800Y0220518D01*
X0100800Y0202718D02*
X0106800Y0202718D01*
X0115200Y0202718D02*
X0121200Y0202718D01*
X0081200Y0202718D02*
X0075200Y0202718D01*
X0075200Y0220518D02*
X0081200Y0220518D01*
X0064900Y0172418D02*
X0064900Y0166418D01*
X0047100Y0166418D02*
X0047100Y0172418D01*
X0047100Y0146818D02*
X0047100Y0140818D01*
X0064900Y0140818D02*
X0064900Y0146818D01*
D14*
X0137220Y0055157D02*
X0137220Y0049417D01*
X0147063Y0049417D02*
X0147063Y0055157D01*
X0154937Y0055157D02*
X0154937Y0049417D01*
X0164780Y0049417D02*
X0164780Y0055157D01*
D15*
X0096000Y0051618D03*
D16*
X0096000Y0031618D03*
D17*
X0006000Y0016418D02*
X0269901Y0016418D01*
X0269901Y0236618D01*
X0006000Y0236618D01*
X0006000Y0016418D01*
X0006000Y0018012D02*
X0269901Y0018012D01*
X0269901Y0019611D02*
X0006000Y0019611D01*
X0006000Y0021209D02*
X0269901Y0021209D01*
X0269901Y0022808D02*
X0006000Y0022808D01*
X0006000Y0024406D02*
X0269901Y0024406D01*
X0269901Y0026005D02*
X0100003Y0026005D01*
X0098817Y0024818D02*
X0102800Y0028801D01*
X0102800Y0031418D01*
X0096200Y0031418D01*
X0096200Y0024818D01*
X0098817Y0024818D01*
X0096200Y0026005D02*
X0095800Y0026005D01*
X0095800Y0024818D02*
X0095800Y0031418D01*
X0096200Y0031418D01*
X0096200Y0031818D01*
X0102800Y0031818D01*
X0102800Y0034435D01*
X0098817Y0038418D01*
X0096200Y0038418D01*
X0096200Y0031818D01*
X0095800Y0031818D01*
X0095800Y0031418D01*
X0089200Y0031418D01*
X0089200Y0028801D01*
X0093183Y0024818D01*
X0095800Y0024818D01*
X0095800Y0027603D02*
X0096200Y0027603D01*
X0096200Y0029202D02*
X0095800Y0029202D01*
X0095800Y0030800D02*
X0096200Y0030800D01*
X0095800Y0031818D02*
X0089200Y0031818D01*
X0089200Y0034435D01*
X0093183Y0038418D01*
X0095800Y0038418D01*
X0095800Y0031818D01*
X0095800Y0032399D02*
X0096200Y0032399D01*
X0096200Y0033997D02*
X0095800Y0033997D01*
X0095800Y0035596D02*
X0096200Y0035596D01*
X0096200Y0037194D02*
X0095800Y0037194D01*
X0091960Y0037194D02*
X0006000Y0037194D01*
X0006000Y0035596D02*
X0090361Y0035596D01*
X0089200Y0033997D02*
X0006000Y0033997D01*
X0006000Y0032399D02*
X0089200Y0032399D01*
X0089200Y0030800D02*
X0006000Y0030800D01*
X0006000Y0029202D02*
X0089200Y0029202D01*
X0090398Y0027603D02*
X0006000Y0027603D01*
X0006000Y0026005D02*
X0091997Y0026005D01*
X0101602Y0027603D02*
X0269901Y0027603D01*
X0269901Y0029202D02*
X0102800Y0029202D01*
X0102800Y0030800D02*
X0269901Y0030800D01*
X0269901Y0032399D02*
X0178983Y0032399D01*
X0178722Y0032291D02*
X0182150Y0033711D01*
X0184774Y0036334D01*
X0185968Y0039218D01*
X0221477Y0039218D01*
X0222359Y0039583D01*
X0223035Y0040259D01*
X0242359Y0059583D01*
X0243035Y0060259D01*
X0243400Y0061141D01*
X0243400Y0107095D01*
X0243035Y0107978D01*
X0218035Y0132978D01*
X0217359Y0133653D01*
X0216477Y0134018D01*
X0194540Y0134018D01*
X0192740Y0135818D01*
X0189260Y0135818D01*
X0188400Y0134958D01*
X0188400Y0135478D01*
X0189561Y0136639D01*
X0190200Y0138183D01*
X0190200Y0145054D01*
X0189561Y0146597D01*
X0188379Y0147779D01*
X0186835Y0148418D01*
X0185165Y0148418D01*
X0183621Y0147779D01*
X0182439Y0146597D01*
X0181800Y0145054D01*
X0181800Y0138183D01*
X0182439Y0136639D01*
X0183600Y0135478D01*
X0183600Y0126141D01*
X0183965Y0125259D01*
X0184641Y0124583D01*
X0186438Y0122786D01*
X0186300Y0122454D01*
X0186300Y0120783D01*
X0186939Y0119239D01*
X0188121Y0118058D01*
X0189665Y0117418D01*
X0191335Y0117418D01*
X0192879Y0118058D01*
X0194040Y0119218D01*
X0212460Y0119218D01*
X0214260Y0117418D01*
X0217740Y0117418D01*
X0220200Y0119878D01*
X0220200Y0123358D01*
X0217740Y0125818D01*
X0214260Y0125818D01*
X0212460Y0124018D01*
X0194040Y0124018D01*
X0192879Y0125179D01*
X0191335Y0125818D01*
X0190194Y0125818D01*
X0188400Y0127612D01*
X0188400Y0128278D01*
X0189260Y0127418D01*
X0192740Y0127418D01*
X0194540Y0129218D01*
X0215006Y0129218D01*
X0238600Y0105624D01*
X0238600Y0062612D01*
X0220006Y0044018D01*
X0185968Y0044018D01*
X0184774Y0046902D01*
X0182150Y0049526D01*
X0178722Y0050946D01*
X0175011Y0050946D01*
X0171582Y0049526D01*
X0168959Y0046902D01*
X0167764Y0044018D01*
X0134236Y0044018D01*
X0133041Y0046902D01*
X0130417Y0049526D01*
X0129544Y0049887D01*
X0132750Y0049887D01*
X0132750Y0048528D01*
X0133431Y0046885D01*
X0134688Y0045628D01*
X0136331Y0044947D01*
X0138110Y0044947D01*
X0139753Y0045628D01*
X0141010Y0046885D01*
X0141691Y0048528D01*
X0141691Y0056047D01*
X0141010Y0057690D01*
X0139753Y0058947D01*
X0139620Y0059002D01*
X0139620Y0105875D01*
X0139255Y0106757D01*
X0113400Y0132612D01*
X0113400Y0135678D01*
X0113621Y0135458D01*
X0115165Y0134818D01*
X0116835Y0134818D01*
X0118379Y0135458D01*
X0118573Y0135651D01*
X0146400Y0107824D01*
X0146400Y0095118D01*
X0144885Y0095118D01*
X0143194Y0094418D01*
X0141900Y0093124D01*
X0141200Y0091433D01*
X0141200Y0089603D01*
X0141900Y0087912D01*
X0143194Y0086618D01*
X0144885Y0085918D01*
X0152715Y0085918D01*
X0154406Y0086618D01*
X0155700Y0087912D01*
X0156000Y0088637D01*
X0156300Y0087912D01*
X0157594Y0086618D01*
X0159285Y0085918D01*
X0167115Y0085918D01*
X0168806Y0086618D01*
X0170100Y0087912D01*
X0170800Y0089603D01*
X0170800Y0091433D01*
X0170100Y0093124D01*
X0168806Y0094418D01*
X0167115Y0095118D01*
X0159285Y0095118D01*
X0157594Y0094418D01*
X0156300Y0093124D01*
X0156000Y0092399D01*
X0155700Y0093124D01*
X0154406Y0094418D01*
X0152715Y0095118D01*
X0151200Y0095118D01*
X0151200Y0109295D01*
X0150835Y0110178D01*
X0126194Y0134818D01*
X0126835Y0134818D01*
X0128379Y0135458D01*
X0128573Y0135651D01*
X0175065Y0089159D01*
X0175065Y0089159D01*
X0175741Y0088483D01*
X0176623Y0088118D01*
X0181815Y0088118D01*
X0181900Y0087912D01*
X0183194Y0086618D01*
X0184885Y0085918D01*
X0192715Y0085918D01*
X0194406Y0086618D01*
X0195700Y0087912D01*
X0196000Y0088637D01*
X0196300Y0087912D01*
X0197594Y0086618D01*
X0199285Y0085918D01*
X0207115Y0085918D01*
X0208806Y0086618D01*
X0210100Y0087912D01*
X0210800Y0089603D01*
X0210800Y0091433D01*
X0210100Y0093124D01*
X0209005Y0094218D01*
X0210006Y0094218D01*
X0223965Y0080259D01*
X0224641Y0079583D01*
X0225523Y0079218D01*
X0231477Y0079218D01*
X0232359Y0079583D01*
X0237359Y0084583D01*
X0238035Y0085259D01*
X0238400Y0086141D01*
X0238400Y0102095D01*
X0238035Y0102978D01*
X0228035Y0112978D01*
X0227359Y0113653D01*
X0226477Y0114018D01*
X0182494Y0114018D01*
X0175700Y0120812D01*
X0175700Y0122454D01*
X0175562Y0122786D01*
X0177359Y0124583D01*
X0178035Y0125259D01*
X0178400Y0126141D01*
X0178400Y0135478D01*
X0179561Y0136639D01*
X0180200Y0138183D01*
X0180200Y0145054D01*
X0179561Y0146597D01*
X0178379Y0147779D01*
X0176835Y0148418D01*
X0175165Y0148418D01*
X0173621Y0147779D01*
X0172439Y0146597D01*
X0171800Y0145054D01*
X0171800Y0138183D01*
X0172439Y0136639D01*
X0173600Y0135478D01*
X0173600Y0127612D01*
X0171806Y0125818D01*
X0170665Y0125818D01*
X0169121Y0125179D01*
X0168400Y0124458D01*
X0168400Y0127095D01*
X0168035Y0127978D01*
X0163035Y0132978D01*
X0162359Y0133653D01*
X0161477Y0134018D01*
X0146994Y0134018D01*
X0146194Y0134818D01*
X0146835Y0134818D01*
X0148379Y0135458D01*
X0149561Y0136639D01*
X0150200Y0138183D01*
X0150200Y0144024D01*
X0151800Y0142424D01*
X0151800Y0138183D01*
X0152439Y0136639D01*
X0153621Y0135458D01*
X0155165Y0134818D01*
X0156835Y0134818D01*
X0158379Y0135458D01*
X0159561Y0136639D01*
X0160200Y0138183D01*
X0160200Y0145054D01*
X0159561Y0146597D01*
X0158400Y0147758D01*
X0158400Y0150624D01*
X0161994Y0154218D01*
X0171477Y0154218D01*
X0172359Y0154583D01*
X0173035Y0155259D01*
X0178035Y0160259D01*
X0178400Y0161141D01*
X0178400Y0175478D01*
X0179561Y0176639D01*
X0180200Y0178183D01*
X0180200Y0185054D01*
X0179561Y0186597D01*
X0178379Y0187779D01*
X0176835Y0188418D01*
X0175165Y0188418D01*
X0173621Y0187779D01*
X0172439Y0186597D01*
X0171800Y0185054D01*
X0171800Y0180812D01*
X0170200Y0179212D01*
X0170200Y0185054D01*
X0169561Y0186597D01*
X0168379Y0187779D01*
X0166835Y0188418D01*
X0165165Y0188418D01*
X0163621Y0187779D01*
X0162439Y0186597D01*
X0161800Y0185054D01*
X0161800Y0178183D01*
X0162439Y0176639D01*
X0163621Y0175458D01*
X0165165Y0174818D01*
X0165806Y0174818D01*
X0165006Y0174018D01*
X0096994Y0174018D01*
X0096194Y0174818D01*
X0096835Y0174818D01*
X0098379Y0175458D01*
X0099561Y0176639D01*
X0100200Y0178183D01*
X0100200Y0185054D01*
X0099561Y0186597D01*
X0098379Y0187779D01*
X0098063Y0187910D01*
X0098035Y0187978D01*
X0097359Y0188653D01*
X0085334Y0200678D01*
X0085800Y0201803D01*
X0085800Y0203633D01*
X0085100Y0205324D01*
X0083806Y0206618D01*
X0082115Y0207318D01*
X0074285Y0207318D01*
X0072594Y0206618D01*
X0071300Y0205324D01*
X0070600Y0203633D01*
X0070600Y0201803D01*
X0071300Y0200112D01*
X0072594Y0198818D01*
X0074285Y0198118D01*
X0081106Y0198118D01*
X0092533Y0186691D01*
X0092439Y0186597D01*
X0091800Y0185054D01*
X0091800Y0179212D01*
X0085200Y0185812D01*
X0085200Y0188358D01*
X0082740Y0190818D01*
X0080200Y0190818D01*
X0080200Y0193358D01*
X0077740Y0195818D01*
X0074260Y0195818D01*
X0071800Y0193358D01*
X0071800Y0189878D01*
X0074260Y0187418D01*
X0076800Y0187418D01*
X0076800Y0184878D01*
X0079260Y0182418D01*
X0081806Y0182418D01*
X0093965Y0170259D01*
X0094641Y0169583D01*
X0095523Y0169218D01*
X0166477Y0169218D01*
X0167359Y0169583D01*
X0173427Y0175651D01*
X0173600Y0175478D01*
X0173600Y0162612D01*
X0170006Y0159018D01*
X0160523Y0159018D01*
X0159641Y0158653D01*
X0158965Y0157978D01*
X0158965Y0157978D01*
X0154641Y0153653D01*
X0154641Y0153653D01*
X0153965Y0152978D01*
X0153600Y0152095D01*
X0153600Y0147758D01*
X0153427Y0147585D01*
X0142359Y0158653D01*
X0141477Y0159018D01*
X0120523Y0159018D01*
X0119641Y0158653D01*
X0118965Y0157978D01*
X0108965Y0147978D01*
X0108735Y0147422D01*
X0108379Y0147779D01*
X0106835Y0148418D01*
X0105165Y0148418D01*
X0103621Y0147779D01*
X0102439Y0146597D01*
X0101800Y0145054D01*
X0101800Y0138183D01*
X0102439Y0136639D01*
X0103600Y0135478D01*
X0103600Y0094586D01*
X0103194Y0094418D01*
X0101900Y0093124D01*
X0101200Y0091433D01*
X0101200Y0089603D01*
X0101900Y0087912D01*
X0103194Y0086618D01*
X0104885Y0085918D01*
X0112715Y0085918D01*
X0114406Y0086618D01*
X0115700Y0087912D01*
X0116000Y0088637D01*
X0116300Y0087912D01*
X0117594Y0086618D01*
X0119285Y0085918D01*
X0127115Y0085918D01*
X0128806Y0086618D01*
X0130100Y0087912D01*
X0130800Y0089603D01*
X0130800Y0091433D01*
X0130100Y0093124D01*
X0128806Y0094418D01*
X0127115Y0095118D01*
X0119285Y0095118D01*
X0117594Y0094418D01*
X0116300Y0093124D01*
X0116000Y0092399D01*
X0115700Y0093124D01*
X0114406Y0094418D01*
X0112715Y0095118D01*
X0108400Y0095118D01*
X0108400Y0135478D01*
X0108600Y0135678D01*
X0108600Y0131141D01*
X0108965Y0130259D01*
X0109641Y0129583D01*
X0134820Y0104404D01*
X0134820Y0059002D01*
X0134688Y0058947D01*
X0133431Y0057690D01*
X0132750Y0056047D01*
X0132750Y0054687D01*
X0121325Y0054687D01*
X0115200Y0060812D01*
X0115200Y0063358D01*
X0112740Y0065818D01*
X0109260Y0065818D01*
X0106800Y0063358D01*
X0106800Y0061703D01*
X0099870Y0057082D01*
X0099739Y0057213D01*
X0097313Y0058218D01*
X0094687Y0058218D01*
X0092261Y0057213D01*
X0090405Y0055357D01*
X0089400Y0052931D01*
X0089400Y0050305D01*
X0090405Y0047880D01*
X0092261Y0046023D01*
X0094687Y0045018D01*
X0097313Y0045018D01*
X0099739Y0046023D01*
X0101595Y0047880D01*
X0102600Y0050305D01*
X0102600Y0052931D01*
X0102534Y0053090D01*
X0109167Y0057512D01*
X0109260Y0057418D01*
X0111806Y0057418D01*
X0118971Y0050253D01*
X0119853Y0049887D01*
X0120724Y0049887D01*
X0119850Y0049526D01*
X0117226Y0046902D01*
X0116032Y0044018D01*
X0026994Y0044018D01*
X0018400Y0052612D01*
X0018400Y0110624D01*
X0025927Y0118151D01*
X0026021Y0118058D01*
X0027565Y0117418D01*
X0034435Y0117418D01*
X0035979Y0118058D01*
X0037161Y0119239D01*
X0037800Y0120783D01*
X0037800Y0122454D01*
X0037161Y0123997D01*
X0035979Y0125179D01*
X0034435Y0125818D01*
X0027565Y0125818D01*
X0026021Y0125179D01*
X0024839Y0123997D01*
X0024708Y0123681D01*
X0024641Y0123653D01*
X0014641Y0113653D01*
X0013965Y0112978D01*
X0013600Y0112095D01*
X0013600Y0051141D01*
X0013965Y0050259D01*
X0023965Y0040259D01*
X0024641Y0039583D01*
X0025523Y0039218D01*
X0116032Y0039218D01*
X0117226Y0036334D01*
X0119850Y0033711D01*
X0123278Y0032291D01*
X0126989Y0032291D01*
X0130417Y0033711D01*
X0133041Y0036334D01*
X0134236Y0039218D01*
X0167764Y0039218D01*
X0168959Y0036334D01*
X0171582Y0033711D01*
X0175011Y0032291D01*
X0178722Y0032291D01*
X0174750Y0032399D02*
X0127250Y0032399D01*
X0130704Y0033997D02*
X0171296Y0033997D01*
X0169697Y0035596D02*
X0132303Y0035596D01*
X0133398Y0037194D02*
X0168602Y0037194D01*
X0167940Y0038793D02*
X0134060Y0038793D01*
X0133752Y0045187D02*
X0135753Y0045187D01*
X0133531Y0046785D02*
X0133090Y0046785D01*
X0132810Y0048384D02*
X0131559Y0048384D01*
X0137220Y0052287D02*
X0137220Y0105398D01*
X0111000Y0131618D01*
X0111000Y0146618D01*
X0121000Y0156618D01*
X0141000Y0156618D01*
X0156000Y0141618D01*
X0156000Y0151618D01*
X0161000Y0156618D01*
X0171000Y0156618D01*
X0176000Y0161618D01*
X0176000Y0181618D01*
X0166000Y0171618D01*
X0096000Y0171618D01*
X0081000Y0186618D01*
X0076000Y0191618D01*
X0072626Y0189053D02*
X0058400Y0189053D01*
X0058400Y0190651D02*
X0071800Y0190651D01*
X0071800Y0192250D02*
X0058400Y0192250D01*
X0058400Y0193848D02*
X0072291Y0193848D01*
X0073889Y0195447D02*
X0058400Y0195447D01*
X0058400Y0195624D02*
X0071994Y0209218D01*
X0205006Y0209218D01*
X0208600Y0205624D01*
X0208600Y0197612D01*
X0198573Y0187585D01*
X0198379Y0187779D01*
X0196835Y0188418D01*
X0195165Y0188418D01*
X0193621Y0187779D01*
X0192439Y0186597D01*
X0191800Y0185054D01*
X0191800Y0179212D01*
X0190200Y0180812D01*
X0190200Y0185054D01*
X0189561Y0186597D01*
X0188379Y0187779D01*
X0186835Y0188418D01*
X0185165Y0188418D01*
X0183621Y0187779D01*
X0182439Y0186597D01*
X0181800Y0185054D01*
X0181800Y0178183D01*
X0182439Y0176639D01*
X0183621Y0175458D01*
X0185165Y0174818D01*
X0186835Y0174818D01*
X0188379Y0175458D01*
X0188573Y0175651D01*
X0199641Y0164583D01*
X0200523Y0164218D01*
X0205006Y0164218D01*
X0218600Y0150624D01*
X0218600Y0147558D01*
X0218379Y0147779D01*
X0216835Y0148418D01*
X0215165Y0148418D01*
X0213621Y0147779D01*
X0212439Y0146597D01*
X0211800Y0145054D01*
X0211800Y0138183D01*
X0212439Y0136639D01*
X0213621Y0135458D01*
X0215165Y0134818D01*
X0216835Y0134818D01*
X0218379Y0135458D01*
X0218735Y0135814D01*
X0218965Y0135259D01*
X0219641Y0134583D01*
X0224641Y0129583D01*
X0225523Y0129218D01*
X0237460Y0129218D01*
X0239260Y0127418D01*
X0242740Y0127418D01*
X0245200Y0129878D01*
X0245200Y0133358D01*
X0242740Y0135818D01*
X0239260Y0135818D01*
X0237460Y0134018D01*
X0226994Y0134018D01*
X0226194Y0134818D01*
X0226835Y0134818D01*
X0228379Y0135458D01*
X0229561Y0136639D01*
X0230200Y0138183D01*
X0230200Y0145054D01*
X0229561Y0146597D01*
X0228400Y0147758D01*
X0228400Y0162324D01*
X0234044Y0167968D01*
X0234494Y0167518D01*
X0236185Y0166818D01*
X0238015Y0166818D01*
X0239706Y0167518D01*
X0241000Y0168812D01*
X0241700Y0170503D01*
X0241700Y0178333D01*
X0241000Y0180024D01*
X0239706Y0181318D01*
X0238015Y0182018D01*
X0236185Y0182018D01*
X0234494Y0181318D01*
X0233200Y0180024D01*
X0232500Y0178333D01*
X0232500Y0173212D01*
X0223965Y0164678D01*
X0223600Y0163795D01*
X0223600Y0147758D01*
X0223400Y0147558D01*
X0223400Y0152095D01*
X0223035Y0152978D01*
X0208035Y0167978D01*
X0207359Y0168653D01*
X0206477Y0169018D01*
X0201994Y0169018D01*
X0196194Y0174818D01*
X0196835Y0174818D01*
X0198379Y0175458D01*
X0199561Y0176639D01*
X0200200Y0178183D01*
X0200200Y0182424D01*
X0201800Y0184024D01*
X0201800Y0178183D01*
X0202439Y0176639D01*
X0203621Y0175458D01*
X0205165Y0174818D01*
X0206835Y0174818D01*
X0208379Y0175458D01*
X0209561Y0176639D01*
X0210200Y0178183D01*
X0210200Y0185054D01*
X0209561Y0186597D01*
X0208379Y0187779D01*
X0206835Y0188418D01*
X0206194Y0188418D01*
X0212359Y0194583D01*
X0213035Y0195259D01*
X0213400Y0196141D01*
X0213400Y0207095D01*
X0213035Y0207978D01*
X0208035Y0212978D01*
X0207359Y0213653D01*
X0206477Y0214018D01*
X0070523Y0214018D01*
X0069641Y0213653D01*
X0054641Y0198653D01*
X0053965Y0197978D01*
X0053600Y0197095D01*
X0053600Y0137612D01*
X0050006Y0134018D01*
X0049540Y0134018D01*
X0047740Y0135818D01*
X0044260Y0135818D01*
X0041800Y0133358D01*
X0041800Y0129878D01*
X0044260Y0127418D01*
X0047740Y0127418D01*
X0049540Y0129218D01*
X0051477Y0129218D01*
X0052359Y0129583D01*
X0053035Y0130259D01*
X0058035Y0135259D01*
X0058400Y0136141D01*
X0058400Y0195624D01*
X0059821Y0197045D02*
X0082179Y0197045D01*
X0083777Y0195447D02*
X0078111Y0195447D01*
X0079709Y0193848D02*
X0085376Y0193848D01*
X0086974Y0192250D02*
X0080200Y0192250D01*
X0082906Y0190651D02*
X0088573Y0190651D01*
X0090171Y0189053D02*
X0084505Y0189053D01*
X0085200Y0187454D02*
X0091770Y0187454D01*
X0092132Y0185856D02*
X0085200Y0185856D01*
X0086755Y0184257D02*
X0091800Y0184257D01*
X0091800Y0182659D02*
X0088353Y0182659D01*
X0089952Y0181060D02*
X0091800Y0181060D01*
X0091800Y0179462D02*
X0091550Y0179462D01*
X0096000Y0181618D02*
X0096000Y0186618D01*
X0079900Y0202718D01*
X0078200Y0202718D01*
X0073016Y0198644D02*
X0061420Y0198644D01*
X0063018Y0200242D02*
X0071246Y0200242D01*
X0070600Y0201841D02*
X0064617Y0201841D01*
X0066215Y0203439D02*
X0070600Y0203439D01*
X0071182Y0205038D02*
X0067814Y0205038D01*
X0069412Y0206636D02*
X0072639Y0206636D01*
X0071011Y0208235D02*
X0205989Y0208235D01*
X0207587Y0206636D02*
X0203761Y0206636D01*
X0203806Y0206618D02*
X0202115Y0207318D01*
X0194285Y0207318D01*
X0192594Y0206618D01*
X0191300Y0205324D01*
X0191000Y0204599D01*
X0190700Y0205324D01*
X0189406Y0206618D01*
X0187715Y0207318D01*
X0179885Y0207318D01*
X0178194Y0206618D01*
X0176900Y0205324D01*
X0176200Y0203633D01*
X0176200Y0201803D01*
X0176900Y0200112D01*
X0178194Y0198818D01*
X0179885Y0198118D01*
X0187715Y0198118D01*
X0189406Y0198818D01*
X0190700Y0200112D01*
X0191000Y0200837D01*
X0191242Y0200254D01*
X0185006Y0194018D01*
X0130523Y0194018D01*
X0129641Y0193653D01*
X0128965Y0192978D01*
X0123965Y0187978D01*
X0123937Y0187910D01*
X0123621Y0187779D01*
X0122439Y0186597D01*
X0121800Y0185054D01*
X0121800Y0178183D01*
X0122439Y0176639D01*
X0123621Y0175458D01*
X0125165Y0174818D01*
X0126835Y0174818D01*
X0128379Y0175458D01*
X0129561Y0176639D01*
X0130200Y0178183D01*
X0130200Y0185054D01*
X0129561Y0186597D01*
X0129467Y0186691D01*
X0131994Y0189218D01*
X0186477Y0189218D01*
X0187359Y0189583D01*
X0195894Y0198118D01*
X0202115Y0198118D01*
X0203806Y0198818D01*
X0205100Y0200112D01*
X0205800Y0201803D01*
X0205800Y0203633D01*
X0205100Y0205324D01*
X0203806Y0206618D01*
X0205218Y0205038D02*
X0208600Y0205038D01*
X0208600Y0203439D02*
X0205800Y0203439D01*
X0205800Y0201841D02*
X0208600Y0201841D01*
X0208600Y0200242D02*
X0205154Y0200242D01*
X0203384Y0198644D02*
X0208600Y0198644D01*
X0208033Y0197045D02*
X0194821Y0197045D01*
X0193223Y0195447D02*
X0206435Y0195447D01*
X0204836Y0193848D02*
X0191624Y0193848D01*
X0190026Y0192250D02*
X0203238Y0192250D01*
X0201639Y0190651D02*
X0188427Y0190651D01*
X0186000Y0191618D02*
X0196000Y0201618D01*
X0197100Y0201618D01*
X0198200Y0202718D01*
X0192639Y0206636D02*
X0189361Y0206636D01*
X0190818Y0205038D02*
X0191182Y0205038D01*
X0191230Y0200242D02*
X0190754Y0200242D01*
X0189632Y0198644D02*
X0188984Y0198644D01*
X0188033Y0197045D02*
X0155921Y0197045D01*
X0156994Y0198118D02*
X0162115Y0198118D01*
X0163806Y0198818D01*
X0165100Y0200112D01*
X0165800Y0201803D01*
X0165800Y0203633D01*
X0165100Y0205324D01*
X0163806Y0206618D01*
X0162115Y0207318D01*
X0154285Y0207318D01*
X0152594Y0206618D01*
X0151300Y0205324D01*
X0151000Y0204599D01*
X0150700Y0205324D01*
X0149406Y0206618D01*
X0147715Y0207318D01*
X0139885Y0207318D01*
X0138194Y0206618D01*
X0136900Y0205324D01*
X0136200Y0203633D01*
X0136200Y0201803D01*
X0136900Y0200112D01*
X0137995Y0199018D01*
X0125523Y0199018D01*
X0124641Y0198653D01*
X0123965Y0197978D01*
X0113965Y0187978D01*
X0113937Y0187910D01*
X0113621Y0187779D01*
X0112439Y0186597D01*
X0111800Y0185054D01*
X0111800Y0178183D01*
X0112439Y0176639D01*
X0113621Y0175458D01*
X0115165Y0174818D01*
X0116835Y0174818D01*
X0118379Y0175458D01*
X0119561Y0176639D01*
X0120200Y0178183D01*
X0120200Y0185054D01*
X0119561Y0186597D01*
X0119467Y0186691D01*
X0126994Y0194218D01*
X0152577Y0194218D01*
X0153459Y0194583D01*
X0156994Y0198118D01*
X0154323Y0195447D02*
X0186435Y0195447D01*
X0186000Y0191618D02*
X0131000Y0191618D01*
X0126000Y0186618D01*
X0126000Y0181618D01*
X0121800Y0181060D02*
X0120200Y0181060D01*
X0120200Y0179462D02*
X0121800Y0179462D01*
X0121932Y0177863D02*
X0120068Y0177863D01*
X0119186Y0176265D02*
X0122814Y0176265D01*
X0129186Y0176265D02*
X0132814Y0176265D01*
X0132439Y0176639D02*
X0133621Y0175458D01*
X0135165Y0174818D01*
X0136835Y0174818D01*
X0138379Y0175458D01*
X0139561Y0176639D01*
X0140200Y0178183D01*
X0140200Y0185054D01*
X0139561Y0186597D01*
X0138379Y0187779D01*
X0136835Y0188418D01*
X0135165Y0188418D01*
X0133621Y0187779D01*
X0132439Y0186597D01*
X0131800Y0185054D01*
X0131800Y0178183D01*
X0132439Y0176639D01*
X0131932Y0177863D02*
X0130068Y0177863D01*
X0130200Y0179462D02*
X0131800Y0179462D01*
X0131800Y0181060D02*
X0130200Y0181060D01*
X0130200Y0182659D02*
X0131800Y0182659D01*
X0131800Y0184257D02*
X0130200Y0184257D01*
X0129868Y0185856D02*
X0132132Y0185856D01*
X0133297Y0187454D02*
X0130230Y0187454D01*
X0131829Y0189053D02*
X0200041Y0189053D01*
X0200435Y0182659D02*
X0201800Y0182659D01*
X0201800Y0181060D02*
X0200200Y0181060D01*
X0200200Y0179462D02*
X0201800Y0179462D01*
X0201932Y0177863D02*
X0200068Y0177863D01*
X0199186Y0176265D02*
X0202814Y0176265D01*
X0199543Y0171469D02*
X0230757Y0171469D01*
X0229159Y0169871D02*
X0201141Y0169871D01*
X0197944Y0173068D02*
X0232356Y0173068D01*
X0232500Y0174666D02*
X0196346Y0174666D01*
X0192755Y0171469D02*
X0178400Y0171469D01*
X0178400Y0169871D02*
X0194353Y0169871D01*
X0195952Y0168272D02*
X0178400Y0168272D01*
X0178400Y0166674D02*
X0197550Y0166674D01*
X0199149Y0165075D02*
X0178400Y0165075D01*
X0178400Y0163477D02*
X0205747Y0163477D01*
X0207346Y0161878D02*
X0178400Y0161878D01*
X0178043Y0160280D02*
X0208944Y0160280D01*
X0210543Y0158681D02*
X0176457Y0158681D01*
X0174859Y0157083D02*
X0212141Y0157083D01*
X0213740Y0155484D02*
X0173260Y0155484D01*
X0171267Y0160280D02*
X0058400Y0160280D01*
X0058400Y0161878D02*
X0063840Y0161878D01*
X0063985Y0161818D02*
X0065815Y0161818D01*
X0067506Y0162518D01*
X0068800Y0163812D01*
X0069500Y0165503D01*
X0069500Y0173333D01*
X0068800Y0175024D01*
X0067506Y0176318D01*
X0065815Y0177018D01*
X0063985Y0177018D01*
X0062294Y0176318D01*
X0061000Y0175024D01*
X0060300Y0173333D01*
X0060300Y0165503D01*
X0061000Y0163812D01*
X0062294Y0162518D01*
X0063985Y0161818D01*
X0065960Y0161878D02*
X0172866Y0161878D01*
X0173600Y0163477D02*
X0068464Y0163477D01*
X0069323Y0165075D02*
X0173600Y0165075D01*
X0173600Y0166674D02*
X0069500Y0166674D01*
X0069500Y0168272D02*
X0173600Y0168272D01*
X0173600Y0169871D02*
X0167647Y0169871D01*
X0169245Y0171469D02*
X0173600Y0171469D01*
X0173600Y0173068D02*
X0170844Y0173068D01*
X0172442Y0174666D02*
X0173600Y0174666D01*
X0170450Y0179462D02*
X0170200Y0179462D01*
X0170200Y0181060D02*
X0171800Y0181060D01*
X0171800Y0182659D02*
X0170200Y0182659D01*
X0170200Y0184257D02*
X0171800Y0184257D01*
X0172132Y0185856D02*
X0169868Y0185856D01*
X0168703Y0187454D02*
X0173297Y0187454D01*
X0178703Y0187454D02*
X0183297Y0187454D01*
X0182132Y0185856D02*
X0179868Y0185856D01*
X0180200Y0184257D02*
X0181800Y0184257D01*
X0181800Y0182659D02*
X0180200Y0182659D01*
X0180200Y0181060D02*
X0181800Y0181060D01*
X0181800Y0179462D02*
X0180200Y0179462D01*
X0180068Y0177863D02*
X0181932Y0177863D01*
X0182814Y0176265D02*
X0179186Y0176265D01*
X0178400Y0174666D02*
X0189558Y0174666D01*
X0191156Y0173068D02*
X0178400Y0173068D01*
X0186000Y0181618D02*
X0201000Y0166618D01*
X0206000Y0166618D01*
X0221000Y0151618D01*
X0221000Y0136618D01*
X0226000Y0131618D01*
X0241000Y0131618D01*
X0245200Y0131506D02*
X0269901Y0131506D01*
X0269901Y0129908D02*
X0245200Y0129908D01*
X0243631Y0128309D02*
X0269901Y0128309D01*
X0269901Y0126711D02*
X0224301Y0126711D01*
X0222703Y0128309D02*
X0238369Y0128309D01*
X0237823Y0126018D02*
X0236000Y0126018D01*
X0236000Y0121618D01*
X0236000Y0117218D01*
X0237823Y0117218D01*
X0240400Y0119796D01*
X0240400Y0121618D01*
X0236000Y0121618D01*
X0236000Y0121618D01*
X0236000Y0117218D01*
X0234177Y0117218D01*
X0231600Y0119796D01*
X0231600Y0121618D01*
X0236000Y0121618D01*
X0236000Y0121618D01*
X0236000Y0121618D01*
X0240400Y0121618D01*
X0240400Y0123441D01*
X0237823Y0126018D01*
X0238728Y0125112D02*
X0269901Y0125112D01*
X0269901Y0123514D02*
X0240327Y0123514D01*
X0240400Y0121915D02*
X0269901Y0121915D01*
X0269901Y0120317D02*
X0240400Y0120317D01*
X0239323Y0118718D02*
X0269901Y0118718D01*
X0269901Y0117120D02*
X0233892Y0117120D01*
X0232677Y0118718D02*
X0232294Y0118718D01*
X0231600Y0120317D02*
X0230695Y0120317D01*
X0231600Y0121618D02*
X0236000Y0121618D01*
X0236000Y0126018D01*
X0234177Y0126018D01*
X0231600Y0123441D01*
X0231600Y0121618D01*
X0231600Y0121915D02*
X0229097Y0121915D01*
X0227498Y0123514D02*
X0231673Y0123514D01*
X0233272Y0125112D02*
X0225900Y0125112D01*
X0222309Y0121915D02*
X0220200Y0121915D01*
X0220200Y0120317D02*
X0223907Y0120317D01*
X0225506Y0118718D02*
X0219040Y0118718D01*
X0216000Y0121618D02*
X0190500Y0121618D01*
X0190500Y0122118D01*
X0186000Y0126618D01*
X0186000Y0141618D01*
X0190200Y0141098D02*
X0191800Y0141098D01*
X0191800Y0142696D02*
X0190200Y0142696D01*
X0190200Y0144295D02*
X0191800Y0144295D01*
X0191800Y0145054D02*
X0192439Y0146597D01*
X0193621Y0147779D01*
X0195165Y0148418D01*
X0196835Y0148418D01*
X0198379Y0147779D01*
X0199561Y0146597D01*
X0200200Y0145054D01*
X0200200Y0138183D01*
X0199561Y0136639D01*
X0198379Y0135458D01*
X0196835Y0134818D01*
X0195165Y0134818D01*
X0193621Y0135458D01*
X0192439Y0136639D01*
X0191800Y0138183D01*
X0191800Y0145054D01*
X0192148Y0145893D02*
X0189852Y0145893D01*
X0188666Y0147492D02*
X0193334Y0147492D01*
X0198666Y0147492D02*
X0203334Y0147492D01*
X0203621Y0147779D02*
X0202439Y0146597D01*
X0201800Y0145054D01*
X0201800Y0138183D01*
X0202439Y0136639D01*
X0203621Y0135458D01*
X0205165Y0134818D01*
X0206835Y0134818D01*
X0208379Y0135458D01*
X0209561Y0136639D01*
X0210200Y0138183D01*
X0210200Y0145054D01*
X0209561Y0146597D01*
X0208379Y0147779D01*
X0206835Y0148418D01*
X0205165Y0148418D01*
X0203621Y0147779D01*
X0202148Y0145893D02*
X0199852Y0145893D01*
X0200200Y0144295D02*
X0201800Y0144295D01*
X0201800Y0142696D02*
X0200200Y0142696D01*
X0200200Y0141098D02*
X0201800Y0141098D01*
X0201800Y0139499D02*
X0200200Y0139499D01*
X0200083Y0137901D02*
X0201917Y0137901D01*
X0202776Y0136302D02*
X0199224Y0136302D01*
X0193854Y0134703D02*
X0219521Y0134703D01*
X0221119Y0133105D02*
X0217907Y0133105D01*
X0218035Y0132978D02*
X0218035Y0132978D01*
X0219506Y0131506D02*
X0222718Y0131506D01*
X0224316Y0129908D02*
X0221104Y0129908D01*
X0217513Y0126711D02*
X0189301Y0126711D01*
X0192945Y0125112D02*
X0213555Y0125112D01*
X0215915Y0128309D02*
X0193631Y0128309D01*
X0191000Y0131618D02*
X0216000Y0131618D01*
X0241000Y0106618D01*
X0241000Y0061618D01*
X0221000Y0041618D01*
X0026000Y0041618D01*
X0016000Y0051618D01*
X0016000Y0111618D01*
X0026000Y0121618D01*
X0031000Y0121618D01*
X0036045Y0125112D02*
X0103600Y0125112D01*
X0103600Y0123514D02*
X0037361Y0123514D01*
X0037800Y0121915D02*
X0103600Y0121915D01*
X0103600Y0120317D02*
X0037607Y0120317D01*
X0036640Y0118718D02*
X0103600Y0118718D01*
X0103600Y0117120D02*
X0024896Y0117120D01*
X0026094Y0115381D02*
X0025534Y0114974D01*
X0025044Y0114485D01*
X0024637Y0113924D01*
X0024322Y0113307D01*
X0024108Y0112648D01*
X0024000Y0111964D01*
X0024000Y0111618D01*
X0024000Y0111272D01*
X0024108Y0110588D01*
X0024322Y0109929D01*
X0024637Y0109312D01*
X0025044Y0108752D01*
X0025534Y0108262D01*
X0026094Y0107855D01*
X0026711Y0107540D01*
X0027370Y0107326D01*
X0028054Y0107218D01*
X0031000Y0107218D01*
X0033946Y0107218D01*
X0034630Y0107326D01*
X0035289Y0107540D01*
X0035906Y0107855D01*
X0036466Y0108262D01*
X0036956Y0108752D01*
X0037363Y0109312D01*
X0037678Y0109929D01*
X0037892Y0110588D01*
X0038000Y0111272D01*
X0038000Y0111618D01*
X0031000Y0111618D01*
X0031000Y0107218D01*
X0031000Y0111618D01*
X0031000Y0111618D01*
X0031000Y0111618D01*
X0024000Y0111618D01*
X0031000Y0111618D01*
X0031000Y0111618D01*
X0038000Y0111618D01*
X0038000Y0111964D01*
X0037892Y0112648D01*
X0037678Y0113307D01*
X0037363Y0113924D01*
X0036956Y0114485D01*
X0036466Y0114974D01*
X0035906Y0115381D01*
X0035289Y0115696D01*
X0034630Y0115910D01*
X0033946Y0116018D01*
X0031000Y0116018D01*
X0031000Y0111618D01*
X0031000Y0116018D01*
X0028054Y0116018D01*
X0027370Y0115910D01*
X0026711Y0115696D01*
X0026094Y0115381D01*
X0026369Y0115521D02*
X0023297Y0115521D01*
X0024636Y0113923D02*
X0021699Y0113923D01*
X0020100Y0112324D02*
X0024057Y0112324D01*
X0024086Y0110726D02*
X0018502Y0110726D01*
X0018400Y0109127D02*
X0024771Y0109127D01*
X0026747Y0107529D02*
X0018400Y0107529D01*
X0018400Y0105930D02*
X0027499Y0105930D01*
X0027370Y0105910D02*
X0026711Y0105696D01*
X0026094Y0105381D01*
X0025534Y0104974D01*
X0025044Y0104485D01*
X0024637Y0103924D01*
X0024322Y0103307D01*
X0024108Y0102648D01*
X0024000Y0101964D01*
X0024000Y0101618D01*
X0024000Y0101272D01*
X0024108Y0100588D01*
X0024322Y0099929D01*
X0024637Y0099312D01*
X0025044Y0098752D01*
X0025534Y0098262D01*
X0026094Y0097855D01*
X0026711Y0097540D01*
X0027370Y0097326D01*
X0028054Y0097218D01*
X0031000Y0097218D01*
X0033946Y0097218D01*
X0034630Y0097326D01*
X0035289Y0097540D01*
X0035906Y0097855D01*
X0036466Y0098262D01*
X0036956Y0098752D01*
X0037363Y0099312D01*
X0037678Y0099929D01*
X0037892Y0100588D01*
X0038000Y0101272D01*
X0038000Y0101618D01*
X0031000Y0101618D01*
X0031000Y0097218D01*
X0031000Y0101618D01*
X0031000Y0101618D01*
X0031000Y0101618D01*
X0024000Y0101618D01*
X0031000Y0101618D01*
X0031000Y0101618D01*
X0038000Y0101618D01*
X0038000Y0101964D01*
X0037892Y0102648D01*
X0037678Y0103307D01*
X0037363Y0103924D01*
X0036956Y0104485D01*
X0036466Y0104974D01*
X0035906Y0105381D01*
X0035289Y0105696D01*
X0034630Y0105910D01*
X0033946Y0106018D01*
X0031000Y0106018D01*
X0031000Y0101618D01*
X0031000Y0106018D01*
X0028054Y0106018D01*
X0027370Y0105910D01*
X0024933Y0104332D02*
X0018400Y0104332D01*
X0018400Y0102733D02*
X0024136Y0102733D01*
X0024022Y0101135D02*
X0018400Y0101135D01*
X0018400Y0099536D02*
X0024523Y0099536D01*
X0025980Y0097938D02*
X0018400Y0097938D01*
X0018400Y0096339D02*
X0103600Y0096339D01*
X0103600Y0094741D02*
X0088026Y0094741D01*
X0088806Y0094418D02*
X0087115Y0095118D01*
X0079285Y0095118D01*
X0077594Y0094418D01*
X0076300Y0093124D01*
X0075600Y0091433D01*
X0075600Y0089603D01*
X0076300Y0087912D01*
X0077594Y0086618D01*
X0079285Y0085918D01*
X0087115Y0085918D01*
X0088806Y0086618D01*
X0090100Y0087912D01*
X0090800Y0089603D01*
X0090800Y0091433D01*
X0090100Y0093124D01*
X0088806Y0094418D01*
X0090081Y0093142D02*
X0101919Y0093142D01*
X0101246Y0091544D02*
X0090754Y0091544D01*
X0090800Y0089945D02*
X0101200Y0089945D01*
X0101720Y0088347D02*
X0090280Y0088347D01*
X0088935Y0086748D02*
X0103065Y0086748D01*
X0108800Y0090518D02*
X0106000Y0093318D01*
X0106000Y0141618D01*
X0101800Y0141098D02*
X0100200Y0141098D01*
X0100200Y0142696D02*
X0101800Y0142696D01*
X0101800Y0144295D02*
X0100200Y0144295D01*
X0100200Y0145054D02*
X0099561Y0146597D01*
X0098379Y0147779D01*
X0096835Y0148418D01*
X0095165Y0148418D01*
X0093621Y0147779D01*
X0092439Y0146597D01*
X0091800Y0145054D01*
X0091800Y0140812D01*
X0090006Y0139018D01*
X0084540Y0139018D01*
X0082740Y0140818D01*
X0080194Y0140818D01*
X0075159Y0145853D01*
X0074277Y0146218D01*
X0069500Y0146218D01*
X0069500Y0147733D01*
X0068800Y0149424D01*
X0067506Y0150718D01*
X0065815Y0151418D01*
X0063985Y0151418D01*
X0062294Y0150718D01*
X0061000Y0149424D01*
X0060300Y0147733D01*
X0060300Y0139903D01*
X0061000Y0138212D01*
X0062294Y0136918D01*
X0063985Y0136218D01*
X0065815Y0136218D01*
X0067506Y0136918D01*
X0068800Y0138212D01*
X0069500Y0139903D01*
X0069500Y0141418D01*
X0072806Y0141418D01*
X0076800Y0137424D01*
X0076800Y0134878D01*
X0079260Y0132418D01*
X0082740Y0132418D01*
X0084540Y0134218D01*
X0091477Y0134218D01*
X0092359Y0134583D01*
X0093427Y0135651D01*
X0093621Y0135458D01*
X0095165Y0134818D01*
X0096835Y0134818D01*
X0098379Y0135458D01*
X0099561Y0136639D01*
X0100200Y0138183D01*
X0100200Y0145054D01*
X0099852Y0145893D02*
X0102148Y0145893D01*
X0103334Y0147492D02*
X0098666Y0147492D01*
X0093334Y0147492D02*
X0069500Y0147492D01*
X0068938Y0149090D02*
X0110078Y0149090D01*
X0108764Y0147492D02*
X0108666Y0147492D01*
X0111676Y0150689D02*
X0067535Y0150689D01*
X0062265Y0150689D02*
X0058400Y0150689D01*
X0058400Y0152287D02*
X0113275Y0152287D01*
X0114873Y0153886D02*
X0058400Y0153886D01*
X0058400Y0155484D02*
X0116472Y0155484D01*
X0118070Y0157083D02*
X0058400Y0157083D01*
X0058400Y0158681D02*
X0119709Y0158681D01*
X0116000Y0141618D02*
X0148800Y0108818D01*
X0148800Y0090518D01*
X0151200Y0096339D02*
X0167885Y0096339D01*
X0168026Y0094741D02*
X0169483Y0094741D01*
X0170081Y0093142D02*
X0171082Y0093142D01*
X0170754Y0091544D02*
X0172680Y0091544D01*
X0174279Y0089945D02*
X0170800Y0089945D01*
X0170280Y0088347D02*
X0176071Y0088347D01*
X0177100Y0090518D02*
X0126000Y0141618D01*
X0126309Y0134703D02*
X0129521Y0134703D01*
X0131119Y0133105D02*
X0127907Y0133105D01*
X0129506Y0131506D02*
X0132718Y0131506D01*
X0134316Y0129908D02*
X0131104Y0129908D01*
X0132703Y0128309D02*
X0135915Y0128309D01*
X0137513Y0126711D02*
X0134301Y0126711D01*
X0135900Y0125112D02*
X0139112Y0125112D01*
X0140710Y0123514D02*
X0137498Y0123514D01*
X0139097Y0121915D02*
X0142309Y0121915D01*
X0143907Y0120317D02*
X0140695Y0120317D01*
X0142294Y0118718D02*
X0145506Y0118718D01*
X0147104Y0117120D02*
X0143892Y0117120D01*
X0145491Y0115521D02*
X0148703Y0115521D01*
X0150301Y0113923D02*
X0147089Y0113923D01*
X0148688Y0112324D02*
X0151900Y0112324D01*
X0153498Y0110726D02*
X0150286Y0110726D01*
X0151200Y0109127D02*
X0155097Y0109127D01*
X0156695Y0107529D02*
X0151200Y0107529D01*
X0151200Y0105930D02*
X0154090Y0105930D01*
X0154177Y0106018D02*
X0151600Y0103441D01*
X0151600Y0101618D01*
X0151600Y0099796D01*
X0154177Y0097218D01*
X0156000Y0097218D01*
X0157823Y0097218D01*
X0160400Y0099796D01*
X0160400Y0101618D01*
X0156000Y0101618D01*
X0156000Y0097218D01*
X0156000Y0101618D01*
X0156000Y0101618D01*
X0156000Y0101618D01*
X0151600Y0101618D01*
X0156000Y0101618D01*
X0156000Y0101618D01*
X0160400Y0101618D01*
X0160400Y0103441D01*
X0157823Y0106018D01*
X0156000Y0106018D01*
X0156000Y0101618D01*
X0156000Y0106018D01*
X0154177Y0106018D01*
X0156000Y0105930D02*
X0156000Y0105930D01*
X0156000Y0104332D02*
X0156000Y0104332D01*
X0156000Y0102733D02*
X0156000Y0102733D01*
X0156000Y0101618D02*
X0156000Y0101618D01*
X0156000Y0101135D02*
X0156000Y0101135D01*
X0156000Y0099536D02*
X0156000Y0099536D01*
X0156000Y0097938D02*
X0156000Y0097938D01*
X0158542Y0097938D02*
X0166286Y0097938D01*
X0164688Y0099536D02*
X0160141Y0099536D01*
X0160400Y0101135D02*
X0163089Y0101135D01*
X0161491Y0102733D02*
X0160400Y0102733D01*
X0159892Y0104332D02*
X0159509Y0104332D01*
X0158294Y0105930D02*
X0157910Y0105930D01*
X0152491Y0104332D02*
X0151200Y0104332D01*
X0151200Y0102733D02*
X0151600Y0102733D01*
X0151600Y0101135D02*
X0151200Y0101135D01*
X0151200Y0099536D02*
X0151859Y0099536D01*
X0151200Y0097938D02*
X0153458Y0097938D01*
X0153626Y0094741D02*
X0158374Y0094741D01*
X0156319Y0093142D02*
X0155681Y0093142D01*
X0155880Y0088347D02*
X0156120Y0088347D01*
X0157465Y0086748D02*
X0154535Y0086748D01*
X0152924Y0077400D02*
X0152178Y0077518D01*
X0149000Y0077518D01*
X0149000Y0072918D01*
X0148600Y0072918D01*
X0148600Y0072518D01*
X0149000Y0072518D01*
X0149000Y0067918D01*
X0152178Y0067918D01*
X0152924Y0068036D01*
X0153643Y0068270D01*
X0154316Y0068613D01*
X0154927Y0069057D01*
X0155461Y0069591D01*
X0155905Y0070202D01*
X0156103Y0070590D01*
X0156300Y0070112D01*
X0157594Y0068818D01*
X0159285Y0068118D01*
X0167115Y0068118D01*
X0168806Y0068818D01*
X0170100Y0070112D01*
X0170800Y0071803D01*
X0170800Y0073633D01*
X0170100Y0075324D01*
X0168806Y0076618D01*
X0167115Y0077318D01*
X0159285Y0077318D01*
X0157594Y0076618D01*
X0156300Y0075324D01*
X0156103Y0074847D01*
X0155905Y0075234D01*
X0155461Y0075845D01*
X0154927Y0076379D01*
X0154316Y0076823D01*
X0153643Y0077166D01*
X0152924Y0077400D01*
X0153661Y0077157D02*
X0158896Y0077157D01*
X0156535Y0075559D02*
X0155669Y0075559D01*
X0149000Y0075559D02*
X0148600Y0075559D01*
X0148600Y0077157D02*
X0149000Y0077157D01*
X0148600Y0077518D02*
X0148600Y0072918D01*
X0141000Y0072918D01*
X0141000Y0073096D01*
X0141118Y0073842D01*
X0141352Y0074561D01*
X0141695Y0075234D01*
X0142139Y0075845D01*
X0142673Y0076379D01*
X0143284Y0076823D01*
X0143957Y0077166D01*
X0144676Y0077400D01*
X0145422Y0077518D01*
X0148600Y0077518D01*
X0148600Y0073960D02*
X0149000Y0073960D01*
X0148600Y0072518D02*
X0141000Y0072518D01*
X0141000Y0072340D01*
X0141118Y0071594D01*
X0141352Y0070876D01*
X0141695Y0070202D01*
X0142139Y0069591D01*
X0142673Y0069057D01*
X0143284Y0068613D01*
X0143957Y0068270D01*
X0144676Y0068036D01*
X0145422Y0067918D01*
X0148600Y0067918D01*
X0148600Y0072518D01*
X0148600Y0072362D02*
X0149000Y0072362D01*
X0149000Y0070763D02*
X0148600Y0070763D01*
X0148600Y0069165D02*
X0149000Y0069165D01*
X0155035Y0069165D02*
X0157248Y0069165D01*
X0167504Y0077157D02*
X0183939Y0077157D01*
X0183957Y0077166D02*
X0183284Y0076823D01*
X0182673Y0076379D01*
X0182139Y0075845D01*
X0181695Y0075234D01*
X0181352Y0074561D01*
X0181118Y0073842D01*
X0181000Y0073096D01*
X0181000Y0072918D01*
X0188600Y0072918D01*
X0188600Y0072518D01*
X0189000Y0072518D01*
X0189000Y0067918D01*
X0192178Y0067918D01*
X0192924Y0068036D01*
X0193643Y0068270D01*
X0194316Y0068613D01*
X0194927Y0069057D01*
X0195461Y0069591D01*
X0195905Y0070202D01*
X0196103Y0070590D01*
X0196300Y0070112D01*
X0197594Y0068818D01*
X0199285Y0068118D01*
X0207115Y0068118D01*
X0208806Y0068818D01*
X0210100Y0070112D01*
X0210800Y0071803D01*
X0210800Y0073633D01*
X0210100Y0075324D01*
X0208806Y0076618D01*
X0207115Y0077318D01*
X0199285Y0077318D01*
X0197594Y0076618D01*
X0196300Y0075324D01*
X0196103Y0074847D01*
X0195905Y0075234D01*
X0195461Y0075845D01*
X0194927Y0076379D01*
X0194316Y0076823D01*
X0193643Y0077166D01*
X0192924Y0077400D01*
X0192178Y0077518D01*
X0189000Y0077518D01*
X0189000Y0072918D01*
X0188600Y0072918D01*
X0188600Y0077518D01*
X0185422Y0077518D01*
X0184676Y0077400D01*
X0183957Y0077166D01*
X0181931Y0075559D02*
X0169865Y0075559D01*
X0170665Y0073960D02*
X0181157Y0073960D01*
X0181000Y0072518D02*
X0181000Y0072340D01*
X0181118Y0071594D01*
X0181352Y0070876D01*
X0181695Y0070202D01*
X0182139Y0069591D01*
X0182673Y0069057D01*
X0183284Y0068613D01*
X0183957Y0068270D01*
X0184676Y0068036D01*
X0185422Y0067918D01*
X0188600Y0067918D01*
X0188600Y0072518D01*
X0181000Y0072518D01*
X0181000Y0072362D02*
X0170800Y0072362D01*
X0170369Y0070763D02*
X0181409Y0070763D01*
X0182565Y0069165D02*
X0169152Y0069165D01*
X0165873Y0059713D02*
X0165147Y0059828D01*
X0164915Y0059828D01*
X0164915Y0052423D01*
X0164644Y0052423D01*
X0164644Y0059828D01*
X0164412Y0059828D01*
X0163686Y0059713D01*
X0162987Y0059485D01*
X0162332Y0059152D01*
X0161737Y0058720D01*
X0161217Y0058200D01*
X0160785Y0057605D01*
X0160452Y0056950D01*
X0160224Y0056251D01*
X0160109Y0055525D01*
X0160109Y0052422D01*
X0164644Y0052422D01*
X0164644Y0052152D01*
X0160109Y0052152D01*
X0160109Y0049050D01*
X0160224Y0048324D01*
X0160452Y0047625D01*
X0160785Y0046970D01*
X0161217Y0046375D01*
X0161737Y0045855D01*
X0162332Y0045423D01*
X0162987Y0045089D01*
X0163686Y0044862D01*
X0164412Y0044747D01*
X0164644Y0044747D01*
X0164644Y0052152D01*
X0164915Y0052152D01*
X0164915Y0052422D01*
X0169450Y0052422D01*
X0169450Y0055525D01*
X0169335Y0056251D01*
X0169107Y0056950D01*
X0168774Y0057605D01*
X0168342Y0058200D01*
X0167822Y0058720D01*
X0167227Y0059152D01*
X0166572Y0059485D01*
X0165873Y0059713D01*
X0166301Y0059573D02*
X0235561Y0059573D01*
X0233963Y0057975D02*
X0168505Y0057975D01*
X0169294Y0056376D02*
X0232364Y0056376D01*
X0230766Y0054778D02*
X0169450Y0054778D01*
X0169450Y0053179D02*
X0229167Y0053179D01*
X0227569Y0051581D02*
X0169450Y0051581D01*
X0169450Y0052152D02*
X0164915Y0052152D01*
X0164915Y0044747D01*
X0165147Y0044747D01*
X0165873Y0044862D01*
X0166572Y0045089D01*
X0167227Y0045423D01*
X0167822Y0045855D01*
X0168342Y0046375D01*
X0168774Y0046970D01*
X0169107Y0047625D01*
X0169335Y0048324D01*
X0169450Y0049050D01*
X0169450Y0052152D01*
X0169450Y0049982D02*
X0172685Y0049982D01*
X0170441Y0048384D02*
X0169344Y0048384D01*
X0168910Y0046785D02*
X0168640Y0046785D01*
X0168248Y0045187D02*
X0166763Y0045187D01*
X0164915Y0045187D02*
X0164644Y0045187D01*
X0164644Y0046785D02*
X0164915Y0046785D01*
X0164915Y0048384D02*
X0164644Y0048384D01*
X0164644Y0049982D02*
X0164915Y0049982D01*
X0164915Y0051581D02*
X0164644Y0051581D01*
X0164644Y0053179D02*
X0164915Y0053179D01*
X0164915Y0054778D02*
X0164644Y0054778D01*
X0164644Y0056376D02*
X0164915Y0056376D01*
X0164915Y0057975D02*
X0164644Y0057975D01*
X0164644Y0059573D02*
X0164915Y0059573D01*
X0163258Y0059573D02*
X0155957Y0059573D01*
X0155826Y0059628D02*
X0154048Y0059628D01*
X0152405Y0058947D01*
X0151147Y0057690D01*
X0151000Y0057334D01*
X0150853Y0057690D01*
X0149595Y0058947D01*
X0147952Y0059628D01*
X0146174Y0059628D01*
X0144531Y0058947D01*
X0143273Y0057690D01*
X0142593Y0056047D01*
X0142593Y0048528D01*
X0143273Y0046885D01*
X0144531Y0045628D01*
X0146174Y0044947D01*
X0147952Y0044947D01*
X0149595Y0045628D01*
X0150853Y0046885D01*
X0151000Y0047241D01*
X0151147Y0046885D01*
X0152405Y0045628D01*
X0154048Y0044947D01*
X0155826Y0044947D01*
X0157469Y0045628D01*
X0158727Y0046885D01*
X0159407Y0048528D01*
X0159407Y0056047D01*
X0158727Y0057690D01*
X0157469Y0058947D01*
X0155826Y0059628D01*
X0153917Y0059573D02*
X0148083Y0059573D01*
X0146043Y0059573D02*
X0139620Y0059573D01*
X0139620Y0061172D02*
X0237160Y0061172D01*
X0238600Y0062770D02*
X0139620Y0062770D01*
X0139620Y0064369D02*
X0238600Y0064369D01*
X0238600Y0065967D02*
X0139620Y0065967D01*
X0139620Y0067566D02*
X0238600Y0067566D01*
X0238600Y0069165D02*
X0235035Y0069165D01*
X0234927Y0069057D02*
X0235461Y0069591D01*
X0235905Y0070202D01*
X0236248Y0070876D01*
X0236482Y0071594D01*
X0236600Y0072340D01*
X0236600Y0072518D01*
X0229000Y0072518D01*
X0229000Y0067918D01*
X0232178Y0067918D01*
X0232924Y0068036D01*
X0233643Y0068270D01*
X0234316Y0068613D01*
X0234927Y0069057D01*
X0236191Y0070763D02*
X0238600Y0070763D01*
X0238600Y0072362D02*
X0236600Y0072362D01*
X0236600Y0072918D02*
X0236600Y0073096D01*
X0236482Y0073842D01*
X0236248Y0074561D01*
X0235905Y0075234D01*
X0235461Y0075845D01*
X0234927Y0076379D01*
X0234316Y0076823D01*
X0233643Y0077166D01*
X0232924Y0077400D01*
X0232178Y0077518D01*
X0229000Y0077518D01*
X0229000Y0072918D01*
X0236600Y0072918D01*
X0236443Y0073960D02*
X0238600Y0073960D01*
X0238600Y0075559D02*
X0235669Y0075559D01*
X0233661Y0077157D02*
X0238600Y0077157D01*
X0238600Y0078756D02*
X0139620Y0078756D01*
X0139620Y0080354D02*
X0223870Y0080354D01*
X0222271Y0081953D02*
X0139620Y0081953D01*
X0139620Y0083551D02*
X0220673Y0083551D01*
X0219074Y0085150D02*
X0139620Y0085150D01*
X0139620Y0086748D02*
X0143065Y0086748D01*
X0141720Y0088347D02*
X0139620Y0088347D01*
X0139620Y0089945D02*
X0141200Y0089945D01*
X0141246Y0091544D02*
X0139620Y0091544D01*
X0139620Y0093142D02*
X0141919Y0093142D01*
X0143974Y0094741D02*
X0139620Y0094741D01*
X0139620Y0096339D02*
X0146400Y0096339D01*
X0146400Y0097938D02*
X0139620Y0097938D01*
X0139620Y0099536D02*
X0146400Y0099536D01*
X0146400Y0101135D02*
X0139620Y0101135D01*
X0139620Y0102733D02*
X0146400Y0102733D01*
X0146400Y0104332D02*
X0139620Y0104332D01*
X0139598Y0105930D02*
X0146400Y0105930D01*
X0146400Y0107529D02*
X0138483Y0107529D01*
X0136885Y0109127D02*
X0145097Y0109127D01*
X0143498Y0110726D02*
X0135286Y0110726D01*
X0133688Y0112324D02*
X0141900Y0112324D01*
X0140301Y0113923D02*
X0132089Y0113923D01*
X0130491Y0115521D02*
X0138703Y0115521D01*
X0137104Y0117120D02*
X0128892Y0117120D01*
X0127294Y0118718D02*
X0135506Y0118718D01*
X0133907Y0120317D02*
X0125695Y0120317D01*
X0124097Y0121915D02*
X0132309Y0121915D01*
X0130710Y0123514D02*
X0122498Y0123514D01*
X0120900Y0125112D02*
X0129112Y0125112D01*
X0127513Y0126711D02*
X0119301Y0126711D01*
X0117703Y0128309D02*
X0125915Y0128309D01*
X0124316Y0129908D02*
X0116104Y0129908D01*
X0114506Y0131506D02*
X0122718Y0131506D01*
X0121119Y0133105D02*
X0113400Y0133105D01*
X0113400Y0134703D02*
X0119521Y0134703D01*
X0112513Y0126711D02*
X0108400Y0126711D01*
X0108400Y0128309D02*
X0110915Y0128309D01*
X0109316Y0129908D02*
X0108400Y0129908D01*
X0108400Y0131506D02*
X0108600Y0131506D01*
X0108600Y0133105D02*
X0108400Y0133105D01*
X0108400Y0134703D02*
X0108600Y0134703D01*
X0103600Y0134703D02*
X0092479Y0134703D01*
X0091000Y0136618D02*
X0096000Y0141618D01*
X0091800Y0141098D02*
X0079915Y0141098D01*
X0078316Y0142696D02*
X0091800Y0142696D01*
X0091800Y0144295D02*
X0076718Y0144295D01*
X0075062Y0145893D02*
X0092148Y0145893D01*
X0090487Y0139499D02*
X0084059Y0139499D01*
X0081000Y0136618D02*
X0073800Y0143818D01*
X0064900Y0143818D01*
X0060300Y0144295D02*
X0058400Y0144295D01*
X0058400Y0145893D02*
X0060300Y0145893D01*
X0060300Y0147492D02*
X0058400Y0147492D01*
X0058400Y0149090D02*
X0060862Y0149090D01*
X0060300Y0142696D02*
X0058400Y0142696D01*
X0058400Y0141098D02*
X0060300Y0141098D01*
X0060467Y0139499D02*
X0058400Y0139499D01*
X0058400Y0137901D02*
X0061312Y0137901D01*
X0063782Y0136302D02*
X0058400Y0136302D01*
X0057479Y0134703D02*
X0076975Y0134703D01*
X0076800Y0136302D02*
X0066018Y0136302D01*
X0068488Y0137901D02*
X0076323Y0137901D01*
X0074725Y0139499D02*
X0069333Y0139499D01*
X0069500Y0141098D02*
X0073126Y0141098D01*
X0081000Y0136618D02*
X0091000Y0136618D01*
X0099224Y0136302D02*
X0102776Y0136302D01*
X0101917Y0137901D02*
X0100083Y0137901D01*
X0100200Y0139499D02*
X0101800Y0139499D01*
X0103600Y0133105D02*
X0083427Y0133105D01*
X0078573Y0133105D02*
X0055881Y0133105D01*
X0054282Y0131506D02*
X0103600Y0131506D01*
X0103600Y0129908D02*
X0052684Y0129908D01*
X0051000Y0131618D02*
X0046000Y0131618D01*
X0041800Y0131506D02*
X0037800Y0131506D01*
X0037800Y0130783D02*
X0037800Y0132454D01*
X0037161Y0133997D01*
X0035979Y0135179D01*
X0034435Y0135818D01*
X0033400Y0135818D01*
X0033400Y0142095D01*
X0033035Y0142978D01*
X0030200Y0145812D01*
X0030200Y0148358D01*
X0027740Y0150818D01*
X0024260Y0150818D01*
X0021800Y0148358D01*
X0021800Y0144878D01*
X0024260Y0142418D01*
X0026806Y0142418D01*
X0028600Y0140624D01*
X0028600Y0135818D01*
X0027565Y0135818D01*
X0026021Y0135179D01*
X0024839Y0133997D01*
X0024200Y0132454D01*
X0024200Y0130783D01*
X0024839Y0129239D01*
X0026021Y0128058D01*
X0027565Y0127418D01*
X0034435Y0127418D01*
X0035979Y0128058D01*
X0037161Y0129239D01*
X0037800Y0130783D01*
X0037438Y0129908D02*
X0041800Y0129908D01*
X0043369Y0128309D02*
X0036231Y0128309D01*
X0037530Y0133105D02*
X0041800Y0133105D01*
X0043146Y0134703D02*
X0036454Y0134703D01*
X0033400Y0136302D02*
X0045466Y0136302D01*
X0045257Y0136370D02*
X0045976Y0136136D01*
X0046722Y0136018D01*
X0046900Y0136018D01*
X0046900Y0143618D01*
X0047300Y0143618D01*
X0047300Y0136018D01*
X0047478Y0136018D01*
X0048224Y0136136D01*
X0048943Y0136370D01*
X0049616Y0136713D01*
X0050227Y0137157D01*
X0050761Y0137691D01*
X0051205Y0138302D01*
X0051548Y0138976D01*
X0051782Y0139694D01*
X0051900Y0140440D01*
X0051900Y0143618D01*
X0047300Y0143618D01*
X0047300Y0144018D01*
X0051900Y0144018D01*
X0051900Y0147196D01*
X0051782Y0147942D01*
X0051548Y0148661D01*
X0051205Y0149334D01*
X0050761Y0149945D01*
X0050227Y0150479D01*
X0049616Y0150923D01*
X0048943Y0151266D01*
X0048224Y0151500D01*
X0047478Y0151618D01*
X0047300Y0151618D01*
X0047300Y0144018D01*
X0046900Y0144018D01*
X0046900Y0143618D01*
X0042300Y0143618D01*
X0042300Y0140440D01*
X0042418Y0139694D01*
X0042652Y0138976D01*
X0042995Y0138302D01*
X0043439Y0137691D01*
X0043973Y0137157D01*
X0044584Y0136713D01*
X0045257Y0136370D01*
X0046900Y0136302D02*
X0047300Y0136302D01*
X0048734Y0136302D02*
X0052290Y0136302D01*
X0053600Y0137901D02*
X0050913Y0137901D01*
X0051718Y0139499D02*
X0053600Y0139499D01*
X0053600Y0141098D02*
X0051900Y0141098D01*
X0051900Y0142696D02*
X0053600Y0142696D01*
X0053600Y0144295D02*
X0051900Y0144295D01*
X0051900Y0145893D02*
X0053600Y0145893D01*
X0053600Y0147492D02*
X0051853Y0147492D01*
X0051330Y0149090D02*
X0053600Y0149090D01*
X0053600Y0150689D02*
X0049939Y0150689D01*
X0047300Y0150689D02*
X0046900Y0150689D01*
X0046900Y0151618D02*
X0046722Y0151618D01*
X0045976Y0151500D01*
X0045257Y0151266D01*
X0044584Y0150923D01*
X0043973Y0150479D01*
X0043439Y0149945D01*
X0042995Y0149334D01*
X0042652Y0148661D01*
X0042418Y0147942D01*
X0042300Y0147196D01*
X0042300Y0144018D01*
X0046900Y0144018D01*
X0046900Y0151618D01*
X0046900Y0149090D02*
X0047300Y0149090D01*
X0047300Y0147492D02*
X0046900Y0147492D01*
X0046900Y0145893D02*
X0047300Y0145893D01*
X0047300Y0144295D02*
X0046900Y0144295D01*
X0046900Y0142696D02*
X0047300Y0142696D01*
X0047300Y0141098D02*
X0046900Y0141098D01*
X0046900Y0139499D02*
X0047300Y0139499D01*
X0047300Y0137901D02*
X0046900Y0137901D01*
X0048854Y0134703D02*
X0050691Y0134703D01*
X0051000Y0131618D02*
X0056000Y0136618D01*
X0056000Y0196618D01*
X0071000Y0211618D01*
X0206000Y0211618D01*
X0211000Y0206618D01*
X0211000Y0196618D01*
X0196000Y0181618D01*
X0191800Y0181060D02*
X0190200Y0181060D01*
X0190200Y0182659D02*
X0191800Y0182659D01*
X0191800Y0184257D02*
X0190200Y0184257D01*
X0189868Y0185856D02*
X0192132Y0185856D01*
X0193297Y0187454D02*
X0188703Y0187454D01*
X0191550Y0179462D02*
X0191800Y0179462D01*
X0209186Y0176265D02*
X0212814Y0176265D01*
X0212439Y0176639D02*
X0213621Y0175458D01*
X0215165Y0174818D01*
X0216835Y0174818D01*
X0218379Y0175458D01*
X0219561Y0176639D01*
X0220200Y0178183D01*
X0220200Y0185054D01*
X0219561Y0186597D01*
X0218379Y0187779D01*
X0216835Y0188418D01*
X0215165Y0188418D01*
X0213621Y0187779D01*
X0212439Y0186597D01*
X0211800Y0185054D01*
X0211800Y0178183D01*
X0212439Y0176639D01*
X0211932Y0177863D02*
X0210068Y0177863D01*
X0210200Y0179462D02*
X0211800Y0179462D01*
X0211800Y0181060D02*
X0210200Y0181060D01*
X0210200Y0182659D02*
X0211800Y0182659D01*
X0211800Y0184257D02*
X0210200Y0184257D01*
X0209868Y0185856D02*
X0212132Y0185856D01*
X0213297Y0187454D02*
X0208703Y0187454D01*
X0206829Y0189053D02*
X0269901Y0189053D01*
X0269901Y0190651D02*
X0208427Y0190651D01*
X0210026Y0192250D02*
X0269901Y0192250D01*
X0269901Y0193848D02*
X0211624Y0193848D01*
X0213113Y0195447D02*
X0269901Y0195447D01*
X0269901Y0197045D02*
X0213400Y0197045D01*
X0213400Y0198644D02*
X0218616Y0198644D01*
X0218194Y0198818D02*
X0219885Y0198118D01*
X0227715Y0198118D01*
X0229406Y0198818D01*
X0230700Y0200112D01*
X0231400Y0201803D01*
X0231400Y0203633D01*
X0230700Y0205324D01*
X0229406Y0206618D01*
X0227715Y0207318D01*
X0219885Y0207318D01*
X0218194Y0206618D01*
X0216900Y0205324D01*
X0216200Y0203633D01*
X0216200Y0201803D01*
X0216900Y0200112D01*
X0218194Y0198818D01*
X0216846Y0200242D02*
X0213400Y0200242D01*
X0213400Y0201841D02*
X0216200Y0201841D01*
X0216200Y0203439D02*
X0213400Y0203439D01*
X0213400Y0205038D02*
X0216782Y0205038D01*
X0218239Y0206636D02*
X0213400Y0206636D01*
X0212777Y0208235D02*
X0269901Y0208235D01*
X0269901Y0206636D02*
X0229361Y0206636D01*
X0230818Y0205038D02*
X0269901Y0205038D01*
X0269901Y0203439D02*
X0231400Y0203439D01*
X0231400Y0201841D02*
X0269901Y0201841D01*
X0269901Y0200242D02*
X0230754Y0200242D01*
X0228984Y0198644D02*
X0269901Y0198644D01*
X0269901Y0187454D02*
X0228703Y0187454D01*
X0228379Y0187779D02*
X0226835Y0188418D01*
X0225165Y0188418D01*
X0223621Y0187779D01*
X0222439Y0186597D01*
X0221800Y0185054D01*
X0221800Y0178183D01*
X0222439Y0176639D01*
X0223621Y0175458D01*
X0225165Y0174818D01*
X0226835Y0174818D01*
X0228379Y0175458D01*
X0229561Y0176639D01*
X0230200Y0178183D01*
X0230200Y0185054D01*
X0229561Y0186597D01*
X0228379Y0187779D01*
X0229868Y0185856D02*
X0269901Y0185856D01*
X0269901Y0184257D02*
X0230200Y0184257D01*
X0230200Y0182659D02*
X0269901Y0182659D01*
X0269901Y0181060D02*
X0258046Y0181060D01*
X0258027Y0181079D02*
X0257416Y0181523D01*
X0256743Y0181866D01*
X0256024Y0182100D01*
X0255278Y0182218D01*
X0255100Y0182218D01*
X0255100Y0174618D01*
X0259700Y0174618D01*
X0259700Y0177796D01*
X0259582Y0178542D01*
X0259348Y0179261D01*
X0259005Y0179934D01*
X0258561Y0180545D01*
X0258027Y0181079D01*
X0259246Y0179462D02*
X0269901Y0179462D01*
X0269901Y0177863D02*
X0259689Y0177863D01*
X0259700Y0176265D02*
X0269901Y0176265D01*
X0269901Y0174666D02*
X0259700Y0174666D01*
X0259700Y0174218D02*
X0255100Y0174218D01*
X0255100Y0166618D01*
X0255278Y0166618D01*
X0256024Y0166736D01*
X0256743Y0166970D01*
X0257416Y0167313D01*
X0258027Y0167757D01*
X0258561Y0168291D01*
X0259005Y0168902D01*
X0259348Y0169576D01*
X0259582Y0170294D01*
X0259700Y0171040D01*
X0259700Y0174218D01*
X0259700Y0173068D02*
X0269901Y0173068D01*
X0269901Y0171469D02*
X0259700Y0171469D01*
X0259444Y0169871D02*
X0269901Y0169871D01*
X0269901Y0168272D02*
X0258542Y0168272D01*
X0255629Y0166674D02*
X0269901Y0166674D01*
X0269901Y0165075D02*
X0231151Y0165075D01*
X0229553Y0163477D02*
X0269901Y0163477D01*
X0269901Y0161878D02*
X0228400Y0161878D01*
X0228400Y0160280D02*
X0269901Y0160280D01*
X0269901Y0158681D02*
X0228400Y0158681D01*
X0228400Y0157083D02*
X0269901Y0157083D01*
X0269901Y0155484D02*
X0257739Y0155484D01*
X0257506Y0155718D02*
X0255815Y0156418D01*
X0253985Y0156418D01*
X0252294Y0155718D01*
X0251000Y0154424D01*
X0250300Y0152733D01*
X0250300Y0144903D01*
X0251000Y0143212D01*
X0252294Y0141918D01*
X0253985Y0141218D01*
X0255815Y0141218D01*
X0257506Y0141918D01*
X0258800Y0143212D01*
X0259500Y0144903D01*
X0259500Y0152733D01*
X0258800Y0154424D01*
X0257506Y0155718D01*
X0259023Y0153886D02*
X0269901Y0153886D01*
X0269901Y0152287D02*
X0259500Y0152287D01*
X0259500Y0150689D02*
X0269901Y0150689D01*
X0269901Y0149090D02*
X0259500Y0149090D01*
X0259500Y0147492D02*
X0269901Y0147492D01*
X0269901Y0145893D02*
X0259500Y0145893D01*
X0259248Y0144295D02*
X0269901Y0144295D01*
X0269901Y0142696D02*
X0258283Y0142696D01*
X0251517Y0142696D02*
X0240483Y0142696D01*
X0241000Y0143212D02*
X0241700Y0144903D01*
X0241700Y0152733D01*
X0241000Y0154424D01*
X0239706Y0155718D01*
X0238015Y0156418D01*
X0236185Y0156418D01*
X0234494Y0155718D01*
X0233200Y0154424D01*
X0232500Y0152733D01*
X0232500Y0144903D01*
X0233200Y0143212D01*
X0234494Y0141918D01*
X0236185Y0141218D01*
X0238015Y0141218D01*
X0239706Y0141918D01*
X0241000Y0143212D01*
X0241448Y0144295D02*
X0250552Y0144295D01*
X0250300Y0145893D02*
X0241700Y0145893D01*
X0241700Y0147492D02*
X0250300Y0147492D01*
X0250300Y0149090D02*
X0241700Y0149090D01*
X0241700Y0150689D02*
X0250300Y0150689D01*
X0250300Y0152287D02*
X0241700Y0152287D01*
X0241223Y0153886D02*
X0250777Y0153886D01*
X0252061Y0155484D02*
X0239939Y0155484D01*
X0234261Y0155484D02*
X0228400Y0155484D01*
X0228400Y0153886D02*
X0232977Y0153886D01*
X0232500Y0152287D02*
X0228400Y0152287D01*
X0228400Y0150689D02*
X0232500Y0150689D01*
X0232500Y0149090D02*
X0228400Y0149090D01*
X0228666Y0147492D02*
X0232500Y0147492D01*
X0232500Y0145893D02*
X0229852Y0145893D01*
X0230200Y0144295D02*
X0232752Y0144295D01*
X0233717Y0142696D02*
X0230200Y0142696D01*
X0230200Y0141098D02*
X0269901Y0141098D01*
X0269901Y0139499D02*
X0230200Y0139499D01*
X0230083Y0137901D02*
X0269901Y0137901D01*
X0269901Y0136302D02*
X0229224Y0136302D01*
X0226309Y0134703D02*
X0238146Y0134703D01*
X0243854Y0134703D02*
X0269901Y0134703D01*
X0269901Y0133105D02*
X0245200Y0133105D01*
X0236000Y0125112D02*
X0236000Y0125112D01*
X0236000Y0123514D02*
X0236000Y0123514D01*
X0236000Y0121915D02*
X0236000Y0121915D01*
X0236000Y0121618D02*
X0236000Y0121618D01*
X0236000Y0120317D02*
X0236000Y0120317D01*
X0236000Y0118718D02*
X0236000Y0118718D01*
X0235491Y0115521D02*
X0269901Y0115521D01*
X0269901Y0113923D02*
X0237089Y0113923D01*
X0238688Y0112324D02*
X0269901Y0112324D01*
X0269901Y0110726D02*
X0240286Y0110726D01*
X0241885Y0109127D02*
X0269901Y0109127D01*
X0269901Y0107529D02*
X0243221Y0107529D01*
X0243400Y0105930D02*
X0269901Y0105930D01*
X0269901Y0104332D02*
X0243400Y0104332D01*
X0243400Y0102733D02*
X0269901Y0102733D01*
X0269901Y0101135D02*
X0243400Y0101135D01*
X0243400Y0099536D02*
X0269901Y0099536D01*
X0269901Y0097938D02*
X0243400Y0097938D01*
X0243400Y0096339D02*
X0269901Y0096339D01*
X0269901Y0094741D02*
X0243400Y0094741D01*
X0243400Y0093142D02*
X0269901Y0093142D01*
X0269901Y0091544D02*
X0243400Y0091544D01*
X0243400Y0089945D02*
X0269901Y0089945D01*
X0269901Y0088347D02*
X0243400Y0088347D01*
X0243400Y0086748D02*
X0269901Y0086748D01*
X0269901Y0085150D02*
X0243400Y0085150D01*
X0243400Y0083551D02*
X0269901Y0083551D01*
X0269901Y0081953D02*
X0243400Y0081953D01*
X0243400Y0080354D02*
X0269901Y0080354D01*
X0269901Y0078756D02*
X0243400Y0078756D01*
X0243400Y0077157D02*
X0269901Y0077157D01*
X0269901Y0075559D02*
X0243400Y0075559D01*
X0243400Y0073960D02*
X0269901Y0073960D01*
X0269901Y0072362D02*
X0243400Y0072362D01*
X0243400Y0070763D02*
X0269901Y0070763D01*
X0269901Y0069165D02*
X0243400Y0069165D01*
X0243400Y0067566D02*
X0269901Y0067566D01*
X0269901Y0065967D02*
X0243400Y0065967D01*
X0243400Y0064369D02*
X0269901Y0064369D01*
X0269901Y0062770D02*
X0243400Y0062770D01*
X0243400Y0061172D02*
X0269901Y0061172D01*
X0269901Y0059573D02*
X0242349Y0059573D01*
X0242359Y0059583D02*
X0242359Y0059583D01*
X0240751Y0057975D02*
X0269901Y0057975D01*
X0269901Y0056376D02*
X0239152Y0056376D01*
X0237554Y0054778D02*
X0269901Y0054778D01*
X0269901Y0053179D02*
X0235955Y0053179D01*
X0234357Y0051581D02*
X0269901Y0051581D01*
X0269901Y0049982D02*
X0232758Y0049982D01*
X0231160Y0048384D02*
X0269901Y0048384D01*
X0269901Y0046785D02*
X0229561Y0046785D01*
X0227963Y0045187D02*
X0269901Y0045187D01*
X0269901Y0043588D02*
X0226364Y0043588D01*
X0224766Y0041990D02*
X0269901Y0041990D01*
X0269901Y0040391D02*
X0223167Y0040391D01*
X0223035Y0040259D02*
X0223035Y0040259D01*
X0221175Y0045187D02*
X0185484Y0045187D01*
X0184822Y0046785D02*
X0222773Y0046785D01*
X0224372Y0048384D02*
X0183292Y0048384D01*
X0181047Y0049982D02*
X0225970Y0049982D01*
X0225422Y0067918D02*
X0228600Y0067918D01*
X0228600Y0072518D01*
X0229000Y0072518D01*
X0229000Y0072918D01*
X0228600Y0072918D01*
X0228600Y0072518D01*
X0221000Y0072518D01*
X0221000Y0072340D01*
X0221118Y0071594D01*
X0221352Y0070876D01*
X0221695Y0070202D01*
X0222139Y0069591D01*
X0222673Y0069057D01*
X0223284Y0068613D01*
X0223957Y0068270D01*
X0224676Y0068036D01*
X0225422Y0067918D01*
X0222565Y0069165D02*
X0209152Y0069165D01*
X0210369Y0070763D02*
X0221409Y0070763D01*
X0221000Y0072362D02*
X0210800Y0072362D01*
X0210665Y0073960D02*
X0221157Y0073960D01*
X0221118Y0073842D02*
X0221000Y0073096D01*
X0221000Y0072918D01*
X0228600Y0072918D01*
X0228600Y0077518D01*
X0225422Y0077518D01*
X0224676Y0077400D01*
X0223957Y0077166D01*
X0223284Y0076823D01*
X0222673Y0076379D01*
X0222139Y0075845D01*
X0221695Y0075234D01*
X0221352Y0074561D01*
X0221118Y0073842D01*
X0221931Y0075559D02*
X0209865Y0075559D01*
X0207504Y0077157D02*
X0223939Y0077157D01*
X0228600Y0077157D02*
X0229000Y0077157D01*
X0229000Y0075559D02*
X0228600Y0075559D01*
X0228600Y0073960D02*
X0229000Y0073960D01*
X0229000Y0072362D02*
X0228600Y0072362D01*
X0228600Y0070763D02*
X0229000Y0070763D01*
X0229000Y0069165D02*
X0228600Y0069165D01*
X0233130Y0080354D02*
X0238600Y0080354D01*
X0238600Y0081953D02*
X0234729Y0081953D01*
X0236327Y0083551D02*
X0238600Y0083551D01*
X0238600Y0085150D02*
X0237926Y0085150D01*
X0238400Y0086748D02*
X0238600Y0086748D01*
X0238600Y0088347D02*
X0238400Y0088347D01*
X0238400Y0089945D02*
X0238600Y0089945D01*
X0238600Y0091544D02*
X0238400Y0091544D01*
X0238400Y0093142D02*
X0238600Y0093142D01*
X0238600Y0094741D02*
X0238400Y0094741D01*
X0238400Y0096339D02*
X0238600Y0096339D01*
X0238600Y0097938D02*
X0238400Y0097938D01*
X0238400Y0099536D02*
X0238600Y0099536D01*
X0238600Y0101135D02*
X0238400Y0101135D01*
X0238600Y0102733D02*
X0238136Y0102733D01*
X0238600Y0104332D02*
X0236680Y0104332D01*
X0235082Y0105930D02*
X0238294Y0105930D01*
X0236695Y0107529D02*
X0233483Y0107529D01*
X0231885Y0109127D02*
X0235097Y0109127D01*
X0233498Y0110726D02*
X0230286Y0110726D01*
X0228688Y0112324D02*
X0231900Y0112324D01*
X0230301Y0113923D02*
X0226707Y0113923D01*
X0226000Y0111618D02*
X0181500Y0111618D01*
X0171500Y0121618D01*
X0171500Y0122118D01*
X0176000Y0126618D01*
X0176000Y0141618D01*
X0171800Y0141098D02*
X0170400Y0141098D01*
X0170400Y0141618D02*
X0166000Y0141618D01*
X0166000Y0134618D01*
X0166346Y0134618D01*
X0167030Y0134726D01*
X0167689Y0134940D01*
X0168306Y0135255D01*
X0168866Y0135662D01*
X0169356Y0136152D01*
X0169763Y0136712D01*
X0170078Y0137329D01*
X0170292Y0137988D01*
X0170400Y0138672D01*
X0170400Y0141618D01*
X0170400Y0144564D01*
X0170292Y0145248D01*
X0170078Y0145907D01*
X0169763Y0146524D01*
X0169356Y0147085D01*
X0168866Y0147574D01*
X0168306Y0147981D01*
X0167689Y0148296D01*
X0167030Y0148510D01*
X0166346Y0148618D01*
X0166000Y0148618D01*
X0166000Y0141618D01*
X0166000Y0141618D01*
X0166000Y0134618D01*
X0165654Y0134618D01*
X0164970Y0134726D01*
X0164311Y0134940D01*
X0163694Y0135255D01*
X0163134Y0135662D01*
X0162644Y0136152D01*
X0162237Y0136712D01*
X0161922Y0137329D01*
X0161708Y0137988D01*
X0161600Y0138672D01*
X0161600Y0141618D01*
X0166000Y0141618D01*
X0166000Y0141618D01*
X0166000Y0141618D01*
X0170400Y0141618D01*
X0170400Y0142696D02*
X0171800Y0142696D01*
X0171800Y0144295D02*
X0170400Y0144295D01*
X0170082Y0145893D02*
X0172148Y0145893D01*
X0173334Y0147492D02*
X0168949Y0147492D01*
X0166000Y0147492D02*
X0166000Y0147492D01*
X0166000Y0148618D02*
X0165654Y0148618D01*
X0164970Y0148510D01*
X0164311Y0148296D01*
X0163694Y0147981D01*
X0163134Y0147574D01*
X0162644Y0147085D01*
X0162237Y0146524D01*
X0161922Y0145907D01*
X0161708Y0145248D01*
X0161600Y0144564D01*
X0161600Y0141618D01*
X0166000Y0141618D01*
X0166000Y0148618D01*
X0166000Y0145893D02*
X0166000Y0145893D01*
X0166000Y0144295D02*
X0166000Y0144295D01*
X0166000Y0142696D02*
X0166000Y0142696D01*
X0166000Y0141618D02*
X0166000Y0141618D01*
X0166000Y0141098D02*
X0166000Y0141098D01*
X0166000Y0139499D02*
X0166000Y0139499D01*
X0166000Y0137901D02*
X0166000Y0137901D01*
X0166000Y0136302D02*
X0166000Y0136302D01*
X0166000Y0134703D02*
X0166000Y0134703D01*
X0166885Y0134703D02*
X0173600Y0134703D01*
X0173600Y0133105D02*
X0162907Y0133105D01*
X0164506Y0131506D02*
X0173600Y0131506D01*
X0173600Y0129908D02*
X0166104Y0129908D01*
X0167703Y0128309D02*
X0173600Y0128309D01*
X0172699Y0126711D02*
X0168400Y0126711D01*
X0168400Y0125112D02*
X0169055Y0125112D01*
X0166000Y0126618D02*
X0161000Y0131618D01*
X0146000Y0131618D01*
X0136000Y0141618D01*
X0146309Y0134703D02*
X0165115Y0134703D01*
X0162535Y0136302D02*
X0159224Y0136302D01*
X0160083Y0137901D02*
X0161737Y0137901D01*
X0161600Y0139499D02*
X0160200Y0139499D01*
X0160200Y0141098D02*
X0161600Y0141098D01*
X0161600Y0142696D02*
X0160200Y0142696D01*
X0160200Y0144295D02*
X0161600Y0144295D01*
X0161918Y0145893D02*
X0159852Y0145893D01*
X0158666Y0147492D02*
X0163051Y0147492D01*
X0158400Y0149090D02*
X0218600Y0149090D01*
X0218535Y0150689D02*
X0158465Y0150689D01*
X0160063Y0152287D02*
X0216937Y0152287D01*
X0215338Y0153886D02*
X0161662Y0153886D01*
X0158070Y0157083D02*
X0143930Y0157083D01*
X0145528Y0155484D02*
X0156472Y0155484D01*
X0154873Y0153886D02*
X0147127Y0153886D01*
X0148725Y0152287D02*
X0153679Y0152287D01*
X0153600Y0150689D02*
X0150324Y0150689D01*
X0151922Y0149090D02*
X0153600Y0149090D01*
X0151528Y0142696D02*
X0150200Y0142696D01*
X0150200Y0141098D02*
X0151800Y0141098D01*
X0151800Y0139499D02*
X0150200Y0139499D01*
X0150083Y0137901D02*
X0151917Y0137901D01*
X0152776Y0136302D02*
X0149224Y0136302D01*
X0166000Y0126618D02*
X0166000Y0111618D01*
X0171000Y0106618D01*
X0221000Y0106618D01*
X0228800Y0098818D01*
X0228800Y0090518D01*
X0236000Y0086618D02*
X0236000Y0101618D01*
X0226000Y0111618D01*
X0228703Y0115521D02*
X0180991Y0115521D01*
X0179392Y0117120D02*
X0227104Y0117120D01*
X0220710Y0123514D02*
X0220044Y0123514D01*
X0219112Y0125112D02*
X0218445Y0125112D01*
X0212960Y0118718D02*
X0193540Y0118718D01*
X0187460Y0118718D02*
X0177794Y0118718D01*
X0176195Y0120317D02*
X0186493Y0120317D01*
X0186300Y0121915D02*
X0175700Y0121915D01*
X0176290Y0123514D02*
X0185710Y0123514D01*
X0184112Y0125112D02*
X0177888Y0125112D01*
X0178400Y0126711D02*
X0183600Y0126711D01*
X0183600Y0128309D02*
X0178400Y0128309D01*
X0178400Y0129908D02*
X0183600Y0129908D01*
X0183600Y0131506D02*
X0178400Y0131506D01*
X0178400Y0133105D02*
X0183600Y0133105D01*
X0183600Y0134703D02*
X0178400Y0134703D01*
X0179224Y0136302D02*
X0182776Y0136302D01*
X0181917Y0137901D02*
X0180083Y0137901D01*
X0180200Y0139499D02*
X0181800Y0139499D01*
X0181800Y0141098D02*
X0180200Y0141098D01*
X0180200Y0142696D02*
X0181800Y0142696D01*
X0181800Y0144295D02*
X0180200Y0144295D01*
X0179852Y0145893D02*
X0182148Y0145893D01*
X0183334Y0147492D02*
X0178666Y0147492D01*
X0171800Y0139499D02*
X0170400Y0139499D01*
X0170263Y0137901D02*
X0171917Y0137901D01*
X0172776Y0136302D02*
X0169465Y0136302D01*
X0189224Y0136302D02*
X0192776Y0136302D01*
X0191917Y0137901D02*
X0190083Y0137901D01*
X0190200Y0139499D02*
X0191800Y0139499D01*
X0209224Y0136302D02*
X0212776Y0136302D01*
X0211917Y0137901D02*
X0210083Y0137901D01*
X0210200Y0139499D02*
X0211800Y0139499D01*
X0211800Y0141098D02*
X0210200Y0141098D01*
X0210200Y0142696D02*
X0211800Y0142696D01*
X0211800Y0144295D02*
X0210200Y0144295D01*
X0209852Y0145893D02*
X0212148Y0145893D01*
X0213334Y0147492D02*
X0208666Y0147492D01*
X0218930Y0157083D02*
X0223600Y0157083D01*
X0223600Y0158681D02*
X0217331Y0158681D01*
X0215733Y0160280D02*
X0223600Y0160280D01*
X0223600Y0161878D02*
X0214134Y0161878D01*
X0212536Y0163477D02*
X0223600Y0163477D01*
X0224363Y0165075D02*
X0210937Y0165075D01*
X0209338Y0166674D02*
X0225961Y0166674D01*
X0227560Y0168272D02*
X0207740Y0168272D01*
X0219186Y0176265D02*
X0222814Y0176265D01*
X0221932Y0177863D02*
X0220068Y0177863D01*
X0220200Y0179462D02*
X0221800Y0179462D01*
X0221800Y0181060D02*
X0220200Y0181060D01*
X0220200Y0182659D02*
X0221800Y0182659D01*
X0221800Y0184257D02*
X0220200Y0184257D01*
X0219868Y0185856D02*
X0222132Y0185856D01*
X0223297Y0187454D02*
X0218703Y0187454D01*
X0230200Y0181060D02*
X0234237Y0181060D01*
X0232968Y0179462D02*
X0230200Y0179462D01*
X0230068Y0177863D02*
X0232500Y0177863D01*
X0232500Y0176265D02*
X0229186Y0176265D01*
X0237100Y0174418D02*
X0226000Y0163318D01*
X0226000Y0141618D01*
X0223600Y0149090D02*
X0223400Y0149090D01*
X0223400Y0150689D02*
X0223600Y0150689D01*
X0223600Y0152287D02*
X0223321Y0152287D01*
X0223600Y0153886D02*
X0222127Y0153886D01*
X0223600Y0155484D02*
X0220528Y0155484D01*
X0232750Y0166674D02*
X0254171Y0166674D01*
X0254522Y0166618D02*
X0253776Y0166736D01*
X0253057Y0166970D01*
X0252384Y0167313D01*
X0251773Y0167757D01*
X0251239Y0168291D01*
X0250795Y0168902D01*
X0250452Y0169576D01*
X0250218Y0170294D01*
X0250100Y0171040D01*
X0250100Y0174218D01*
X0254700Y0174218D01*
X0255100Y0174218D01*
X0255100Y0174618D01*
X0254700Y0174618D01*
X0254700Y0174218D01*
X0254700Y0166618D01*
X0254522Y0166618D01*
X0254700Y0166674D02*
X0255100Y0166674D01*
X0255100Y0168272D02*
X0254700Y0168272D01*
X0254700Y0169871D02*
X0255100Y0169871D01*
X0255100Y0171469D02*
X0254700Y0171469D01*
X0254700Y0173068D02*
X0255100Y0173068D01*
X0255100Y0174666D02*
X0254700Y0174666D01*
X0254700Y0174618D02*
X0254700Y0182218D01*
X0254522Y0182218D01*
X0253776Y0182100D01*
X0253057Y0181866D01*
X0252384Y0181523D01*
X0251773Y0181079D01*
X0251239Y0180545D01*
X0250795Y0179934D01*
X0250452Y0179261D01*
X0250218Y0178542D01*
X0250100Y0177796D01*
X0250100Y0174618D01*
X0254700Y0174618D01*
X0254700Y0176265D02*
X0255100Y0176265D01*
X0255100Y0177863D02*
X0254700Y0177863D01*
X0254700Y0179462D02*
X0255100Y0179462D01*
X0255100Y0181060D02*
X0254700Y0181060D01*
X0251754Y0181060D02*
X0239963Y0181060D01*
X0241232Y0179462D02*
X0250554Y0179462D01*
X0250111Y0177863D02*
X0241700Y0177863D01*
X0241700Y0176265D02*
X0250100Y0176265D01*
X0250100Y0174666D02*
X0241700Y0174666D01*
X0241700Y0173068D02*
X0250100Y0173068D01*
X0250100Y0171469D02*
X0241700Y0171469D01*
X0241438Y0169871D02*
X0250356Y0169871D01*
X0251258Y0168272D02*
X0240459Y0168272D01*
X0211179Y0209834D02*
X0269901Y0209834D01*
X0269901Y0211432D02*
X0209580Y0211432D01*
X0207982Y0213031D02*
X0269901Y0213031D01*
X0269901Y0214629D02*
X0006000Y0214629D01*
X0006000Y0213031D02*
X0069018Y0213031D01*
X0067420Y0211432D02*
X0006000Y0211432D01*
X0006000Y0209834D02*
X0065821Y0209834D01*
X0064223Y0208235D02*
X0006000Y0208235D01*
X0006000Y0206636D02*
X0062624Y0206636D01*
X0061026Y0205038D02*
X0006000Y0205038D01*
X0006000Y0203439D02*
X0059427Y0203439D01*
X0057829Y0201841D02*
X0006000Y0201841D01*
X0006000Y0200242D02*
X0056230Y0200242D01*
X0054632Y0198644D02*
X0006000Y0198644D01*
X0006000Y0197045D02*
X0053600Y0197045D01*
X0053600Y0195447D02*
X0028111Y0195447D01*
X0027740Y0195818D02*
X0024260Y0195818D01*
X0021800Y0193358D01*
X0021800Y0189878D01*
X0023600Y0188078D01*
X0023600Y0160158D01*
X0021800Y0158358D01*
X0021800Y0154878D01*
X0024260Y0152418D01*
X0027740Y0152418D01*
X0030200Y0154878D01*
X0030200Y0158358D01*
X0028400Y0160158D01*
X0028400Y0188078D01*
X0030200Y0189878D01*
X0030200Y0193358D01*
X0027740Y0195818D01*
X0029709Y0193848D02*
X0053600Y0193848D01*
X0053600Y0192250D02*
X0030200Y0192250D01*
X0030200Y0190651D02*
X0053600Y0190651D01*
X0053600Y0189053D02*
X0029374Y0189053D01*
X0028400Y0187454D02*
X0053600Y0187454D01*
X0053600Y0185856D02*
X0028400Y0185856D01*
X0028400Y0184257D02*
X0053600Y0184257D01*
X0053600Y0182659D02*
X0028400Y0182659D01*
X0028400Y0181060D02*
X0053600Y0181060D01*
X0053600Y0179462D02*
X0028400Y0179462D01*
X0028400Y0177863D02*
X0053600Y0177863D01*
X0053600Y0176265D02*
X0049759Y0176265D01*
X0049706Y0176318D02*
X0048015Y0177018D01*
X0046185Y0177018D01*
X0044494Y0176318D01*
X0043200Y0175024D01*
X0042500Y0173333D01*
X0042500Y0165503D01*
X0043200Y0163812D01*
X0044494Y0162518D01*
X0046185Y0161818D01*
X0048015Y0161818D01*
X0049706Y0162518D01*
X0051000Y0163812D01*
X0051700Y0165503D01*
X0051700Y0173333D01*
X0051000Y0175024D01*
X0049706Y0176318D01*
X0051148Y0174666D02*
X0053600Y0174666D01*
X0053600Y0173068D02*
X0051700Y0173068D01*
X0051700Y0171469D02*
X0053600Y0171469D01*
X0053600Y0169871D02*
X0051700Y0169871D01*
X0051700Y0168272D02*
X0053600Y0168272D01*
X0053600Y0166674D02*
X0051700Y0166674D01*
X0051523Y0165075D02*
X0053600Y0165075D01*
X0053600Y0163477D02*
X0050664Y0163477D01*
X0048160Y0161878D02*
X0053600Y0161878D01*
X0053600Y0160280D02*
X0028400Y0160280D01*
X0028400Y0161878D02*
X0046040Y0161878D01*
X0043536Y0163477D02*
X0028400Y0163477D01*
X0028400Y0165075D02*
X0042677Y0165075D01*
X0042500Y0166674D02*
X0028400Y0166674D01*
X0028400Y0168272D02*
X0042500Y0168272D01*
X0042500Y0169871D02*
X0028400Y0169871D01*
X0028400Y0171469D02*
X0042500Y0171469D01*
X0042500Y0173068D02*
X0028400Y0173068D01*
X0028400Y0174666D02*
X0043052Y0174666D01*
X0044441Y0176265D02*
X0028400Y0176265D01*
X0023600Y0176265D02*
X0006000Y0176265D01*
X0006000Y0177863D02*
X0023600Y0177863D01*
X0023600Y0179462D02*
X0006000Y0179462D01*
X0006000Y0181060D02*
X0023600Y0181060D01*
X0023600Y0182659D02*
X0006000Y0182659D01*
X0006000Y0184257D02*
X0023600Y0184257D01*
X0023600Y0185856D02*
X0006000Y0185856D01*
X0006000Y0187454D02*
X0023600Y0187454D01*
X0022626Y0189053D02*
X0006000Y0189053D01*
X0006000Y0190651D02*
X0021800Y0190651D01*
X0021800Y0192250D02*
X0006000Y0192250D01*
X0006000Y0193848D02*
X0022291Y0193848D01*
X0023889Y0195447D02*
X0006000Y0195447D01*
X0026000Y0191618D02*
X0026000Y0156618D01*
X0029207Y0153886D02*
X0053600Y0153886D01*
X0053600Y0155484D02*
X0030200Y0155484D01*
X0030200Y0157083D02*
X0053600Y0157083D01*
X0053600Y0158681D02*
X0029877Y0158681D01*
X0023600Y0160280D02*
X0006000Y0160280D01*
X0006000Y0161878D02*
X0023600Y0161878D01*
X0023600Y0163477D02*
X0006000Y0163477D01*
X0006000Y0165075D02*
X0023600Y0165075D01*
X0023600Y0166674D02*
X0006000Y0166674D01*
X0006000Y0168272D02*
X0023600Y0168272D01*
X0023600Y0169871D02*
X0006000Y0169871D01*
X0006000Y0171469D02*
X0023600Y0171469D01*
X0023600Y0173068D02*
X0006000Y0173068D01*
X0006000Y0174666D02*
X0023600Y0174666D01*
X0022123Y0158681D02*
X0006000Y0158681D01*
X0006000Y0157083D02*
X0021800Y0157083D01*
X0021800Y0155484D02*
X0006000Y0155484D01*
X0006000Y0153886D02*
X0022793Y0153886D01*
X0024131Y0150689D02*
X0006000Y0150689D01*
X0006000Y0152287D02*
X0053600Y0152287D01*
X0044261Y0150689D02*
X0027869Y0150689D01*
X0029468Y0149090D02*
X0042870Y0149090D01*
X0042347Y0147492D02*
X0030200Y0147492D01*
X0030200Y0145893D02*
X0042300Y0145893D01*
X0042300Y0144295D02*
X0031718Y0144295D01*
X0033151Y0142696D02*
X0042300Y0142696D01*
X0042300Y0141098D02*
X0033400Y0141098D01*
X0033400Y0139499D02*
X0042482Y0139499D01*
X0043287Y0137901D02*
X0033400Y0137901D01*
X0031000Y0141618D02*
X0031000Y0131618D01*
X0028600Y0136302D02*
X0006000Y0136302D01*
X0006000Y0137901D02*
X0028600Y0137901D01*
X0028600Y0139499D02*
X0006000Y0139499D01*
X0006000Y0141098D02*
X0028126Y0141098D01*
X0031000Y0141618D02*
X0026000Y0146618D01*
X0022532Y0149090D02*
X0006000Y0149090D01*
X0006000Y0147492D02*
X0021800Y0147492D01*
X0021800Y0145893D02*
X0006000Y0145893D01*
X0006000Y0144295D02*
X0022384Y0144295D01*
X0023982Y0142696D02*
X0006000Y0142696D01*
X0006000Y0134703D02*
X0025546Y0134703D01*
X0024470Y0133105D02*
X0006000Y0133105D01*
X0006000Y0131506D02*
X0024200Y0131506D01*
X0024562Y0129908D02*
X0006000Y0129908D01*
X0006000Y0128309D02*
X0025769Y0128309D01*
X0025955Y0125112D02*
X0006000Y0125112D01*
X0006000Y0123514D02*
X0024502Y0123514D01*
X0022903Y0121915D02*
X0006000Y0121915D01*
X0006000Y0120317D02*
X0021305Y0120317D01*
X0019706Y0118718D02*
X0006000Y0118718D01*
X0006000Y0117120D02*
X0018108Y0117120D01*
X0016509Y0115521D02*
X0006000Y0115521D01*
X0006000Y0113923D02*
X0014911Y0113923D01*
X0013695Y0112324D02*
X0006000Y0112324D01*
X0006000Y0110726D02*
X0013600Y0110726D01*
X0013600Y0109127D02*
X0006000Y0109127D01*
X0006000Y0107529D02*
X0013600Y0107529D01*
X0013600Y0105930D02*
X0006000Y0105930D01*
X0006000Y0104332D02*
X0013600Y0104332D01*
X0013600Y0102733D02*
X0006000Y0102733D01*
X0006000Y0101135D02*
X0013600Y0101135D01*
X0013600Y0099536D02*
X0006000Y0099536D01*
X0006000Y0097938D02*
X0013600Y0097938D01*
X0013600Y0096339D02*
X0006000Y0096339D01*
X0006000Y0094741D02*
X0013600Y0094741D01*
X0013600Y0093142D02*
X0006000Y0093142D01*
X0006000Y0091544D02*
X0013600Y0091544D01*
X0013600Y0089945D02*
X0006000Y0089945D01*
X0006000Y0088347D02*
X0013600Y0088347D01*
X0013600Y0086748D02*
X0006000Y0086748D01*
X0006000Y0085150D02*
X0013600Y0085150D01*
X0013600Y0083551D02*
X0006000Y0083551D01*
X0006000Y0081953D02*
X0013600Y0081953D01*
X0013600Y0080354D02*
X0006000Y0080354D01*
X0006000Y0078756D02*
X0013600Y0078756D01*
X0013600Y0077157D02*
X0006000Y0077157D01*
X0006000Y0075559D02*
X0013600Y0075559D01*
X0013600Y0073960D02*
X0006000Y0073960D01*
X0006000Y0072362D02*
X0013600Y0072362D01*
X0013600Y0070763D02*
X0006000Y0070763D01*
X0006000Y0069165D02*
X0013600Y0069165D01*
X0013600Y0067566D02*
X0006000Y0067566D01*
X0006000Y0065967D02*
X0013600Y0065967D01*
X0013600Y0064369D02*
X0006000Y0064369D01*
X0006000Y0062770D02*
X0013600Y0062770D01*
X0013600Y0061172D02*
X0006000Y0061172D01*
X0006000Y0059573D02*
X0013600Y0059573D01*
X0013600Y0057975D02*
X0006000Y0057975D01*
X0006000Y0056376D02*
X0013600Y0056376D01*
X0013600Y0054778D02*
X0006000Y0054778D01*
X0006000Y0053179D02*
X0013600Y0053179D01*
X0013600Y0051581D02*
X0006000Y0051581D01*
X0006000Y0049982D02*
X0014242Y0049982D01*
X0015840Y0048384D02*
X0006000Y0048384D01*
X0006000Y0046785D02*
X0017439Y0046785D01*
X0019037Y0045187D02*
X0006000Y0045187D01*
X0006000Y0043588D02*
X0020636Y0043588D01*
X0022234Y0041990D02*
X0006000Y0041990D01*
X0006000Y0040391D02*
X0023833Y0040391D01*
X0025825Y0045187D02*
X0094280Y0045187D01*
X0091499Y0046785D02*
X0024227Y0046785D01*
X0022628Y0048384D02*
X0090196Y0048384D01*
X0089534Y0049982D02*
X0021030Y0049982D01*
X0019431Y0051581D02*
X0089400Y0051581D01*
X0089503Y0053179D02*
X0018400Y0053179D01*
X0018400Y0054778D02*
X0090165Y0054778D01*
X0091425Y0056376D02*
X0018400Y0056376D01*
X0018400Y0057975D02*
X0028703Y0057975D01*
X0029260Y0057418D02*
X0032740Y0057418D01*
X0034540Y0059218D01*
X0057460Y0059218D01*
X0059260Y0057418D01*
X0062740Y0057418D01*
X0065200Y0059878D01*
X0065200Y0063358D01*
X0062740Y0065818D01*
X0059260Y0065818D01*
X0057460Y0064018D01*
X0034540Y0064018D01*
X0032740Y0065818D01*
X0029260Y0065818D01*
X0026800Y0063358D01*
X0026800Y0059878D01*
X0029260Y0057418D01*
X0027105Y0059573D02*
X0018400Y0059573D01*
X0018400Y0061172D02*
X0026800Y0061172D01*
X0026800Y0062770D02*
X0018400Y0062770D01*
X0018400Y0064369D02*
X0027811Y0064369D01*
X0029260Y0067418D02*
X0032740Y0067418D01*
X0035200Y0069878D01*
X0035200Y0073358D01*
X0033400Y0075158D01*
X0033400Y0077418D01*
X0034435Y0077418D01*
X0035979Y0078058D01*
X0037161Y0079239D01*
X0037800Y0080783D01*
X0037800Y0081424D01*
X0039641Y0079583D01*
X0040523Y0079218D01*
X0042460Y0079218D01*
X0044260Y0077418D01*
X0047740Y0077418D01*
X0050200Y0079878D01*
X0050200Y0083358D01*
X0047740Y0085818D01*
X0044260Y0085818D01*
X0042460Y0084018D01*
X0041994Y0084018D01*
X0036967Y0089045D01*
X0037161Y0089239D01*
X0037800Y0090783D01*
X0037800Y0092454D01*
X0037161Y0093997D01*
X0035979Y0095179D01*
X0034435Y0095818D01*
X0027565Y0095818D01*
X0026021Y0095179D01*
X0024839Y0093997D01*
X0024200Y0092454D01*
X0024200Y0090783D01*
X0024839Y0089239D01*
X0026021Y0088058D01*
X0027565Y0087418D01*
X0031806Y0087418D01*
X0033406Y0085818D01*
X0027565Y0085818D01*
X0026021Y0085179D01*
X0024839Y0083997D01*
X0024200Y0082454D01*
X0024200Y0080783D01*
X0024839Y0079239D01*
X0026021Y0078058D01*
X0027565Y0077418D01*
X0028600Y0077418D01*
X0028600Y0075158D01*
X0026800Y0073358D01*
X0026800Y0069878D01*
X0029260Y0067418D01*
X0029112Y0067566D02*
X0018400Y0067566D01*
X0018400Y0065967D02*
X0134820Y0065967D01*
X0134820Y0064369D02*
X0114189Y0064369D01*
X0115200Y0062770D02*
X0134820Y0062770D01*
X0134820Y0061172D02*
X0115200Y0061172D01*
X0116439Y0059573D02*
X0134820Y0059573D01*
X0133716Y0057975D02*
X0118037Y0057975D01*
X0119636Y0056376D02*
X0132887Y0056376D01*
X0132750Y0054778D02*
X0121234Y0054778D01*
X0120331Y0052287D02*
X0111000Y0061618D01*
X0096000Y0051618D01*
X0100501Y0046785D02*
X0117178Y0046785D01*
X0116516Y0045187D02*
X0097720Y0045187D01*
X0101804Y0048384D02*
X0118708Y0048384D01*
X0119624Y0049982D02*
X0102466Y0049982D01*
X0102600Y0051581D02*
X0117643Y0051581D01*
X0116045Y0053179D02*
X0102669Y0053179D01*
X0105066Y0054778D02*
X0114446Y0054778D01*
X0112848Y0056376D02*
X0107464Y0056376D01*
X0103606Y0059573D02*
X0064895Y0059573D01*
X0065200Y0061172D02*
X0106004Y0061172D01*
X0106800Y0062770D02*
X0065200Y0062770D01*
X0064189Y0064369D02*
X0107811Y0064369D01*
X0108600Y0067918D02*
X0105422Y0067918D01*
X0104676Y0068036D01*
X0103957Y0068270D01*
X0103284Y0068613D01*
X0102673Y0069057D01*
X0102139Y0069591D01*
X0101695Y0070202D01*
X0101352Y0070876D01*
X0101118Y0071594D01*
X0101000Y0072340D01*
X0101000Y0072518D01*
X0108600Y0072518D01*
X0109000Y0072518D01*
X0109000Y0067918D01*
X0112178Y0067918D01*
X0112924Y0068036D01*
X0113643Y0068270D01*
X0114316Y0068613D01*
X0114927Y0069057D01*
X0115461Y0069591D01*
X0115905Y0070202D01*
X0116103Y0070590D01*
X0116300Y0070112D01*
X0117594Y0068818D01*
X0119285Y0068118D01*
X0127115Y0068118D01*
X0128806Y0068818D01*
X0130100Y0070112D01*
X0130800Y0071803D01*
X0130800Y0073633D01*
X0130100Y0075324D01*
X0128806Y0076618D01*
X0127115Y0077318D01*
X0119285Y0077318D01*
X0117594Y0076618D01*
X0116300Y0075324D01*
X0116103Y0074847D01*
X0115905Y0075234D01*
X0115461Y0075845D01*
X0114927Y0076379D01*
X0114316Y0076823D01*
X0113643Y0077166D01*
X0112924Y0077400D01*
X0112178Y0077518D01*
X0109000Y0077518D01*
X0109000Y0072918D01*
X0108600Y0072918D01*
X0108600Y0072518D01*
X0108600Y0067918D01*
X0108600Y0069165D02*
X0109000Y0069165D01*
X0109000Y0070763D02*
X0108600Y0070763D01*
X0108600Y0072362D02*
X0109000Y0072362D01*
X0108600Y0072918D02*
X0101000Y0072918D01*
X0101000Y0073096D01*
X0101118Y0073842D01*
X0101352Y0074561D01*
X0101695Y0075234D01*
X0102139Y0075845D01*
X0102673Y0076379D01*
X0103284Y0076823D01*
X0103957Y0077166D01*
X0104676Y0077400D01*
X0105422Y0077518D01*
X0108600Y0077518D01*
X0108600Y0072918D01*
X0108600Y0073960D02*
X0109000Y0073960D01*
X0109000Y0075559D02*
X0108600Y0075559D01*
X0108600Y0077157D02*
X0109000Y0077157D01*
X0113661Y0077157D02*
X0118896Y0077157D01*
X0116535Y0075559D02*
X0115669Y0075559D01*
X0115035Y0069165D02*
X0117248Y0069165D01*
X0129152Y0069165D02*
X0134820Y0069165D01*
X0134820Y0070763D02*
X0130369Y0070763D01*
X0130800Y0072362D02*
X0134820Y0072362D01*
X0134820Y0073960D02*
X0130665Y0073960D01*
X0129865Y0075559D02*
X0134820Y0075559D01*
X0134820Y0077157D02*
X0127504Y0077157D01*
X0134820Y0078756D02*
X0049077Y0078756D01*
X0050200Y0080354D02*
X0134820Y0080354D01*
X0134820Y0081953D02*
X0050200Y0081953D01*
X0050007Y0083551D02*
X0134820Y0083551D01*
X0134820Y0085150D02*
X0048408Y0085150D01*
X0046000Y0081618D02*
X0041000Y0081618D01*
X0031000Y0091618D01*
X0032476Y0086748D02*
X0018400Y0086748D01*
X0018400Y0085150D02*
X0025992Y0085150D01*
X0024655Y0083551D02*
X0018400Y0083551D01*
X0018400Y0081953D02*
X0024200Y0081953D01*
X0024378Y0080354D02*
X0018400Y0080354D01*
X0018400Y0078756D02*
X0025323Y0078756D01*
X0028600Y0077157D02*
X0018400Y0077157D01*
X0018400Y0075559D02*
X0028600Y0075559D01*
X0027402Y0073960D02*
X0018400Y0073960D01*
X0018400Y0072362D02*
X0026800Y0072362D01*
X0026800Y0070763D02*
X0018400Y0070763D01*
X0018400Y0069165D02*
X0027514Y0069165D01*
X0031000Y0071618D02*
X0031000Y0081618D01*
X0033400Y0077157D02*
X0078896Y0077157D01*
X0079285Y0077318D02*
X0077594Y0076618D01*
X0076300Y0075324D01*
X0075600Y0073633D01*
X0075600Y0071803D01*
X0076300Y0070112D01*
X0077594Y0068818D01*
X0079285Y0068118D01*
X0087115Y0068118D01*
X0088806Y0068818D01*
X0090100Y0070112D01*
X0090800Y0071803D01*
X0090800Y0073633D01*
X0090100Y0075324D01*
X0088806Y0076618D01*
X0087115Y0077318D01*
X0079285Y0077318D01*
X0076535Y0075559D02*
X0033400Y0075559D01*
X0034598Y0073960D02*
X0075735Y0073960D01*
X0075600Y0072362D02*
X0035200Y0072362D01*
X0035200Y0070763D02*
X0076031Y0070763D01*
X0077248Y0069165D02*
X0034486Y0069165D01*
X0032888Y0067566D02*
X0134820Y0067566D01*
X0139620Y0069165D02*
X0142565Y0069165D01*
X0141409Y0070763D02*
X0139620Y0070763D01*
X0139620Y0072362D02*
X0141000Y0072362D01*
X0141157Y0073960D02*
X0139620Y0073960D01*
X0139620Y0075559D02*
X0141931Y0075559D01*
X0143939Y0077157D02*
X0139620Y0077157D01*
X0134820Y0086748D02*
X0128935Y0086748D01*
X0130280Y0088347D02*
X0134820Y0088347D01*
X0134820Y0089945D02*
X0130800Y0089945D01*
X0130754Y0091544D02*
X0134820Y0091544D01*
X0134820Y0093142D02*
X0130081Y0093142D01*
X0128026Y0094741D02*
X0134820Y0094741D01*
X0134820Y0096339D02*
X0108400Y0096339D01*
X0108400Y0097938D02*
X0134820Y0097938D01*
X0134820Y0099536D02*
X0108400Y0099536D01*
X0108400Y0101135D02*
X0134820Y0101135D01*
X0134820Y0102733D02*
X0108400Y0102733D01*
X0108400Y0104332D02*
X0134820Y0104332D01*
X0133294Y0105930D02*
X0108400Y0105930D01*
X0108400Y0107529D02*
X0131695Y0107529D01*
X0130097Y0109127D02*
X0108400Y0109127D01*
X0108400Y0110726D02*
X0128498Y0110726D01*
X0126900Y0112324D02*
X0108400Y0112324D01*
X0108400Y0113923D02*
X0125301Y0113923D01*
X0123703Y0115521D02*
X0108400Y0115521D01*
X0108400Y0117120D02*
X0122104Y0117120D01*
X0120506Y0118718D02*
X0108400Y0118718D01*
X0108400Y0120317D02*
X0118907Y0120317D01*
X0117309Y0121915D02*
X0108400Y0121915D01*
X0108400Y0123514D02*
X0115710Y0123514D01*
X0114112Y0125112D02*
X0108400Y0125112D01*
X0103600Y0126711D02*
X0006000Y0126711D01*
X0031000Y0115521D02*
X0031000Y0115521D01*
X0031000Y0113923D02*
X0031000Y0113923D01*
X0031000Y0112324D02*
X0031000Y0112324D01*
X0031000Y0111618D02*
X0031000Y0111618D01*
X0031000Y0110726D02*
X0031000Y0110726D01*
X0031000Y0109127D02*
X0031000Y0109127D01*
X0031000Y0107529D02*
X0031000Y0107529D01*
X0031000Y0105930D02*
X0031000Y0105930D01*
X0031000Y0104332D02*
X0031000Y0104332D01*
X0031000Y0102733D02*
X0031000Y0102733D01*
X0031000Y0101618D02*
X0031000Y0101618D01*
X0031000Y0101135D02*
X0031000Y0101135D01*
X0031000Y0099536D02*
X0031000Y0099536D01*
X0031000Y0097938D02*
X0031000Y0097938D01*
X0036020Y0097938D02*
X0103600Y0097938D01*
X0103600Y0099536D02*
X0037477Y0099536D01*
X0037978Y0101135D02*
X0103600Y0101135D01*
X0103600Y0102733D02*
X0037864Y0102733D01*
X0037067Y0104332D02*
X0103600Y0104332D01*
X0103600Y0105930D02*
X0034501Y0105930D01*
X0035253Y0107529D02*
X0103600Y0107529D01*
X0103600Y0109127D02*
X0037229Y0109127D01*
X0037914Y0110726D02*
X0103600Y0110726D01*
X0103600Y0112324D02*
X0037943Y0112324D01*
X0037364Y0113923D02*
X0103600Y0113923D01*
X0103600Y0115521D02*
X0035631Y0115521D01*
X0048631Y0128309D02*
X0103600Y0128309D01*
X0113626Y0094741D02*
X0118374Y0094741D01*
X0116319Y0093142D02*
X0115681Y0093142D01*
X0115880Y0088347D02*
X0116120Y0088347D01*
X0117465Y0086748D02*
X0114535Y0086748D01*
X0103939Y0077157D02*
X0087504Y0077157D01*
X0089865Y0075559D02*
X0101931Y0075559D01*
X0101157Y0073960D02*
X0090665Y0073960D01*
X0090800Y0072362D02*
X0101000Y0072362D01*
X0101409Y0070763D02*
X0090369Y0070763D01*
X0089152Y0069165D02*
X0102565Y0069165D01*
X0101209Y0057975D02*
X0097900Y0057975D01*
X0094100Y0057975D02*
X0063297Y0057975D01*
X0058703Y0057975D02*
X0033297Y0057975D01*
X0031000Y0061618D02*
X0061000Y0061618D01*
X0057811Y0064369D02*
X0034189Y0064369D01*
X0036677Y0078756D02*
X0042923Y0078756D01*
X0038870Y0080354D02*
X0037622Y0080354D01*
X0040863Y0085150D02*
X0043592Y0085150D01*
X0039264Y0086748D02*
X0077465Y0086748D01*
X0076120Y0088347D02*
X0037666Y0088347D01*
X0037453Y0089945D02*
X0075600Y0089945D01*
X0075646Y0091544D02*
X0037800Y0091544D01*
X0037515Y0093142D02*
X0076319Y0093142D01*
X0078374Y0094741D02*
X0036417Y0094741D01*
X0025583Y0094741D02*
X0018400Y0094741D01*
X0018400Y0093142D02*
X0024485Y0093142D01*
X0024200Y0091544D02*
X0018400Y0091544D01*
X0018400Y0089945D02*
X0024547Y0089945D01*
X0025732Y0088347D02*
X0018400Y0088347D01*
X0006000Y0038793D02*
X0116208Y0038793D01*
X0116870Y0037194D02*
X0100040Y0037194D01*
X0101639Y0035596D02*
X0117965Y0035596D01*
X0119564Y0033997D02*
X0102800Y0033997D01*
X0102800Y0032399D02*
X0123017Y0032399D01*
X0138688Y0045187D02*
X0145595Y0045187D01*
X0143373Y0046785D02*
X0140910Y0046785D01*
X0141631Y0048384D02*
X0142653Y0048384D01*
X0142593Y0049982D02*
X0141691Y0049982D01*
X0141691Y0051581D02*
X0142593Y0051581D01*
X0142593Y0053179D02*
X0141691Y0053179D01*
X0141691Y0054778D02*
X0142593Y0054778D01*
X0142730Y0056376D02*
X0141554Y0056376D01*
X0140725Y0057975D02*
X0143559Y0057975D01*
X0150567Y0057975D02*
X0151433Y0057975D01*
X0158441Y0057975D02*
X0161054Y0057975D01*
X0160265Y0056376D02*
X0159270Y0056376D01*
X0159407Y0054778D02*
X0160109Y0054778D01*
X0160109Y0053179D02*
X0159407Y0053179D01*
X0159407Y0051581D02*
X0160109Y0051581D01*
X0160109Y0049982D02*
X0159407Y0049982D01*
X0159347Y0048384D02*
X0160215Y0048384D01*
X0160919Y0046785D02*
X0158627Y0046785D01*
X0156405Y0045187D02*
X0162796Y0045187D01*
X0153469Y0045187D02*
X0148531Y0045187D01*
X0150753Y0046785D02*
X0151247Y0046785D01*
X0137220Y0052287D02*
X0120331Y0052287D01*
X0168935Y0086748D02*
X0183065Y0086748D01*
X0188800Y0090518D02*
X0177100Y0090518D01*
X0181000Y0096618D02*
X0211000Y0096618D01*
X0226000Y0081618D01*
X0231000Y0081618D01*
X0236000Y0086618D01*
X0217476Y0086748D02*
X0208935Y0086748D01*
X0210280Y0088347D02*
X0215877Y0088347D01*
X0214279Y0089945D02*
X0210800Y0089945D01*
X0210754Y0091544D02*
X0212680Y0091544D01*
X0211082Y0093142D02*
X0210081Y0093142D01*
X0197465Y0086748D02*
X0194535Y0086748D01*
X0195880Y0088347D02*
X0196120Y0088347D01*
X0193661Y0077157D02*
X0198896Y0077157D01*
X0196535Y0075559D02*
X0195669Y0075559D01*
X0189000Y0075559D02*
X0188600Y0075559D01*
X0188600Y0077157D02*
X0189000Y0077157D01*
X0189000Y0073960D02*
X0188600Y0073960D01*
X0188600Y0072362D02*
X0189000Y0072362D01*
X0189000Y0070763D02*
X0188600Y0070763D01*
X0188600Y0069165D02*
X0189000Y0069165D01*
X0195035Y0069165D02*
X0197248Y0069165D01*
X0181000Y0096618D02*
X0176000Y0101618D01*
X0159709Y0158681D02*
X0142291Y0158681D01*
X0145165Y0174818D02*
X0146835Y0174818D01*
X0148379Y0175458D01*
X0149561Y0176639D01*
X0150200Y0178183D01*
X0150200Y0185054D01*
X0149561Y0186597D01*
X0148379Y0187779D01*
X0146835Y0188418D01*
X0145165Y0188418D01*
X0143621Y0187779D01*
X0142439Y0186597D01*
X0141800Y0185054D01*
X0141800Y0178183D01*
X0142439Y0176639D01*
X0143621Y0175458D01*
X0145165Y0174818D01*
X0142814Y0176265D02*
X0139186Y0176265D01*
X0140068Y0177863D02*
X0141932Y0177863D01*
X0141800Y0179462D02*
X0140200Y0179462D01*
X0140200Y0181060D02*
X0141800Y0181060D01*
X0141800Y0182659D02*
X0140200Y0182659D01*
X0140200Y0184257D02*
X0141800Y0184257D01*
X0142132Y0185856D02*
X0139868Y0185856D01*
X0138703Y0187454D02*
X0143297Y0187454D01*
X0148703Y0187454D02*
X0153297Y0187454D01*
X0153621Y0187779D02*
X0152439Y0186597D01*
X0151800Y0185054D01*
X0151800Y0178183D01*
X0152439Y0176639D01*
X0153621Y0175458D01*
X0155165Y0174818D01*
X0156835Y0174818D01*
X0158379Y0175458D01*
X0159561Y0176639D01*
X0160200Y0178183D01*
X0160200Y0185054D01*
X0159561Y0186597D01*
X0158379Y0187779D01*
X0156835Y0188418D01*
X0155165Y0188418D01*
X0153621Y0187779D01*
X0152132Y0185856D02*
X0149868Y0185856D01*
X0150200Y0184257D02*
X0151800Y0184257D01*
X0151800Y0182659D02*
X0150200Y0182659D01*
X0150200Y0181060D02*
X0151800Y0181060D01*
X0151800Y0179462D02*
X0150200Y0179462D01*
X0150068Y0177863D02*
X0151932Y0177863D01*
X0152814Y0176265D02*
X0149186Y0176265D01*
X0159186Y0176265D02*
X0162814Y0176265D01*
X0161932Y0177863D02*
X0160068Y0177863D01*
X0160200Y0179462D02*
X0161800Y0179462D01*
X0161800Y0181060D02*
X0160200Y0181060D01*
X0160200Y0182659D02*
X0161800Y0182659D01*
X0161800Y0184257D02*
X0160200Y0184257D01*
X0159868Y0185856D02*
X0162132Y0185856D01*
X0163297Y0187454D02*
X0158703Y0187454D01*
X0152100Y0196618D02*
X0158200Y0202718D01*
X0163384Y0198644D02*
X0178616Y0198644D01*
X0176846Y0200242D02*
X0165154Y0200242D01*
X0165800Y0201841D02*
X0176200Y0201841D01*
X0176200Y0203439D02*
X0165800Y0203439D01*
X0165218Y0205038D02*
X0176782Y0205038D01*
X0178239Y0206636D02*
X0163761Y0206636D01*
X0162324Y0215836D02*
X0163043Y0216070D01*
X0163716Y0216413D01*
X0164327Y0216857D01*
X0164861Y0217391D01*
X0165305Y0218002D01*
X0165648Y0218676D01*
X0165882Y0219394D01*
X0166000Y0220140D01*
X0166000Y0220318D01*
X0158400Y0220318D01*
X0158400Y0215718D01*
X0161578Y0215718D01*
X0162324Y0215836D01*
X0163352Y0216228D02*
X0179138Y0216228D01*
X0179885Y0215918D02*
X0178194Y0216618D01*
X0176900Y0217912D01*
X0176200Y0219603D01*
X0176200Y0221433D01*
X0176900Y0223124D01*
X0178194Y0224418D01*
X0179885Y0225118D01*
X0187715Y0225118D01*
X0189406Y0224418D01*
X0190700Y0223124D01*
X0190897Y0222647D01*
X0191095Y0223034D01*
X0191539Y0223645D01*
X0192073Y0224179D01*
X0192684Y0224623D01*
X0193357Y0224966D01*
X0194076Y0225200D01*
X0194822Y0225318D01*
X0198000Y0225318D01*
X0198000Y0220718D01*
X0198400Y0220718D01*
X0206000Y0220718D01*
X0206000Y0220896D01*
X0205882Y0221642D01*
X0205648Y0222361D01*
X0205305Y0223034D01*
X0204861Y0223645D01*
X0204327Y0224179D01*
X0203716Y0224623D01*
X0203043Y0224966D01*
X0202324Y0225200D01*
X0201578Y0225318D01*
X0198400Y0225318D01*
X0198400Y0220718D01*
X0198400Y0220318D01*
X0198400Y0215718D01*
X0201578Y0215718D01*
X0202324Y0215836D01*
X0203043Y0216070D01*
X0203716Y0216413D01*
X0204327Y0216857D01*
X0204861Y0217391D01*
X0205305Y0218002D01*
X0205648Y0218676D01*
X0205882Y0219394D01*
X0206000Y0220140D01*
X0206000Y0220318D01*
X0198400Y0220318D01*
X0198000Y0220318D01*
X0198000Y0215718D01*
X0194822Y0215718D01*
X0194076Y0215836D01*
X0193357Y0216070D01*
X0192684Y0216413D01*
X0192073Y0216857D01*
X0191539Y0217391D01*
X0191095Y0218002D01*
X0190897Y0218390D01*
X0190700Y0217912D01*
X0189406Y0216618D01*
X0187715Y0215918D01*
X0179885Y0215918D01*
X0176987Y0217826D02*
X0165177Y0217826D01*
X0165887Y0219425D02*
X0176274Y0219425D01*
X0176200Y0221023D02*
X0165980Y0221023D01*
X0166000Y0220896D02*
X0165882Y0221642D01*
X0165648Y0222361D01*
X0165305Y0223034D01*
X0164861Y0223645D01*
X0164327Y0224179D01*
X0163716Y0224623D01*
X0163043Y0224966D01*
X0162324Y0225200D01*
X0161578Y0225318D01*
X0158400Y0225318D01*
X0158400Y0220718D01*
X0166000Y0220718D01*
X0166000Y0220896D01*
X0165515Y0222622D02*
X0176692Y0222622D01*
X0177997Y0224220D02*
X0164271Y0224220D01*
X0158400Y0224220D02*
X0158000Y0224220D01*
X0158000Y0225318D02*
X0154822Y0225318D01*
X0154076Y0225200D01*
X0153357Y0224966D01*
X0152684Y0224623D01*
X0152073Y0224179D01*
X0151539Y0223645D01*
X0151095Y0223034D01*
X0150897Y0222647D01*
X0150700Y0223124D01*
X0149406Y0224418D01*
X0147715Y0225118D01*
X0139885Y0225118D01*
X0138194Y0224418D01*
X0136900Y0223124D01*
X0136200Y0221433D01*
X0136200Y0219603D01*
X0136900Y0217912D01*
X0138194Y0216618D01*
X0139885Y0215918D01*
X0147715Y0215918D01*
X0149406Y0216618D01*
X0150700Y0217912D01*
X0150897Y0218390D01*
X0151095Y0218002D01*
X0151539Y0217391D01*
X0152073Y0216857D01*
X0152684Y0216413D01*
X0153357Y0216070D01*
X0154076Y0215836D01*
X0154822Y0215718D01*
X0158000Y0215718D01*
X0158000Y0220318D01*
X0158400Y0220318D01*
X0158400Y0220718D01*
X0158000Y0220718D01*
X0158000Y0225318D01*
X0158000Y0222622D02*
X0158400Y0222622D01*
X0158400Y0221023D02*
X0158000Y0221023D01*
X0158000Y0219425D02*
X0158400Y0219425D01*
X0158400Y0217826D02*
X0158000Y0217826D01*
X0158000Y0216228D02*
X0158400Y0216228D01*
X0153048Y0216228D02*
X0148462Y0216228D01*
X0150613Y0217826D02*
X0151223Y0217826D01*
X0152129Y0224220D02*
X0149603Y0224220D01*
X0137997Y0224220D02*
X0124271Y0224220D01*
X0124327Y0224179D02*
X0123716Y0224623D01*
X0123043Y0224966D01*
X0122324Y0225200D01*
X0121578Y0225318D01*
X0118400Y0225318D01*
X0118400Y0220718D01*
X0126000Y0220718D01*
X0126000Y0220896D01*
X0125882Y0221642D01*
X0125648Y0222361D01*
X0125305Y0223034D01*
X0124861Y0223645D01*
X0124327Y0224179D01*
X0125515Y0222622D02*
X0136692Y0222622D01*
X0136200Y0221023D02*
X0125980Y0221023D01*
X0126000Y0220318D02*
X0118400Y0220318D01*
X0118400Y0215718D01*
X0121578Y0215718D01*
X0122324Y0215836D01*
X0123043Y0216070D01*
X0123716Y0216413D01*
X0124327Y0216857D01*
X0124861Y0217391D01*
X0125305Y0218002D01*
X0125648Y0218676D01*
X0125882Y0219394D01*
X0126000Y0220140D01*
X0126000Y0220318D01*
X0125887Y0219425D02*
X0136274Y0219425D01*
X0136987Y0217826D02*
X0125177Y0217826D01*
X0123352Y0216228D02*
X0139138Y0216228D01*
X0138239Y0206636D02*
X0123761Y0206636D01*
X0123806Y0206618D02*
X0122115Y0207318D01*
X0114285Y0207318D01*
X0112594Y0206618D01*
X0111300Y0205324D01*
X0111000Y0204599D01*
X0110700Y0205324D01*
X0109406Y0206618D01*
X0107715Y0207318D01*
X0099885Y0207318D01*
X0098194Y0206618D01*
X0096900Y0205324D01*
X0096200Y0203633D01*
X0096200Y0201803D01*
X0096900Y0200112D01*
X0098194Y0198818D01*
X0099885Y0198118D01*
X0107715Y0198118D01*
X0109406Y0198818D01*
X0110700Y0200112D01*
X0111000Y0200837D01*
X0111300Y0200112D01*
X0111750Y0199662D01*
X0103965Y0191878D01*
X0103600Y0190995D01*
X0103600Y0187758D01*
X0102439Y0186597D01*
X0101800Y0185054D01*
X0101800Y0178183D01*
X0102439Y0176639D01*
X0103621Y0175458D01*
X0105165Y0174818D01*
X0106835Y0174818D01*
X0108379Y0175458D01*
X0109561Y0176639D01*
X0110200Y0178183D01*
X0110200Y0185054D01*
X0109561Y0186597D01*
X0108400Y0187758D01*
X0108400Y0189524D01*
X0116994Y0198118D01*
X0122115Y0198118D01*
X0123806Y0198818D01*
X0125100Y0200112D01*
X0125800Y0201803D01*
X0125800Y0203633D01*
X0125100Y0205324D01*
X0123806Y0206618D01*
X0125218Y0205038D02*
X0136782Y0205038D01*
X0136200Y0203439D02*
X0125800Y0203439D01*
X0125800Y0201841D02*
X0136200Y0201841D01*
X0136846Y0200242D02*
X0125154Y0200242D01*
X0124632Y0198644D02*
X0123384Y0198644D01*
X0123033Y0197045D02*
X0115921Y0197045D01*
X0114323Y0195447D02*
X0121435Y0195447D01*
X0119836Y0193848D02*
X0112724Y0193848D01*
X0111126Y0192250D02*
X0118238Y0192250D01*
X0116639Y0190651D02*
X0109527Y0190651D01*
X0108400Y0189053D02*
X0115041Y0189053D01*
X0113297Y0187454D02*
X0108703Y0187454D01*
X0109868Y0185856D02*
X0112132Y0185856D01*
X0111800Y0184257D02*
X0110200Y0184257D01*
X0110200Y0182659D02*
X0111800Y0182659D01*
X0111800Y0181060D02*
X0110200Y0181060D01*
X0110200Y0179462D02*
X0111800Y0179462D01*
X0111932Y0177863D02*
X0110068Y0177863D01*
X0109186Y0176265D02*
X0112814Y0176265D01*
X0116000Y0181618D02*
X0116000Y0186618D01*
X0126000Y0196618D01*
X0152100Y0196618D01*
X0151182Y0205038D02*
X0150818Y0205038D01*
X0149361Y0206636D02*
X0152639Y0206636D01*
X0130113Y0193848D02*
X0126624Y0193848D01*
X0125026Y0192250D02*
X0128238Y0192250D01*
X0126639Y0190651D02*
X0123427Y0190651D01*
X0121829Y0189053D02*
X0125041Y0189053D01*
X0123297Y0187454D02*
X0120230Y0187454D01*
X0119868Y0185856D02*
X0122132Y0185856D01*
X0121800Y0184257D02*
X0120200Y0184257D01*
X0120200Y0182659D02*
X0121800Y0182659D01*
X0107535Y0195447D02*
X0090565Y0195447D01*
X0088967Y0197045D02*
X0109133Y0197045D01*
X0108984Y0198644D02*
X0110732Y0198644D01*
X0110754Y0200242D02*
X0111246Y0200242D01*
X0111182Y0205038D02*
X0110818Y0205038D01*
X0109361Y0206636D02*
X0112639Y0206636D01*
X0118200Y0202718D02*
X0106000Y0190518D01*
X0106000Y0181618D01*
X0101800Y0181060D02*
X0100200Y0181060D01*
X0100200Y0179462D02*
X0101800Y0179462D01*
X0101932Y0177863D02*
X0100068Y0177863D01*
X0099186Y0176265D02*
X0102814Y0176265D01*
X0101800Y0182659D02*
X0100200Y0182659D01*
X0100200Y0184257D02*
X0101800Y0184257D01*
X0102132Y0185856D02*
X0099868Y0185856D01*
X0098703Y0187454D02*
X0103297Y0187454D01*
X0103600Y0189053D02*
X0096959Y0189053D01*
X0095361Y0190651D02*
X0103600Y0190651D01*
X0104338Y0192250D02*
X0093762Y0192250D01*
X0092164Y0193848D02*
X0105936Y0193848D01*
X0098616Y0198644D02*
X0087368Y0198644D01*
X0085770Y0200242D02*
X0096846Y0200242D01*
X0096200Y0201841D02*
X0085800Y0201841D01*
X0085800Y0203439D02*
X0096200Y0203439D01*
X0096782Y0205038D02*
X0085218Y0205038D01*
X0083761Y0206636D02*
X0098239Y0206636D01*
X0099885Y0215918D02*
X0098194Y0216618D01*
X0096900Y0217912D01*
X0096200Y0219603D01*
X0096200Y0221433D01*
X0096900Y0223124D01*
X0098194Y0224418D01*
X0099885Y0225118D01*
X0107715Y0225118D01*
X0109406Y0224418D01*
X0110700Y0223124D01*
X0110897Y0222647D01*
X0111095Y0223034D01*
X0111539Y0223645D01*
X0112073Y0224179D01*
X0112684Y0224623D01*
X0113357Y0224966D01*
X0114076Y0225200D01*
X0114822Y0225318D01*
X0118000Y0225318D01*
X0118000Y0220718D01*
X0118400Y0220718D01*
X0118400Y0220318D01*
X0118000Y0220318D01*
X0118000Y0215718D01*
X0114822Y0215718D01*
X0114076Y0215836D01*
X0113357Y0216070D01*
X0112684Y0216413D01*
X0112073Y0216857D01*
X0111539Y0217391D01*
X0111095Y0218002D01*
X0110897Y0218390D01*
X0110700Y0217912D01*
X0109406Y0216618D01*
X0107715Y0215918D01*
X0099885Y0215918D01*
X0099138Y0216228D02*
X0083352Y0216228D01*
X0083043Y0216070D02*
X0083716Y0216413D01*
X0084327Y0216857D01*
X0084861Y0217391D01*
X0085305Y0218002D01*
X0085648Y0218676D01*
X0085882Y0219394D01*
X0086000Y0220140D01*
X0086000Y0220318D01*
X0078400Y0220318D01*
X0078400Y0215718D01*
X0081578Y0215718D01*
X0082324Y0215836D01*
X0083043Y0216070D01*
X0085177Y0217826D02*
X0096987Y0217826D01*
X0096274Y0219425D02*
X0085887Y0219425D01*
X0086000Y0220718D02*
X0086000Y0220896D01*
X0085882Y0221642D01*
X0085648Y0222361D01*
X0085305Y0223034D01*
X0084861Y0223645D01*
X0084327Y0224179D01*
X0083716Y0224623D01*
X0083043Y0224966D01*
X0082324Y0225200D01*
X0081578Y0225318D01*
X0078400Y0225318D01*
X0078400Y0220718D01*
X0086000Y0220718D01*
X0085980Y0221023D02*
X0096200Y0221023D01*
X0096692Y0222622D02*
X0085515Y0222622D01*
X0084271Y0224220D02*
X0097997Y0224220D01*
X0109603Y0224220D02*
X0112129Y0224220D01*
X0118000Y0224220D02*
X0118400Y0224220D01*
X0118400Y0222622D02*
X0118000Y0222622D01*
X0118000Y0221023D02*
X0118400Y0221023D01*
X0118400Y0219425D02*
X0118000Y0219425D01*
X0118000Y0217826D02*
X0118400Y0217826D01*
X0118400Y0216228D02*
X0118000Y0216228D01*
X0113048Y0216228D02*
X0108462Y0216228D01*
X0110613Y0217826D02*
X0111223Y0217826D01*
X0078400Y0217826D02*
X0078000Y0217826D01*
X0078000Y0216228D02*
X0078400Y0216228D01*
X0078000Y0215718D02*
X0074822Y0215718D01*
X0074076Y0215836D01*
X0073357Y0216070D01*
X0072684Y0216413D01*
X0072073Y0216857D01*
X0071539Y0217391D01*
X0071095Y0218002D01*
X0070752Y0218676D01*
X0070518Y0219394D01*
X0070400Y0220140D01*
X0070400Y0220318D01*
X0078000Y0220318D01*
X0078400Y0220318D01*
X0078400Y0220718D01*
X0078000Y0220718D01*
X0078000Y0220318D01*
X0078000Y0215718D01*
X0078000Y0219425D02*
X0078400Y0219425D01*
X0078000Y0220718D02*
X0070400Y0220718D01*
X0070400Y0220896D01*
X0070518Y0221642D01*
X0070752Y0222361D01*
X0071095Y0223034D01*
X0071539Y0223645D01*
X0072073Y0224179D01*
X0072684Y0224623D01*
X0073357Y0224966D01*
X0074076Y0225200D01*
X0074822Y0225318D01*
X0078000Y0225318D01*
X0078000Y0220718D01*
X0078000Y0221023D02*
X0078400Y0221023D01*
X0078400Y0222622D02*
X0078000Y0222622D01*
X0078000Y0224220D02*
X0078400Y0224220D01*
X0072129Y0224220D02*
X0006000Y0224220D01*
X0006000Y0222622D02*
X0070885Y0222622D01*
X0070420Y0221023D02*
X0006000Y0221023D01*
X0006000Y0219425D02*
X0070513Y0219425D01*
X0071223Y0217826D02*
X0006000Y0217826D01*
X0006000Y0216228D02*
X0073048Y0216228D01*
X0074224Y0187454D02*
X0058400Y0187454D01*
X0058400Y0185856D02*
X0076800Y0185856D01*
X0077421Y0184257D02*
X0058400Y0184257D01*
X0058400Y0182659D02*
X0079020Y0182659D01*
X0083164Y0181060D02*
X0058400Y0181060D01*
X0058400Y0179462D02*
X0084762Y0179462D01*
X0086361Y0177863D02*
X0058400Y0177863D01*
X0058400Y0176265D02*
X0062241Y0176265D01*
X0060852Y0174666D02*
X0058400Y0174666D01*
X0058400Y0173068D02*
X0060300Y0173068D01*
X0060300Y0171469D02*
X0058400Y0171469D01*
X0058400Y0169871D02*
X0060300Y0169871D01*
X0060300Y0168272D02*
X0058400Y0168272D01*
X0058400Y0166674D02*
X0060300Y0166674D01*
X0060477Y0165075D02*
X0058400Y0165075D01*
X0058400Y0163477D02*
X0061336Y0163477D01*
X0069500Y0169871D02*
X0094353Y0169871D01*
X0092755Y0171469D02*
X0069500Y0171469D01*
X0069500Y0173068D02*
X0091156Y0173068D01*
X0089558Y0174666D02*
X0068948Y0174666D01*
X0067559Y0176265D02*
X0087959Y0176265D01*
X0096346Y0174666D02*
X0165654Y0174666D01*
X0188462Y0216228D02*
X0193048Y0216228D01*
X0191223Y0217826D02*
X0190613Y0217826D01*
X0198000Y0217826D02*
X0198400Y0217826D01*
X0198400Y0216228D02*
X0198000Y0216228D01*
X0198000Y0219425D02*
X0198400Y0219425D01*
X0198400Y0221023D02*
X0198000Y0221023D01*
X0198000Y0222622D02*
X0198400Y0222622D01*
X0198400Y0224220D02*
X0198000Y0224220D01*
X0192129Y0224220D02*
X0189603Y0224220D01*
X0203352Y0216228D02*
X0219138Y0216228D01*
X0219885Y0215918D02*
X0227715Y0215918D01*
X0229406Y0216618D01*
X0230700Y0217912D01*
X0231400Y0219603D01*
X0231400Y0221433D01*
X0230700Y0223124D01*
X0229406Y0224418D01*
X0227715Y0225118D01*
X0219885Y0225118D01*
X0218194Y0224418D01*
X0216900Y0223124D01*
X0216200Y0221433D01*
X0216200Y0219603D01*
X0216900Y0217912D01*
X0218194Y0216618D01*
X0219885Y0215918D01*
X0216987Y0217826D02*
X0205177Y0217826D01*
X0205887Y0219425D02*
X0216274Y0219425D01*
X0216200Y0221023D02*
X0205980Y0221023D01*
X0205515Y0222622D02*
X0216692Y0222622D01*
X0217997Y0224220D02*
X0204271Y0224220D01*
X0228462Y0216228D02*
X0269901Y0216228D01*
X0269901Y0217826D02*
X0230613Y0217826D01*
X0231326Y0219425D02*
X0269901Y0219425D01*
X0269901Y0221023D02*
X0231400Y0221023D01*
X0230908Y0222622D02*
X0269901Y0222622D01*
X0269901Y0224220D02*
X0229603Y0224220D01*
X0269901Y0225819D02*
X0006000Y0225819D01*
X0006000Y0227417D02*
X0269901Y0227417D01*
X0269901Y0229016D02*
X0006000Y0229016D01*
X0006000Y0230614D02*
X0269901Y0230614D01*
X0269901Y0232213D02*
X0006000Y0232213D01*
X0006000Y0233811D02*
X0269901Y0233811D01*
X0269901Y0235410D02*
X0006000Y0235410D01*
X0185792Y0038793D02*
X0269901Y0038793D01*
X0269901Y0037194D02*
X0185130Y0037194D01*
X0184035Y0035596D02*
X0269901Y0035596D01*
X0269901Y0033997D02*
X0182436Y0033997D01*
M02*
