G75*
%MOIN*%
%OFA0B0*%
%FSLAX25Y25*%
%IPPOS*%
%LPD*%
%AMOC8*
5,1,8,0,0,1.08239X$1,22.5*
%
%ADD10C,0.01200*%
%ADD11C,0.00600*%
%ADD12C,0.00500*%
%ADD13C,0.01000*%
%ADD14C,0.01600*%
%ADD15C,0.02400*%
%ADD16R,0.03400X0.02400*%
%ADD17R,0.02400X0.03400*%
%ADD18C,0.00200*%
%ADD19C,0.00400*%
%ADD20C,0.00100*%
%ADD21R,0.09000X0.02500*%
D10*
X0164800Y0099118D02*
X0164800Y0101618D01*
X0164800Y0104118D01*
X0167300Y0104118D02*
X0167300Y0101618D01*
X0167300Y0099118D01*
X0224700Y0119118D02*
X0224700Y0121618D01*
X0224700Y0124118D01*
X0227200Y0124118D02*
X0227200Y0121618D01*
X0227200Y0119118D01*
D11*
X0227200Y0121618D02*
X0232000Y0121618D01*
X0227500Y0127118D02*
X0226000Y0127118D01*
X0225500Y0127618D01*
X0206500Y0127618D01*
X0206000Y0127118D01*
X0204500Y0127118D01*
X0204440Y0127120D01*
X0204379Y0127125D01*
X0204320Y0127134D01*
X0204261Y0127147D01*
X0204202Y0127163D01*
X0204145Y0127183D01*
X0204090Y0127206D01*
X0204035Y0127233D01*
X0203983Y0127262D01*
X0203932Y0127295D01*
X0203883Y0127331D01*
X0203837Y0127369D01*
X0203793Y0127411D01*
X0203751Y0127455D01*
X0203713Y0127501D01*
X0203677Y0127550D01*
X0203644Y0127601D01*
X0203615Y0127653D01*
X0203588Y0127708D01*
X0203565Y0127763D01*
X0203545Y0127820D01*
X0203529Y0127879D01*
X0203516Y0127938D01*
X0203507Y0127997D01*
X0203502Y0128058D01*
X0203500Y0128118D01*
X0203500Y0135118D01*
X0203502Y0135178D01*
X0203507Y0135239D01*
X0203516Y0135298D01*
X0203529Y0135357D01*
X0203545Y0135416D01*
X0203565Y0135473D01*
X0203588Y0135528D01*
X0203615Y0135583D01*
X0203644Y0135635D01*
X0203677Y0135686D01*
X0203713Y0135735D01*
X0203751Y0135781D01*
X0203793Y0135825D01*
X0203837Y0135867D01*
X0203883Y0135905D01*
X0203932Y0135941D01*
X0203983Y0135974D01*
X0204035Y0136003D01*
X0204090Y0136030D01*
X0204145Y0136053D01*
X0204202Y0136073D01*
X0204261Y0136089D01*
X0204320Y0136102D01*
X0204379Y0136111D01*
X0204440Y0136116D01*
X0204500Y0136118D01*
X0206000Y0136118D01*
X0206500Y0135618D01*
X0225500Y0135618D01*
X0226000Y0136118D01*
X0227500Y0136118D01*
X0227560Y0136116D01*
X0227621Y0136111D01*
X0227680Y0136102D01*
X0227739Y0136089D01*
X0227798Y0136073D01*
X0227855Y0136053D01*
X0227910Y0136030D01*
X0227965Y0136003D01*
X0228017Y0135974D01*
X0228068Y0135941D01*
X0228117Y0135905D01*
X0228163Y0135867D01*
X0228207Y0135825D01*
X0228249Y0135781D01*
X0228287Y0135735D01*
X0228323Y0135686D01*
X0228356Y0135635D01*
X0228385Y0135583D01*
X0228412Y0135528D01*
X0228435Y0135473D01*
X0228455Y0135416D01*
X0228471Y0135357D01*
X0228484Y0135298D01*
X0228493Y0135239D01*
X0228498Y0135178D01*
X0228500Y0135118D01*
X0228500Y0128118D01*
X0228498Y0128058D01*
X0228493Y0127997D01*
X0228484Y0127938D01*
X0228471Y0127879D01*
X0228455Y0127820D01*
X0228435Y0127763D01*
X0228412Y0127708D01*
X0228385Y0127653D01*
X0228356Y0127601D01*
X0228323Y0127550D01*
X0228287Y0127501D01*
X0228249Y0127455D01*
X0228207Y0127411D01*
X0228163Y0127369D01*
X0228117Y0127331D01*
X0228068Y0127295D01*
X0228017Y0127262D01*
X0227965Y0127233D01*
X0227910Y0127206D01*
X0227855Y0127183D01*
X0227798Y0127163D01*
X0227739Y0127147D01*
X0227680Y0127134D01*
X0227621Y0127125D01*
X0227560Y0127120D01*
X0227500Y0127118D01*
X0224700Y0121618D02*
X0220000Y0121618D01*
X0212500Y0128618D02*
X0212440Y0128616D01*
X0212379Y0128611D01*
X0212320Y0128602D01*
X0212261Y0128589D01*
X0212202Y0128573D01*
X0212145Y0128553D01*
X0212090Y0128530D01*
X0212035Y0128503D01*
X0211983Y0128474D01*
X0211932Y0128441D01*
X0211883Y0128405D01*
X0211837Y0128367D01*
X0211793Y0128325D01*
X0211751Y0128281D01*
X0211713Y0128235D01*
X0211677Y0128186D01*
X0211644Y0128135D01*
X0211615Y0128083D01*
X0211588Y0128028D01*
X0211565Y0127973D01*
X0211545Y0127916D01*
X0211529Y0127857D01*
X0211516Y0127798D01*
X0211507Y0127739D01*
X0211502Y0127678D01*
X0211500Y0127618D01*
X0211500Y0115618D01*
X0211502Y0115558D01*
X0211507Y0115497D01*
X0211516Y0115438D01*
X0211529Y0115379D01*
X0211545Y0115320D01*
X0211565Y0115263D01*
X0211588Y0115208D01*
X0211615Y0115153D01*
X0211644Y0115101D01*
X0211677Y0115050D01*
X0211713Y0115001D01*
X0211751Y0114955D01*
X0211793Y0114911D01*
X0211837Y0114869D01*
X0211883Y0114831D01*
X0211932Y0114795D01*
X0211983Y0114762D01*
X0212035Y0114733D01*
X0212090Y0114706D01*
X0212145Y0114683D01*
X0212202Y0114663D01*
X0212261Y0114647D01*
X0212320Y0114634D01*
X0212379Y0114625D01*
X0212440Y0114620D01*
X0212500Y0114618D01*
X0239500Y0114618D01*
X0239560Y0114620D01*
X0239621Y0114625D01*
X0239680Y0114634D01*
X0239739Y0114647D01*
X0239798Y0114663D01*
X0239855Y0114683D01*
X0239910Y0114706D01*
X0239965Y0114733D01*
X0240017Y0114762D01*
X0240068Y0114795D01*
X0240117Y0114831D01*
X0240163Y0114869D01*
X0240207Y0114911D01*
X0240249Y0114955D01*
X0240287Y0115001D01*
X0240323Y0115050D01*
X0240356Y0115101D01*
X0240385Y0115153D01*
X0240412Y0115208D01*
X0240435Y0115263D01*
X0240455Y0115320D01*
X0240471Y0115379D01*
X0240484Y0115438D01*
X0240493Y0115497D01*
X0240498Y0115558D01*
X0240500Y0115618D01*
X0240500Y0127618D01*
X0240498Y0127678D01*
X0240493Y0127739D01*
X0240484Y0127798D01*
X0240471Y0127857D01*
X0240455Y0127916D01*
X0240435Y0127973D01*
X0240412Y0128028D01*
X0240385Y0128083D01*
X0240356Y0128135D01*
X0240323Y0128186D01*
X0240287Y0128235D01*
X0240249Y0128281D01*
X0240207Y0128325D01*
X0240163Y0128367D01*
X0240117Y0128405D01*
X0240068Y0128441D01*
X0240017Y0128474D01*
X0239965Y0128503D01*
X0239910Y0128530D01*
X0239855Y0128553D01*
X0239798Y0128573D01*
X0239739Y0128589D01*
X0239680Y0128602D01*
X0239621Y0128611D01*
X0239560Y0128616D01*
X0239500Y0128618D01*
X0212500Y0128618D01*
X0231000Y0145118D02*
X0231000Y0178118D01*
X0091000Y0178118D01*
X0091000Y0165618D01*
X0091126Y0165616D01*
X0091251Y0165610D01*
X0091376Y0165600D01*
X0091501Y0165586D01*
X0091626Y0165569D01*
X0091750Y0165547D01*
X0091873Y0165522D01*
X0091995Y0165492D01*
X0092116Y0165459D01*
X0092236Y0165422D01*
X0092355Y0165382D01*
X0092472Y0165337D01*
X0092589Y0165289D01*
X0092703Y0165237D01*
X0092816Y0165182D01*
X0092927Y0165123D01*
X0093036Y0165061D01*
X0093143Y0164995D01*
X0093248Y0164926D01*
X0093351Y0164854D01*
X0093452Y0164779D01*
X0093550Y0164700D01*
X0093645Y0164618D01*
X0093738Y0164534D01*
X0093828Y0164446D01*
X0093916Y0164356D01*
X0094000Y0164263D01*
X0094082Y0164168D01*
X0094161Y0164070D01*
X0094236Y0163969D01*
X0094308Y0163866D01*
X0094377Y0163761D01*
X0094443Y0163654D01*
X0094505Y0163545D01*
X0094564Y0163434D01*
X0094619Y0163321D01*
X0094671Y0163207D01*
X0094719Y0163090D01*
X0094764Y0162973D01*
X0094804Y0162854D01*
X0094841Y0162734D01*
X0094874Y0162613D01*
X0094904Y0162491D01*
X0094929Y0162368D01*
X0094951Y0162244D01*
X0094968Y0162119D01*
X0094982Y0161994D01*
X0094992Y0161869D01*
X0094998Y0161744D01*
X0095000Y0161618D01*
X0094998Y0161492D01*
X0094992Y0161367D01*
X0094982Y0161242D01*
X0094968Y0161117D01*
X0094951Y0160992D01*
X0094929Y0160868D01*
X0094904Y0160745D01*
X0094874Y0160623D01*
X0094841Y0160502D01*
X0094804Y0160382D01*
X0094764Y0160263D01*
X0094719Y0160146D01*
X0094671Y0160029D01*
X0094619Y0159915D01*
X0094564Y0159802D01*
X0094505Y0159691D01*
X0094443Y0159582D01*
X0094377Y0159475D01*
X0094308Y0159370D01*
X0094236Y0159267D01*
X0094161Y0159166D01*
X0094082Y0159068D01*
X0094000Y0158973D01*
X0093916Y0158880D01*
X0093828Y0158790D01*
X0093738Y0158702D01*
X0093645Y0158618D01*
X0093550Y0158536D01*
X0093452Y0158457D01*
X0093351Y0158382D01*
X0093248Y0158310D01*
X0093143Y0158241D01*
X0093036Y0158175D01*
X0092927Y0158113D01*
X0092816Y0158054D01*
X0092703Y0157999D01*
X0092589Y0157947D01*
X0092472Y0157899D01*
X0092355Y0157854D01*
X0092236Y0157814D01*
X0092116Y0157777D01*
X0091995Y0157744D01*
X0091873Y0157714D01*
X0091750Y0157689D01*
X0091626Y0157667D01*
X0091501Y0157650D01*
X0091376Y0157636D01*
X0091251Y0157626D01*
X0091126Y0157620D01*
X0091000Y0157618D01*
X0091000Y0145118D01*
X0231000Y0145118D01*
X0234000Y0153118D02*
X0234000Y0157118D01*
X0234000Y0166618D01*
X0234000Y0170118D01*
X0242000Y0173618D02*
X0243000Y0173618D01*
X0243000Y0174618D01*
X0249000Y0174618D01*
X0249000Y0173618D01*
X0250000Y0173618D01*
X0258000Y0170118D02*
X0258000Y0166618D01*
X0258000Y0156618D01*
X0258000Y0153118D01*
X0250000Y0149618D02*
X0249000Y0149618D01*
X0249000Y0148618D01*
X0243000Y0148618D01*
X0243000Y0149618D01*
X0242000Y0149618D01*
X0245000Y0161618D02*
X0245002Y0161681D01*
X0245008Y0161743D01*
X0245018Y0161805D01*
X0245031Y0161867D01*
X0245049Y0161927D01*
X0245070Y0161986D01*
X0245095Y0162044D01*
X0245124Y0162100D01*
X0245156Y0162154D01*
X0245191Y0162206D01*
X0245229Y0162255D01*
X0245271Y0162303D01*
X0245315Y0162347D01*
X0245363Y0162389D01*
X0245412Y0162427D01*
X0245464Y0162462D01*
X0245518Y0162494D01*
X0245574Y0162523D01*
X0245632Y0162548D01*
X0245691Y0162569D01*
X0245751Y0162587D01*
X0245813Y0162600D01*
X0245875Y0162610D01*
X0245937Y0162616D01*
X0246000Y0162618D01*
X0246063Y0162616D01*
X0246125Y0162610D01*
X0246187Y0162600D01*
X0246249Y0162587D01*
X0246309Y0162569D01*
X0246368Y0162548D01*
X0246426Y0162523D01*
X0246482Y0162494D01*
X0246536Y0162462D01*
X0246588Y0162427D01*
X0246637Y0162389D01*
X0246685Y0162347D01*
X0246729Y0162303D01*
X0246771Y0162255D01*
X0246809Y0162206D01*
X0246844Y0162154D01*
X0246876Y0162100D01*
X0246905Y0162044D01*
X0246930Y0161986D01*
X0246951Y0161927D01*
X0246969Y0161867D01*
X0246982Y0161805D01*
X0246992Y0161743D01*
X0246998Y0161681D01*
X0247000Y0161618D01*
X0246998Y0161555D01*
X0246992Y0161493D01*
X0246982Y0161431D01*
X0246969Y0161369D01*
X0246951Y0161309D01*
X0246930Y0161250D01*
X0246905Y0161192D01*
X0246876Y0161136D01*
X0246844Y0161082D01*
X0246809Y0161030D01*
X0246771Y0160981D01*
X0246729Y0160933D01*
X0246685Y0160889D01*
X0246637Y0160847D01*
X0246588Y0160809D01*
X0246536Y0160774D01*
X0246482Y0160742D01*
X0246426Y0160713D01*
X0246368Y0160688D01*
X0246309Y0160667D01*
X0246249Y0160649D01*
X0246187Y0160636D01*
X0246125Y0160626D01*
X0246063Y0160620D01*
X0246000Y0160618D01*
X0245937Y0160620D01*
X0245875Y0160626D01*
X0245813Y0160636D01*
X0245751Y0160649D01*
X0245691Y0160667D01*
X0245632Y0160688D01*
X0245574Y0160713D01*
X0245518Y0160742D01*
X0245464Y0160774D01*
X0245412Y0160809D01*
X0245363Y0160847D01*
X0245315Y0160889D01*
X0245271Y0160933D01*
X0245229Y0160981D01*
X0245191Y0161030D01*
X0245156Y0161082D01*
X0245124Y0161136D01*
X0245095Y0161192D01*
X0245070Y0161250D01*
X0245049Y0161309D01*
X0245031Y0161369D01*
X0245018Y0161431D01*
X0245008Y0161493D01*
X0245002Y0161555D01*
X0245000Y0161618D01*
X0239000Y0161618D02*
X0239002Y0161790D01*
X0239008Y0161961D01*
X0239019Y0162133D01*
X0239034Y0162304D01*
X0239053Y0162475D01*
X0239076Y0162645D01*
X0239103Y0162815D01*
X0239135Y0162984D01*
X0239170Y0163152D01*
X0239210Y0163319D01*
X0239254Y0163485D01*
X0239301Y0163650D01*
X0239353Y0163814D01*
X0239409Y0163976D01*
X0239469Y0164137D01*
X0239533Y0164297D01*
X0239601Y0164455D01*
X0239672Y0164611D01*
X0239747Y0164765D01*
X0239827Y0164918D01*
X0239909Y0165068D01*
X0239996Y0165217D01*
X0240086Y0165363D01*
X0240180Y0165507D01*
X0240277Y0165649D01*
X0240378Y0165788D01*
X0240482Y0165925D01*
X0240589Y0166059D01*
X0240700Y0166190D01*
X0240813Y0166319D01*
X0240930Y0166445D01*
X0241050Y0166568D01*
X0241173Y0166688D01*
X0241299Y0166805D01*
X0241428Y0166918D01*
X0241559Y0167029D01*
X0241693Y0167136D01*
X0241830Y0167240D01*
X0241969Y0167341D01*
X0242111Y0167438D01*
X0242255Y0167532D01*
X0242401Y0167622D01*
X0242550Y0167709D01*
X0242700Y0167791D01*
X0242853Y0167871D01*
X0243007Y0167946D01*
X0243163Y0168017D01*
X0243321Y0168085D01*
X0243481Y0168149D01*
X0243642Y0168209D01*
X0243804Y0168265D01*
X0243968Y0168317D01*
X0244133Y0168364D01*
X0244299Y0168408D01*
X0244466Y0168448D01*
X0244634Y0168483D01*
X0244803Y0168515D01*
X0244973Y0168542D01*
X0245143Y0168565D01*
X0245314Y0168584D01*
X0245485Y0168599D01*
X0245657Y0168610D01*
X0245828Y0168616D01*
X0246000Y0168618D01*
X0246172Y0168616D01*
X0246343Y0168610D01*
X0246515Y0168599D01*
X0246686Y0168584D01*
X0246857Y0168565D01*
X0247027Y0168542D01*
X0247197Y0168515D01*
X0247366Y0168483D01*
X0247534Y0168448D01*
X0247701Y0168408D01*
X0247867Y0168364D01*
X0248032Y0168317D01*
X0248196Y0168265D01*
X0248358Y0168209D01*
X0248519Y0168149D01*
X0248679Y0168085D01*
X0248837Y0168017D01*
X0248993Y0167946D01*
X0249147Y0167871D01*
X0249300Y0167791D01*
X0249450Y0167709D01*
X0249599Y0167622D01*
X0249745Y0167532D01*
X0249889Y0167438D01*
X0250031Y0167341D01*
X0250170Y0167240D01*
X0250307Y0167136D01*
X0250441Y0167029D01*
X0250572Y0166918D01*
X0250701Y0166805D01*
X0250827Y0166688D01*
X0250950Y0166568D01*
X0251070Y0166445D01*
X0251187Y0166319D01*
X0251300Y0166190D01*
X0251411Y0166059D01*
X0251518Y0165925D01*
X0251622Y0165788D01*
X0251723Y0165649D01*
X0251820Y0165507D01*
X0251914Y0165363D01*
X0252004Y0165217D01*
X0252091Y0165068D01*
X0252173Y0164918D01*
X0252253Y0164765D01*
X0252328Y0164611D01*
X0252399Y0164455D01*
X0252467Y0164297D01*
X0252531Y0164137D01*
X0252591Y0163976D01*
X0252647Y0163814D01*
X0252699Y0163650D01*
X0252746Y0163485D01*
X0252790Y0163319D01*
X0252830Y0163152D01*
X0252865Y0162984D01*
X0252897Y0162815D01*
X0252924Y0162645D01*
X0252947Y0162475D01*
X0252966Y0162304D01*
X0252981Y0162133D01*
X0252992Y0161961D01*
X0252998Y0161790D01*
X0253000Y0161618D01*
X0252998Y0161446D01*
X0252992Y0161275D01*
X0252981Y0161103D01*
X0252966Y0160932D01*
X0252947Y0160761D01*
X0252924Y0160591D01*
X0252897Y0160421D01*
X0252865Y0160252D01*
X0252830Y0160084D01*
X0252790Y0159917D01*
X0252746Y0159751D01*
X0252699Y0159586D01*
X0252647Y0159422D01*
X0252591Y0159260D01*
X0252531Y0159099D01*
X0252467Y0158939D01*
X0252399Y0158781D01*
X0252328Y0158625D01*
X0252253Y0158471D01*
X0252173Y0158318D01*
X0252091Y0158168D01*
X0252004Y0158019D01*
X0251914Y0157873D01*
X0251820Y0157729D01*
X0251723Y0157587D01*
X0251622Y0157448D01*
X0251518Y0157311D01*
X0251411Y0157177D01*
X0251300Y0157046D01*
X0251187Y0156917D01*
X0251070Y0156791D01*
X0250950Y0156668D01*
X0250827Y0156548D01*
X0250701Y0156431D01*
X0250572Y0156318D01*
X0250441Y0156207D01*
X0250307Y0156100D01*
X0250170Y0155996D01*
X0250031Y0155895D01*
X0249889Y0155798D01*
X0249745Y0155704D01*
X0249599Y0155614D01*
X0249450Y0155527D01*
X0249300Y0155445D01*
X0249147Y0155365D01*
X0248993Y0155290D01*
X0248837Y0155219D01*
X0248679Y0155151D01*
X0248519Y0155087D01*
X0248358Y0155027D01*
X0248196Y0154971D01*
X0248032Y0154919D01*
X0247867Y0154872D01*
X0247701Y0154828D01*
X0247534Y0154788D01*
X0247366Y0154753D01*
X0247197Y0154721D01*
X0247027Y0154694D01*
X0246857Y0154671D01*
X0246686Y0154652D01*
X0246515Y0154637D01*
X0246343Y0154626D01*
X0246172Y0154620D01*
X0246000Y0154618D01*
X0245828Y0154620D01*
X0245657Y0154626D01*
X0245485Y0154637D01*
X0245314Y0154652D01*
X0245143Y0154671D01*
X0244973Y0154694D01*
X0244803Y0154721D01*
X0244634Y0154753D01*
X0244466Y0154788D01*
X0244299Y0154828D01*
X0244133Y0154872D01*
X0243968Y0154919D01*
X0243804Y0154971D01*
X0243642Y0155027D01*
X0243481Y0155087D01*
X0243321Y0155151D01*
X0243163Y0155219D01*
X0243007Y0155290D01*
X0242853Y0155365D01*
X0242700Y0155445D01*
X0242550Y0155527D01*
X0242401Y0155614D01*
X0242255Y0155704D01*
X0242111Y0155798D01*
X0241969Y0155895D01*
X0241830Y0155996D01*
X0241693Y0156100D01*
X0241559Y0156207D01*
X0241428Y0156318D01*
X0241299Y0156431D01*
X0241173Y0156548D01*
X0241050Y0156668D01*
X0240930Y0156791D01*
X0240813Y0156917D01*
X0240700Y0157046D01*
X0240589Y0157177D01*
X0240482Y0157311D01*
X0240378Y0157448D01*
X0240277Y0157587D01*
X0240180Y0157729D01*
X0240086Y0157873D01*
X0239996Y0158019D01*
X0239909Y0158168D01*
X0239827Y0158318D01*
X0239747Y0158471D01*
X0239672Y0158625D01*
X0239601Y0158781D01*
X0239533Y0158939D01*
X0239469Y0159099D01*
X0239409Y0159260D01*
X0239353Y0159422D01*
X0239301Y0159586D01*
X0239254Y0159751D01*
X0239210Y0159917D01*
X0239170Y0160084D01*
X0239135Y0160252D01*
X0239103Y0160421D01*
X0239076Y0160591D01*
X0239053Y0160761D01*
X0239034Y0160932D01*
X0239019Y0161103D01*
X0239008Y0161275D01*
X0239002Y0161446D01*
X0239000Y0161618D01*
X0219500Y0199618D02*
X0215500Y0199618D01*
X0206000Y0199618D01*
X0202500Y0199618D01*
X0199000Y0207618D02*
X0199000Y0208618D01*
X0198000Y0208618D01*
X0198000Y0214618D01*
X0199000Y0214618D01*
X0199000Y0215618D01*
X0202500Y0223618D02*
X0206000Y0223618D01*
X0216000Y0223618D01*
X0219500Y0223618D01*
X0223000Y0215618D02*
X0223000Y0214618D01*
X0224000Y0214618D01*
X0224000Y0208618D01*
X0223000Y0208618D01*
X0223000Y0207618D01*
X0210000Y0211618D02*
X0210002Y0211681D01*
X0210008Y0211743D01*
X0210018Y0211805D01*
X0210031Y0211867D01*
X0210049Y0211927D01*
X0210070Y0211986D01*
X0210095Y0212044D01*
X0210124Y0212100D01*
X0210156Y0212154D01*
X0210191Y0212206D01*
X0210229Y0212255D01*
X0210271Y0212303D01*
X0210315Y0212347D01*
X0210363Y0212389D01*
X0210412Y0212427D01*
X0210464Y0212462D01*
X0210518Y0212494D01*
X0210574Y0212523D01*
X0210632Y0212548D01*
X0210691Y0212569D01*
X0210751Y0212587D01*
X0210813Y0212600D01*
X0210875Y0212610D01*
X0210937Y0212616D01*
X0211000Y0212618D01*
X0211063Y0212616D01*
X0211125Y0212610D01*
X0211187Y0212600D01*
X0211249Y0212587D01*
X0211309Y0212569D01*
X0211368Y0212548D01*
X0211426Y0212523D01*
X0211482Y0212494D01*
X0211536Y0212462D01*
X0211588Y0212427D01*
X0211637Y0212389D01*
X0211685Y0212347D01*
X0211729Y0212303D01*
X0211771Y0212255D01*
X0211809Y0212206D01*
X0211844Y0212154D01*
X0211876Y0212100D01*
X0211905Y0212044D01*
X0211930Y0211986D01*
X0211951Y0211927D01*
X0211969Y0211867D01*
X0211982Y0211805D01*
X0211992Y0211743D01*
X0211998Y0211681D01*
X0212000Y0211618D01*
X0211998Y0211555D01*
X0211992Y0211493D01*
X0211982Y0211431D01*
X0211969Y0211369D01*
X0211951Y0211309D01*
X0211930Y0211250D01*
X0211905Y0211192D01*
X0211876Y0211136D01*
X0211844Y0211082D01*
X0211809Y0211030D01*
X0211771Y0210981D01*
X0211729Y0210933D01*
X0211685Y0210889D01*
X0211637Y0210847D01*
X0211588Y0210809D01*
X0211536Y0210774D01*
X0211482Y0210742D01*
X0211426Y0210713D01*
X0211368Y0210688D01*
X0211309Y0210667D01*
X0211249Y0210649D01*
X0211187Y0210636D01*
X0211125Y0210626D01*
X0211063Y0210620D01*
X0211000Y0210618D01*
X0210937Y0210620D01*
X0210875Y0210626D01*
X0210813Y0210636D01*
X0210751Y0210649D01*
X0210691Y0210667D01*
X0210632Y0210688D01*
X0210574Y0210713D01*
X0210518Y0210742D01*
X0210464Y0210774D01*
X0210412Y0210809D01*
X0210363Y0210847D01*
X0210315Y0210889D01*
X0210271Y0210933D01*
X0210229Y0210981D01*
X0210191Y0211030D01*
X0210156Y0211082D01*
X0210124Y0211136D01*
X0210095Y0211192D01*
X0210070Y0211250D01*
X0210049Y0211309D01*
X0210031Y0211369D01*
X0210018Y0211431D01*
X0210008Y0211493D01*
X0210002Y0211555D01*
X0210000Y0211618D01*
X0204000Y0211618D02*
X0204002Y0211790D01*
X0204008Y0211961D01*
X0204019Y0212133D01*
X0204034Y0212304D01*
X0204053Y0212475D01*
X0204076Y0212645D01*
X0204103Y0212815D01*
X0204135Y0212984D01*
X0204170Y0213152D01*
X0204210Y0213319D01*
X0204254Y0213485D01*
X0204301Y0213650D01*
X0204353Y0213814D01*
X0204409Y0213976D01*
X0204469Y0214137D01*
X0204533Y0214297D01*
X0204601Y0214455D01*
X0204672Y0214611D01*
X0204747Y0214765D01*
X0204827Y0214918D01*
X0204909Y0215068D01*
X0204996Y0215217D01*
X0205086Y0215363D01*
X0205180Y0215507D01*
X0205277Y0215649D01*
X0205378Y0215788D01*
X0205482Y0215925D01*
X0205589Y0216059D01*
X0205700Y0216190D01*
X0205813Y0216319D01*
X0205930Y0216445D01*
X0206050Y0216568D01*
X0206173Y0216688D01*
X0206299Y0216805D01*
X0206428Y0216918D01*
X0206559Y0217029D01*
X0206693Y0217136D01*
X0206830Y0217240D01*
X0206969Y0217341D01*
X0207111Y0217438D01*
X0207255Y0217532D01*
X0207401Y0217622D01*
X0207550Y0217709D01*
X0207700Y0217791D01*
X0207853Y0217871D01*
X0208007Y0217946D01*
X0208163Y0218017D01*
X0208321Y0218085D01*
X0208481Y0218149D01*
X0208642Y0218209D01*
X0208804Y0218265D01*
X0208968Y0218317D01*
X0209133Y0218364D01*
X0209299Y0218408D01*
X0209466Y0218448D01*
X0209634Y0218483D01*
X0209803Y0218515D01*
X0209973Y0218542D01*
X0210143Y0218565D01*
X0210314Y0218584D01*
X0210485Y0218599D01*
X0210657Y0218610D01*
X0210828Y0218616D01*
X0211000Y0218618D01*
X0211172Y0218616D01*
X0211343Y0218610D01*
X0211515Y0218599D01*
X0211686Y0218584D01*
X0211857Y0218565D01*
X0212027Y0218542D01*
X0212197Y0218515D01*
X0212366Y0218483D01*
X0212534Y0218448D01*
X0212701Y0218408D01*
X0212867Y0218364D01*
X0213032Y0218317D01*
X0213196Y0218265D01*
X0213358Y0218209D01*
X0213519Y0218149D01*
X0213679Y0218085D01*
X0213837Y0218017D01*
X0213993Y0217946D01*
X0214147Y0217871D01*
X0214300Y0217791D01*
X0214450Y0217709D01*
X0214599Y0217622D01*
X0214745Y0217532D01*
X0214889Y0217438D01*
X0215031Y0217341D01*
X0215170Y0217240D01*
X0215307Y0217136D01*
X0215441Y0217029D01*
X0215572Y0216918D01*
X0215701Y0216805D01*
X0215827Y0216688D01*
X0215950Y0216568D01*
X0216070Y0216445D01*
X0216187Y0216319D01*
X0216300Y0216190D01*
X0216411Y0216059D01*
X0216518Y0215925D01*
X0216622Y0215788D01*
X0216723Y0215649D01*
X0216820Y0215507D01*
X0216914Y0215363D01*
X0217004Y0215217D01*
X0217091Y0215068D01*
X0217173Y0214918D01*
X0217253Y0214765D01*
X0217328Y0214611D01*
X0217399Y0214455D01*
X0217467Y0214297D01*
X0217531Y0214137D01*
X0217591Y0213976D01*
X0217647Y0213814D01*
X0217699Y0213650D01*
X0217746Y0213485D01*
X0217790Y0213319D01*
X0217830Y0213152D01*
X0217865Y0212984D01*
X0217897Y0212815D01*
X0217924Y0212645D01*
X0217947Y0212475D01*
X0217966Y0212304D01*
X0217981Y0212133D01*
X0217992Y0211961D01*
X0217998Y0211790D01*
X0218000Y0211618D01*
X0217998Y0211446D01*
X0217992Y0211275D01*
X0217981Y0211103D01*
X0217966Y0210932D01*
X0217947Y0210761D01*
X0217924Y0210591D01*
X0217897Y0210421D01*
X0217865Y0210252D01*
X0217830Y0210084D01*
X0217790Y0209917D01*
X0217746Y0209751D01*
X0217699Y0209586D01*
X0217647Y0209422D01*
X0217591Y0209260D01*
X0217531Y0209099D01*
X0217467Y0208939D01*
X0217399Y0208781D01*
X0217328Y0208625D01*
X0217253Y0208471D01*
X0217173Y0208318D01*
X0217091Y0208168D01*
X0217004Y0208019D01*
X0216914Y0207873D01*
X0216820Y0207729D01*
X0216723Y0207587D01*
X0216622Y0207448D01*
X0216518Y0207311D01*
X0216411Y0207177D01*
X0216300Y0207046D01*
X0216187Y0206917D01*
X0216070Y0206791D01*
X0215950Y0206668D01*
X0215827Y0206548D01*
X0215701Y0206431D01*
X0215572Y0206318D01*
X0215441Y0206207D01*
X0215307Y0206100D01*
X0215170Y0205996D01*
X0215031Y0205895D01*
X0214889Y0205798D01*
X0214745Y0205704D01*
X0214599Y0205614D01*
X0214450Y0205527D01*
X0214300Y0205445D01*
X0214147Y0205365D01*
X0213993Y0205290D01*
X0213837Y0205219D01*
X0213679Y0205151D01*
X0213519Y0205087D01*
X0213358Y0205027D01*
X0213196Y0204971D01*
X0213032Y0204919D01*
X0212867Y0204872D01*
X0212701Y0204828D01*
X0212534Y0204788D01*
X0212366Y0204753D01*
X0212197Y0204721D01*
X0212027Y0204694D01*
X0211857Y0204671D01*
X0211686Y0204652D01*
X0211515Y0204637D01*
X0211343Y0204626D01*
X0211172Y0204620D01*
X0211000Y0204618D01*
X0210828Y0204620D01*
X0210657Y0204626D01*
X0210485Y0204637D01*
X0210314Y0204652D01*
X0210143Y0204671D01*
X0209973Y0204694D01*
X0209803Y0204721D01*
X0209634Y0204753D01*
X0209466Y0204788D01*
X0209299Y0204828D01*
X0209133Y0204872D01*
X0208968Y0204919D01*
X0208804Y0204971D01*
X0208642Y0205027D01*
X0208481Y0205087D01*
X0208321Y0205151D01*
X0208163Y0205219D01*
X0208007Y0205290D01*
X0207853Y0205365D01*
X0207700Y0205445D01*
X0207550Y0205527D01*
X0207401Y0205614D01*
X0207255Y0205704D01*
X0207111Y0205798D01*
X0206969Y0205895D01*
X0206830Y0205996D01*
X0206693Y0206100D01*
X0206559Y0206207D01*
X0206428Y0206318D01*
X0206299Y0206431D01*
X0206173Y0206548D01*
X0206050Y0206668D01*
X0205930Y0206791D01*
X0205813Y0206917D01*
X0205700Y0207046D01*
X0205589Y0207177D01*
X0205482Y0207311D01*
X0205378Y0207448D01*
X0205277Y0207587D01*
X0205180Y0207729D01*
X0205086Y0207873D01*
X0204996Y0208019D01*
X0204909Y0208168D01*
X0204827Y0208318D01*
X0204747Y0208471D01*
X0204672Y0208625D01*
X0204601Y0208781D01*
X0204533Y0208939D01*
X0204469Y0209099D01*
X0204409Y0209260D01*
X0204353Y0209422D01*
X0204301Y0209586D01*
X0204254Y0209751D01*
X0204210Y0209917D01*
X0204170Y0210084D01*
X0204135Y0210252D01*
X0204103Y0210421D01*
X0204076Y0210591D01*
X0204053Y0210761D01*
X0204034Y0210932D01*
X0204019Y0211103D01*
X0204008Y0211275D01*
X0204002Y0211446D01*
X0204000Y0211618D01*
X0184000Y0208618D02*
X0184000Y0214618D01*
X0183000Y0214618D01*
X0183000Y0215618D01*
X0183000Y0208618D02*
X0183000Y0207618D01*
X0183000Y0208618D02*
X0184000Y0208618D01*
X0179500Y0199618D02*
X0175500Y0199618D01*
X0166000Y0199618D01*
X0162500Y0199618D01*
X0159000Y0207618D02*
X0159000Y0208618D01*
X0158000Y0208618D01*
X0158000Y0214618D01*
X0159000Y0214618D01*
X0159000Y0215618D01*
X0162500Y0223618D02*
X0166000Y0223618D01*
X0176000Y0223618D01*
X0179500Y0223618D01*
X0170000Y0211618D02*
X0170002Y0211681D01*
X0170008Y0211743D01*
X0170018Y0211805D01*
X0170031Y0211867D01*
X0170049Y0211927D01*
X0170070Y0211986D01*
X0170095Y0212044D01*
X0170124Y0212100D01*
X0170156Y0212154D01*
X0170191Y0212206D01*
X0170229Y0212255D01*
X0170271Y0212303D01*
X0170315Y0212347D01*
X0170363Y0212389D01*
X0170412Y0212427D01*
X0170464Y0212462D01*
X0170518Y0212494D01*
X0170574Y0212523D01*
X0170632Y0212548D01*
X0170691Y0212569D01*
X0170751Y0212587D01*
X0170813Y0212600D01*
X0170875Y0212610D01*
X0170937Y0212616D01*
X0171000Y0212618D01*
X0171063Y0212616D01*
X0171125Y0212610D01*
X0171187Y0212600D01*
X0171249Y0212587D01*
X0171309Y0212569D01*
X0171368Y0212548D01*
X0171426Y0212523D01*
X0171482Y0212494D01*
X0171536Y0212462D01*
X0171588Y0212427D01*
X0171637Y0212389D01*
X0171685Y0212347D01*
X0171729Y0212303D01*
X0171771Y0212255D01*
X0171809Y0212206D01*
X0171844Y0212154D01*
X0171876Y0212100D01*
X0171905Y0212044D01*
X0171930Y0211986D01*
X0171951Y0211927D01*
X0171969Y0211867D01*
X0171982Y0211805D01*
X0171992Y0211743D01*
X0171998Y0211681D01*
X0172000Y0211618D01*
X0171998Y0211555D01*
X0171992Y0211493D01*
X0171982Y0211431D01*
X0171969Y0211369D01*
X0171951Y0211309D01*
X0171930Y0211250D01*
X0171905Y0211192D01*
X0171876Y0211136D01*
X0171844Y0211082D01*
X0171809Y0211030D01*
X0171771Y0210981D01*
X0171729Y0210933D01*
X0171685Y0210889D01*
X0171637Y0210847D01*
X0171588Y0210809D01*
X0171536Y0210774D01*
X0171482Y0210742D01*
X0171426Y0210713D01*
X0171368Y0210688D01*
X0171309Y0210667D01*
X0171249Y0210649D01*
X0171187Y0210636D01*
X0171125Y0210626D01*
X0171063Y0210620D01*
X0171000Y0210618D01*
X0170937Y0210620D01*
X0170875Y0210626D01*
X0170813Y0210636D01*
X0170751Y0210649D01*
X0170691Y0210667D01*
X0170632Y0210688D01*
X0170574Y0210713D01*
X0170518Y0210742D01*
X0170464Y0210774D01*
X0170412Y0210809D01*
X0170363Y0210847D01*
X0170315Y0210889D01*
X0170271Y0210933D01*
X0170229Y0210981D01*
X0170191Y0211030D01*
X0170156Y0211082D01*
X0170124Y0211136D01*
X0170095Y0211192D01*
X0170070Y0211250D01*
X0170049Y0211309D01*
X0170031Y0211369D01*
X0170018Y0211431D01*
X0170008Y0211493D01*
X0170002Y0211555D01*
X0170000Y0211618D01*
X0164000Y0211618D02*
X0164002Y0211790D01*
X0164008Y0211961D01*
X0164019Y0212133D01*
X0164034Y0212304D01*
X0164053Y0212475D01*
X0164076Y0212645D01*
X0164103Y0212815D01*
X0164135Y0212984D01*
X0164170Y0213152D01*
X0164210Y0213319D01*
X0164254Y0213485D01*
X0164301Y0213650D01*
X0164353Y0213814D01*
X0164409Y0213976D01*
X0164469Y0214137D01*
X0164533Y0214297D01*
X0164601Y0214455D01*
X0164672Y0214611D01*
X0164747Y0214765D01*
X0164827Y0214918D01*
X0164909Y0215068D01*
X0164996Y0215217D01*
X0165086Y0215363D01*
X0165180Y0215507D01*
X0165277Y0215649D01*
X0165378Y0215788D01*
X0165482Y0215925D01*
X0165589Y0216059D01*
X0165700Y0216190D01*
X0165813Y0216319D01*
X0165930Y0216445D01*
X0166050Y0216568D01*
X0166173Y0216688D01*
X0166299Y0216805D01*
X0166428Y0216918D01*
X0166559Y0217029D01*
X0166693Y0217136D01*
X0166830Y0217240D01*
X0166969Y0217341D01*
X0167111Y0217438D01*
X0167255Y0217532D01*
X0167401Y0217622D01*
X0167550Y0217709D01*
X0167700Y0217791D01*
X0167853Y0217871D01*
X0168007Y0217946D01*
X0168163Y0218017D01*
X0168321Y0218085D01*
X0168481Y0218149D01*
X0168642Y0218209D01*
X0168804Y0218265D01*
X0168968Y0218317D01*
X0169133Y0218364D01*
X0169299Y0218408D01*
X0169466Y0218448D01*
X0169634Y0218483D01*
X0169803Y0218515D01*
X0169973Y0218542D01*
X0170143Y0218565D01*
X0170314Y0218584D01*
X0170485Y0218599D01*
X0170657Y0218610D01*
X0170828Y0218616D01*
X0171000Y0218618D01*
X0171172Y0218616D01*
X0171343Y0218610D01*
X0171515Y0218599D01*
X0171686Y0218584D01*
X0171857Y0218565D01*
X0172027Y0218542D01*
X0172197Y0218515D01*
X0172366Y0218483D01*
X0172534Y0218448D01*
X0172701Y0218408D01*
X0172867Y0218364D01*
X0173032Y0218317D01*
X0173196Y0218265D01*
X0173358Y0218209D01*
X0173519Y0218149D01*
X0173679Y0218085D01*
X0173837Y0218017D01*
X0173993Y0217946D01*
X0174147Y0217871D01*
X0174300Y0217791D01*
X0174450Y0217709D01*
X0174599Y0217622D01*
X0174745Y0217532D01*
X0174889Y0217438D01*
X0175031Y0217341D01*
X0175170Y0217240D01*
X0175307Y0217136D01*
X0175441Y0217029D01*
X0175572Y0216918D01*
X0175701Y0216805D01*
X0175827Y0216688D01*
X0175950Y0216568D01*
X0176070Y0216445D01*
X0176187Y0216319D01*
X0176300Y0216190D01*
X0176411Y0216059D01*
X0176518Y0215925D01*
X0176622Y0215788D01*
X0176723Y0215649D01*
X0176820Y0215507D01*
X0176914Y0215363D01*
X0177004Y0215217D01*
X0177091Y0215068D01*
X0177173Y0214918D01*
X0177253Y0214765D01*
X0177328Y0214611D01*
X0177399Y0214455D01*
X0177467Y0214297D01*
X0177531Y0214137D01*
X0177591Y0213976D01*
X0177647Y0213814D01*
X0177699Y0213650D01*
X0177746Y0213485D01*
X0177790Y0213319D01*
X0177830Y0213152D01*
X0177865Y0212984D01*
X0177897Y0212815D01*
X0177924Y0212645D01*
X0177947Y0212475D01*
X0177966Y0212304D01*
X0177981Y0212133D01*
X0177992Y0211961D01*
X0177998Y0211790D01*
X0178000Y0211618D01*
X0177998Y0211446D01*
X0177992Y0211275D01*
X0177981Y0211103D01*
X0177966Y0210932D01*
X0177947Y0210761D01*
X0177924Y0210591D01*
X0177897Y0210421D01*
X0177865Y0210252D01*
X0177830Y0210084D01*
X0177790Y0209917D01*
X0177746Y0209751D01*
X0177699Y0209586D01*
X0177647Y0209422D01*
X0177591Y0209260D01*
X0177531Y0209099D01*
X0177467Y0208939D01*
X0177399Y0208781D01*
X0177328Y0208625D01*
X0177253Y0208471D01*
X0177173Y0208318D01*
X0177091Y0208168D01*
X0177004Y0208019D01*
X0176914Y0207873D01*
X0176820Y0207729D01*
X0176723Y0207587D01*
X0176622Y0207448D01*
X0176518Y0207311D01*
X0176411Y0207177D01*
X0176300Y0207046D01*
X0176187Y0206917D01*
X0176070Y0206791D01*
X0175950Y0206668D01*
X0175827Y0206548D01*
X0175701Y0206431D01*
X0175572Y0206318D01*
X0175441Y0206207D01*
X0175307Y0206100D01*
X0175170Y0205996D01*
X0175031Y0205895D01*
X0174889Y0205798D01*
X0174745Y0205704D01*
X0174599Y0205614D01*
X0174450Y0205527D01*
X0174300Y0205445D01*
X0174147Y0205365D01*
X0173993Y0205290D01*
X0173837Y0205219D01*
X0173679Y0205151D01*
X0173519Y0205087D01*
X0173358Y0205027D01*
X0173196Y0204971D01*
X0173032Y0204919D01*
X0172867Y0204872D01*
X0172701Y0204828D01*
X0172534Y0204788D01*
X0172366Y0204753D01*
X0172197Y0204721D01*
X0172027Y0204694D01*
X0171857Y0204671D01*
X0171686Y0204652D01*
X0171515Y0204637D01*
X0171343Y0204626D01*
X0171172Y0204620D01*
X0171000Y0204618D01*
X0170828Y0204620D01*
X0170657Y0204626D01*
X0170485Y0204637D01*
X0170314Y0204652D01*
X0170143Y0204671D01*
X0169973Y0204694D01*
X0169803Y0204721D01*
X0169634Y0204753D01*
X0169466Y0204788D01*
X0169299Y0204828D01*
X0169133Y0204872D01*
X0168968Y0204919D01*
X0168804Y0204971D01*
X0168642Y0205027D01*
X0168481Y0205087D01*
X0168321Y0205151D01*
X0168163Y0205219D01*
X0168007Y0205290D01*
X0167853Y0205365D01*
X0167700Y0205445D01*
X0167550Y0205527D01*
X0167401Y0205614D01*
X0167255Y0205704D01*
X0167111Y0205798D01*
X0166969Y0205895D01*
X0166830Y0205996D01*
X0166693Y0206100D01*
X0166559Y0206207D01*
X0166428Y0206318D01*
X0166299Y0206431D01*
X0166173Y0206548D01*
X0166050Y0206668D01*
X0165930Y0206791D01*
X0165813Y0206917D01*
X0165700Y0207046D01*
X0165589Y0207177D01*
X0165482Y0207311D01*
X0165378Y0207448D01*
X0165277Y0207587D01*
X0165180Y0207729D01*
X0165086Y0207873D01*
X0164996Y0208019D01*
X0164909Y0208168D01*
X0164827Y0208318D01*
X0164747Y0208471D01*
X0164672Y0208625D01*
X0164601Y0208781D01*
X0164533Y0208939D01*
X0164469Y0209099D01*
X0164409Y0209260D01*
X0164353Y0209422D01*
X0164301Y0209586D01*
X0164254Y0209751D01*
X0164210Y0209917D01*
X0164170Y0210084D01*
X0164135Y0210252D01*
X0164103Y0210421D01*
X0164076Y0210591D01*
X0164053Y0210761D01*
X0164034Y0210932D01*
X0164019Y0211103D01*
X0164008Y0211275D01*
X0164002Y0211446D01*
X0164000Y0211618D01*
X0144000Y0208618D02*
X0144000Y0214618D01*
X0143000Y0214618D01*
X0143000Y0215618D01*
X0143000Y0208618D02*
X0143000Y0207618D01*
X0143000Y0208618D02*
X0144000Y0208618D01*
X0139500Y0199618D02*
X0135500Y0199618D01*
X0126000Y0199618D01*
X0122500Y0199618D01*
X0119000Y0207618D02*
X0119000Y0208618D01*
X0118000Y0208618D01*
X0118000Y0214618D01*
X0119000Y0214618D01*
X0119000Y0215618D01*
X0122500Y0223618D02*
X0126000Y0223618D01*
X0136000Y0223618D01*
X0139500Y0223618D01*
X0130000Y0211618D02*
X0130002Y0211681D01*
X0130008Y0211743D01*
X0130018Y0211805D01*
X0130031Y0211867D01*
X0130049Y0211927D01*
X0130070Y0211986D01*
X0130095Y0212044D01*
X0130124Y0212100D01*
X0130156Y0212154D01*
X0130191Y0212206D01*
X0130229Y0212255D01*
X0130271Y0212303D01*
X0130315Y0212347D01*
X0130363Y0212389D01*
X0130412Y0212427D01*
X0130464Y0212462D01*
X0130518Y0212494D01*
X0130574Y0212523D01*
X0130632Y0212548D01*
X0130691Y0212569D01*
X0130751Y0212587D01*
X0130813Y0212600D01*
X0130875Y0212610D01*
X0130937Y0212616D01*
X0131000Y0212618D01*
X0131063Y0212616D01*
X0131125Y0212610D01*
X0131187Y0212600D01*
X0131249Y0212587D01*
X0131309Y0212569D01*
X0131368Y0212548D01*
X0131426Y0212523D01*
X0131482Y0212494D01*
X0131536Y0212462D01*
X0131588Y0212427D01*
X0131637Y0212389D01*
X0131685Y0212347D01*
X0131729Y0212303D01*
X0131771Y0212255D01*
X0131809Y0212206D01*
X0131844Y0212154D01*
X0131876Y0212100D01*
X0131905Y0212044D01*
X0131930Y0211986D01*
X0131951Y0211927D01*
X0131969Y0211867D01*
X0131982Y0211805D01*
X0131992Y0211743D01*
X0131998Y0211681D01*
X0132000Y0211618D01*
X0131998Y0211555D01*
X0131992Y0211493D01*
X0131982Y0211431D01*
X0131969Y0211369D01*
X0131951Y0211309D01*
X0131930Y0211250D01*
X0131905Y0211192D01*
X0131876Y0211136D01*
X0131844Y0211082D01*
X0131809Y0211030D01*
X0131771Y0210981D01*
X0131729Y0210933D01*
X0131685Y0210889D01*
X0131637Y0210847D01*
X0131588Y0210809D01*
X0131536Y0210774D01*
X0131482Y0210742D01*
X0131426Y0210713D01*
X0131368Y0210688D01*
X0131309Y0210667D01*
X0131249Y0210649D01*
X0131187Y0210636D01*
X0131125Y0210626D01*
X0131063Y0210620D01*
X0131000Y0210618D01*
X0130937Y0210620D01*
X0130875Y0210626D01*
X0130813Y0210636D01*
X0130751Y0210649D01*
X0130691Y0210667D01*
X0130632Y0210688D01*
X0130574Y0210713D01*
X0130518Y0210742D01*
X0130464Y0210774D01*
X0130412Y0210809D01*
X0130363Y0210847D01*
X0130315Y0210889D01*
X0130271Y0210933D01*
X0130229Y0210981D01*
X0130191Y0211030D01*
X0130156Y0211082D01*
X0130124Y0211136D01*
X0130095Y0211192D01*
X0130070Y0211250D01*
X0130049Y0211309D01*
X0130031Y0211369D01*
X0130018Y0211431D01*
X0130008Y0211493D01*
X0130002Y0211555D01*
X0130000Y0211618D01*
X0124000Y0211618D02*
X0124002Y0211790D01*
X0124008Y0211961D01*
X0124019Y0212133D01*
X0124034Y0212304D01*
X0124053Y0212475D01*
X0124076Y0212645D01*
X0124103Y0212815D01*
X0124135Y0212984D01*
X0124170Y0213152D01*
X0124210Y0213319D01*
X0124254Y0213485D01*
X0124301Y0213650D01*
X0124353Y0213814D01*
X0124409Y0213976D01*
X0124469Y0214137D01*
X0124533Y0214297D01*
X0124601Y0214455D01*
X0124672Y0214611D01*
X0124747Y0214765D01*
X0124827Y0214918D01*
X0124909Y0215068D01*
X0124996Y0215217D01*
X0125086Y0215363D01*
X0125180Y0215507D01*
X0125277Y0215649D01*
X0125378Y0215788D01*
X0125482Y0215925D01*
X0125589Y0216059D01*
X0125700Y0216190D01*
X0125813Y0216319D01*
X0125930Y0216445D01*
X0126050Y0216568D01*
X0126173Y0216688D01*
X0126299Y0216805D01*
X0126428Y0216918D01*
X0126559Y0217029D01*
X0126693Y0217136D01*
X0126830Y0217240D01*
X0126969Y0217341D01*
X0127111Y0217438D01*
X0127255Y0217532D01*
X0127401Y0217622D01*
X0127550Y0217709D01*
X0127700Y0217791D01*
X0127853Y0217871D01*
X0128007Y0217946D01*
X0128163Y0218017D01*
X0128321Y0218085D01*
X0128481Y0218149D01*
X0128642Y0218209D01*
X0128804Y0218265D01*
X0128968Y0218317D01*
X0129133Y0218364D01*
X0129299Y0218408D01*
X0129466Y0218448D01*
X0129634Y0218483D01*
X0129803Y0218515D01*
X0129973Y0218542D01*
X0130143Y0218565D01*
X0130314Y0218584D01*
X0130485Y0218599D01*
X0130657Y0218610D01*
X0130828Y0218616D01*
X0131000Y0218618D01*
X0131172Y0218616D01*
X0131343Y0218610D01*
X0131515Y0218599D01*
X0131686Y0218584D01*
X0131857Y0218565D01*
X0132027Y0218542D01*
X0132197Y0218515D01*
X0132366Y0218483D01*
X0132534Y0218448D01*
X0132701Y0218408D01*
X0132867Y0218364D01*
X0133032Y0218317D01*
X0133196Y0218265D01*
X0133358Y0218209D01*
X0133519Y0218149D01*
X0133679Y0218085D01*
X0133837Y0218017D01*
X0133993Y0217946D01*
X0134147Y0217871D01*
X0134300Y0217791D01*
X0134450Y0217709D01*
X0134599Y0217622D01*
X0134745Y0217532D01*
X0134889Y0217438D01*
X0135031Y0217341D01*
X0135170Y0217240D01*
X0135307Y0217136D01*
X0135441Y0217029D01*
X0135572Y0216918D01*
X0135701Y0216805D01*
X0135827Y0216688D01*
X0135950Y0216568D01*
X0136070Y0216445D01*
X0136187Y0216319D01*
X0136300Y0216190D01*
X0136411Y0216059D01*
X0136518Y0215925D01*
X0136622Y0215788D01*
X0136723Y0215649D01*
X0136820Y0215507D01*
X0136914Y0215363D01*
X0137004Y0215217D01*
X0137091Y0215068D01*
X0137173Y0214918D01*
X0137253Y0214765D01*
X0137328Y0214611D01*
X0137399Y0214455D01*
X0137467Y0214297D01*
X0137531Y0214137D01*
X0137591Y0213976D01*
X0137647Y0213814D01*
X0137699Y0213650D01*
X0137746Y0213485D01*
X0137790Y0213319D01*
X0137830Y0213152D01*
X0137865Y0212984D01*
X0137897Y0212815D01*
X0137924Y0212645D01*
X0137947Y0212475D01*
X0137966Y0212304D01*
X0137981Y0212133D01*
X0137992Y0211961D01*
X0137998Y0211790D01*
X0138000Y0211618D01*
X0137998Y0211446D01*
X0137992Y0211275D01*
X0137981Y0211103D01*
X0137966Y0210932D01*
X0137947Y0210761D01*
X0137924Y0210591D01*
X0137897Y0210421D01*
X0137865Y0210252D01*
X0137830Y0210084D01*
X0137790Y0209917D01*
X0137746Y0209751D01*
X0137699Y0209586D01*
X0137647Y0209422D01*
X0137591Y0209260D01*
X0137531Y0209099D01*
X0137467Y0208939D01*
X0137399Y0208781D01*
X0137328Y0208625D01*
X0137253Y0208471D01*
X0137173Y0208318D01*
X0137091Y0208168D01*
X0137004Y0208019D01*
X0136914Y0207873D01*
X0136820Y0207729D01*
X0136723Y0207587D01*
X0136622Y0207448D01*
X0136518Y0207311D01*
X0136411Y0207177D01*
X0136300Y0207046D01*
X0136187Y0206917D01*
X0136070Y0206791D01*
X0135950Y0206668D01*
X0135827Y0206548D01*
X0135701Y0206431D01*
X0135572Y0206318D01*
X0135441Y0206207D01*
X0135307Y0206100D01*
X0135170Y0205996D01*
X0135031Y0205895D01*
X0134889Y0205798D01*
X0134745Y0205704D01*
X0134599Y0205614D01*
X0134450Y0205527D01*
X0134300Y0205445D01*
X0134147Y0205365D01*
X0133993Y0205290D01*
X0133837Y0205219D01*
X0133679Y0205151D01*
X0133519Y0205087D01*
X0133358Y0205027D01*
X0133196Y0204971D01*
X0133032Y0204919D01*
X0132867Y0204872D01*
X0132701Y0204828D01*
X0132534Y0204788D01*
X0132366Y0204753D01*
X0132197Y0204721D01*
X0132027Y0204694D01*
X0131857Y0204671D01*
X0131686Y0204652D01*
X0131515Y0204637D01*
X0131343Y0204626D01*
X0131172Y0204620D01*
X0131000Y0204618D01*
X0130828Y0204620D01*
X0130657Y0204626D01*
X0130485Y0204637D01*
X0130314Y0204652D01*
X0130143Y0204671D01*
X0129973Y0204694D01*
X0129803Y0204721D01*
X0129634Y0204753D01*
X0129466Y0204788D01*
X0129299Y0204828D01*
X0129133Y0204872D01*
X0128968Y0204919D01*
X0128804Y0204971D01*
X0128642Y0205027D01*
X0128481Y0205087D01*
X0128321Y0205151D01*
X0128163Y0205219D01*
X0128007Y0205290D01*
X0127853Y0205365D01*
X0127700Y0205445D01*
X0127550Y0205527D01*
X0127401Y0205614D01*
X0127255Y0205704D01*
X0127111Y0205798D01*
X0126969Y0205895D01*
X0126830Y0205996D01*
X0126693Y0206100D01*
X0126559Y0206207D01*
X0126428Y0206318D01*
X0126299Y0206431D01*
X0126173Y0206548D01*
X0126050Y0206668D01*
X0125930Y0206791D01*
X0125813Y0206917D01*
X0125700Y0207046D01*
X0125589Y0207177D01*
X0125482Y0207311D01*
X0125378Y0207448D01*
X0125277Y0207587D01*
X0125180Y0207729D01*
X0125086Y0207873D01*
X0124996Y0208019D01*
X0124909Y0208168D01*
X0124827Y0208318D01*
X0124747Y0208471D01*
X0124672Y0208625D01*
X0124601Y0208781D01*
X0124533Y0208939D01*
X0124469Y0209099D01*
X0124409Y0209260D01*
X0124353Y0209422D01*
X0124301Y0209586D01*
X0124254Y0209751D01*
X0124210Y0209917D01*
X0124170Y0210084D01*
X0124135Y0210252D01*
X0124103Y0210421D01*
X0124076Y0210591D01*
X0124053Y0210761D01*
X0124034Y0210932D01*
X0124019Y0211103D01*
X0124008Y0211275D01*
X0124002Y0211446D01*
X0124000Y0211618D01*
X0104000Y0208618D02*
X0104000Y0214618D01*
X0103000Y0214618D01*
X0103000Y0215618D01*
X0103000Y0208618D02*
X0103000Y0207618D01*
X0103000Y0208618D02*
X0104000Y0208618D01*
X0099500Y0199618D02*
X0095500Y0199618D01*
X0086000Y0199618D01*
X0082500Y0199618D01*
X0079000Y0207618D02*
X0079000Y0208618D01*
X0078000Y0208618D01*
X0078000Y0214618D01*
X0079000Y0214618D01*
X0079000Y0215618D01*
X0082500Y0223618D02*
X0086000Y0223618D01*
X0096000Y0223618D01*
X0099500Y0223618D01*
X0090000Y0211618D02*
X0090002Y0211681D01*
X0090008Y0211743D01*
X0090018Y0211805D01*
X0090031Y0211867D01*
X0090049Y0211927D01*
X0090070Y0211986D01*
X0090095Y0212044D01*
X0090124Y0212100D01*
X0090156Y0212154D01*
X0090191Y0212206D01*
X0090229Y0212255D01*
X0090271Y0212303D01*
X0090315Y0212347D01*
X0090363Y0212389D01*
X0090412Y0212427D01*
X0090464Y0212462D01*
X0090518Y0212494D01*
X0090574Y0212523D01*
X0090632Y0212548D01*
X0090691Y0212569D01*
X0090751Y0212587D01*
X0090813Y0212600D01*
X0090875Y0212610D01*
X0090937Y0212616D01*
X0091000Y0212618D01*
X0091063Y0212616D01*
X0091125Y0212610D01*
X0091187Y0212600D01*
X0091249Y0212587D01*
X0091309Y0212569D01*
X0091368Y0212548D01*
X0091426Y0212523D01*
X0091482Y0212494D01*
X0091536Y0212462D01*
X0091588Y0212427D01*
X0091637Y0212389D01*
X0091685Y0212347D01*
X0091729Y0212303D01*
X0091771Y0212255D01*
X0091809Y0212206D01*
X0091844Y0212154D01*
X0091876Y0212100D01*
X0091905Y0212044D01*
X0091930Y0211986D01*
X0091951Y0211927D01*
X0091969Y0211867D01*
X0091982Y0211805D01*
X0091992Y0211743D01*
X0091998Y0211681D01*
X0092000Y0211618D01*
X0091998Y0211555D01*
X0091992Y0211493D01*
X0091982Y0211431D01*
X0091969Y0211369D01*
X0091951Y0211309D01*
X0091930Y0211250D01*
X0091905Y0211192D01*
X0091876Y0211136D01*
X0091844Y0211082D01*
X0091809Y0211030D01*
X0091771Y0210981D01*
X0091729Y0210933D01*
X0091685Y0210889D01*
X0091637Y0210847D01*
X0091588Y0210809D01*
X0091536Y0210774D01*
X0091482Y0210742D01*
X0091426Y0210713D01*
X0091368Y0210688D01*
X0091309Y0210667D01*
X0091249Y0210649D01*
X0091187Y0210636D01*
X0091125Y0210626D01*
X0091063Y0210620D01*
X0091000Y0210618D01*
X0090937Y0210620D01*
X0090875Y0210626D01*
X0090813Y0210636D01*
X0090751Y0210649D01*
X0090691Y0210667D01*
X0090632Y0210688D01*
X0090574Y0210713D01*
X0090518Y0210742D01*
X0090464Y0210774D01*
X0090412Y0210809D01*
X0090363Y0210847D01*
X0090315Y0210889D01*
X0090271Y0210933D01*
X0090229Y0210981D01*
X0090191Y0211030D01*
X0090156Y0211082D01*
X0090124Y0211136D01*
X0090095Y0211192D01*
X0090070Y0211250D01*
X0090049Y0211309D01*
X0090031Y0211369D01*
X0090018Y0211431D01*
X0090008Y0211493D01*
X0090002Y0211555D01*
X0090000Y0211618D01*
X0084000Y0211618D02*
X0084002Y0211790D01*
X0084008Y0211961D01*
X0084019Y0212133D01*
X0084034Y0212304D01*
X0084053Y0212475D01*
X0084076Y0212645D01*
X0084103Y0212815D01*
X0084135Y0212984D01*
X0084170Y0213152D01*
X0084210Y0213319D01*
X0084254Y0213485D01*
X0084301Y0213650D01*
X0084353Y0213814D01*
X0084409Y0213976D01*
X0084469Y0214137D01*
X0084533Y0214297D01*
X0084601Y0214455D01*
X0084672Y0214611D01*
X0084747Y0214765D01*
X0084827Y0214918D01*
X0084909Y0215068D01*
X0084996Y0215217D01*
X0085086Y0215363D01*
X0085180Y0215507D01*
X0085277Y0215649D01*
X0085378Y0215788D01*
X0085482Y0215925D01*
X0085589Y0216059D01*
X0085700Y0216190D01*
X0085813Y0216319D01*
X0085930Y0216445D01*
X0086050Y0216568D01*
X0086173Y0216688D01*
X0086299Y0216805D01*
X0086428Y0216918D01*
X0086559Y0217029D01*
X0086693Y0217136D01*
X0086830Y0217240D01*
X0086969Y0217341D01*
X0087111Y0217438D01*
X0087255Y0217532D01*
X0087401Y0217622D01*
X0087550Y0217709D01*
X0087700Y0217791D01*
X0087853Y0217871D01*
X0088007Y0217946D01*
X0088163Y0218017D01*
X0088321Y0218085D01*
X0088481Y0218149D01*
X0088642Y0218209D01*
X0088804Y0218265D01*
X0088968Y0218317D01*
X0089133Y0218364D01*
X0089299Y0218408D01*
X0089466Y0218448D01*
X0089634Y0218483D01*
X0089803Y0218515D01*
X0089973Y0218542D01*
X0090143Y0218565D01*
X0090314Y0218584D01*
X0090485Y0218599D01*
X0090657Y0218610D01*
X0090828Y0218616D01*
X0091000Y0218618D01*
X0091172Y0218616D01*
X0091343Y0218610D01*
X0091515Y0218599D01*
X0091686Y0218584D01*
X0091857Y0218565D01*
X0092027Y0218542D01*
X0092197Y0218515D01*
X0092366Y0218483D01*
X0092534Y0218448D01*
X0092701Y0218408D01*
X0092867Y0218364D01*
X0093032Y0218317D01*
X0093196Y0218265D01*
X0093358Y0218209D01*
X0093519Y0218149D01*
X0093679Y0218085D01*
X0093837Y0218017D01*
X0093993Y0217946D01*
X0094147Y0217871D01*
X0094300Y0217791D01*
X0094450Y0217709D01*
X0094599Y0217622D01*
X0094745Y0217532D01*
X0094889Y0217438D01*
X0095031Y0217341D01*
X0095170Y0217240D01*
X0095307Y0217136D01*
X0095441Y0217029D01*
X0095572Y0216918D01*
X0095701Y0216805D01*
X0095827Y0216688D01*
X0095950Y0216568D01*
X0096070Y0216445D01*
X0096187Y0216319D01*
X0096300Y0216190D01*
X0096411Y0216059D01*
X0096518Y0215925D01*
X0096622Y0215788D01*
X0096723Y0215649D01*
X0096820Y0215507D01*
X0096914Y0215363D01*
X0097004Y0215217D01*
X0097091Y0215068D01*
X0097173Y0214918D01*
X0097253Y0214765D01*
X0097328Y0214611D01*
X0097399Y0214455D01*
X0097467Y0214297D01*
X0097531Y0214137D01*
X0097591Y0213976D01*
X0097647Y0213814D01*
X0097699Y0213650D01*
X0097746Y0213485D01*
X0097790Y0213319D01*
X0097830Y0213152D01*
X0097865Y0212984D01*
X0097897Y0212815D01*
X0097924Y0212645D01*
X0097947Y0212475D01*
X0097966Y0212304D01*
X0097981Y0212133D01*
X0097992Y0211961D01*
X0097998Y0211790D01*
X0098000Y0211618D01*
X0097998Y0211446D01*
X0097992Y0211275D01*
X0097981Y0211103D01*
X0097966Y0210932D01*
X0097947Y0210761D01*
X0097924Y0210591D01*
X0097897Y0210421D01*
X0097865Y0210252D01*
X0097830Y0210084D01*
X0097790Y0209917D01*
X0097746Y0209751D01*
X0097699Y0209586D01*
X0097647Y0209422D01*
X0097591Y0209260D01*
X0097531Y0209099D01*
X0097467Y0208939D01*
X0097399Y0208781D01*
X0097328Y0208625D01*
X0097253Y0208471D01*
X0097173Y0208318D01*
X0097091Y0208168D01*
X0097004Y0208019D01*
X0096914Y0207873D01*
X0096820Y0207729D01*
X0096723Y0207587D01*
X0096622Y0207448D01*
X0096518Y0207311D01*
X0096411Y0207177D01*
X0096300Y0207046D01*
X0096187Y0206917D01*
X0096070Y0206791D01*
X0095950Y0206668D01*
X0095827Y0206548D01*
X0095701Y0206431D01*
X0095572Y0206318D01*
X0095441Y0206207D01*
X0095307Y0206100D01*
X0095170Y0205996D01*
X0095031Y0205895D01*
X0094889Y0205798D01*
X0094745Y0205704D01*
X0094599Y0205614D01*
X0094450Y0205527D01*
X0094300Y0205445D01*
X0094147Y0205365D01*
X0093993Y0205290D01*
X0093837Y0205219D01*
X0093679Y0205151D01*
X0093519Y0205087D01*
X0093358Y0205027D01*
X0093196Y0204971D01*
X0093032Y0204919D01*
X0092867Y0204872D01*
X0092701Y0204828D01*
X0092534Y0204788D01*
X0092366Y0204753D01*
X0092197Y0204721D01*
X0092027Y0204694D01*
X0091857Y0204671D01*
X0091686Y0204652D01*
X0091515Y0204637D01*
X0091343Y0204626D01*
X0091172Y0204620D01*
X0091000Y0204618D01*
X0090828Y0204620D01*
X0090657Y0204626D01*
X0090485Y0204637D01*
X0090314Y0204652D01*
X0090143Y0204671D01*
X0089973Y0204694D01*
X0089803Y0204721D01*
X0089634Y0204753D01*
X0089466Y0204788D01*
X0089299Y0204828D01*
X0089133Y0204872D01*
X0088968Y0204919D01*
X0088804Y0204971D01*
X0088642Y0205027D01*
X0088481Y0205087D01*
X0088321Y0205151D01*
X0088163Y0205219D01*
X0088007Y0205290D01*
X0087853Y0205365D01*
X0087700Y0205445D01*
X0087550Y0205527D01*
X0087401Y0205614D01*
X0087255Y0205704D01*
X0087111Y0205798D01*
X0086969Y0205895D01*
X0086830Y0205996D01*
X0086693Y0206100D01*
X0086559Y0206207D01*
X0086428Y0206318D01*
X0086299Y0206431D01*
X0086173Y0206548D01*
X0086050Y0206668D01*
X0085930Y0206791D01*
X0085813Y0206917D01*
X0085700Y0207046D01*
X0085589Y0207177D01*
X0085482Y0207311D01*
X0085378Y0207448D01*
X0085277Y0207587D01*
X0085180Y0207729D01*
X0085086Y0207873D01*
X0084996Y0208019D01*
X0084909Y0208168D01*
X0084827Y0208318D01*
X0084747Y0208471D01*
X0084672Y0208625D01*
X0084601Y0208781D01*
X0084533Y0208939D01*
X0084469Y0209099D01*
X0084409Y0209260D01*
X0084353Y0209422D01*
X0084301Y0209586D01*
X0084254Y0209751D01*
X0084210Y0209917D01*
X0084170Y0210084D01*
X0084135Y0210252D01*
X0084103Y0210421D01*
X0084076Y0210591D01*
X0084053Y0210761D01*
X0084034Y0210932D01*
X0084019Y0211103D01*
X0084008Y0211275D01*
X0084002Y0211446D01*
X0084000Y0211618D01*
X0063500Y0195118D02*
X0063500Y0188118D01*
X0063498Y0188058D01*
X0063493Y0187997D01*
X0063484Y0187938D01*
X0063471Y0187879D01*
X0063455Y0187820D01*
X0063435Y0187763D01*
X0063412Y0187708D01*
X0063385Y0187653D01*
X0063356Y0187601D01*
X0063323Y0187550D01*
X0063287Y0187501D01*
X0063249Y0187455D01*
X0063207Y0187411D01*
X0063163Y0187369D01*
X0063117Y0187331D01*
X0063068Y0187295D01*
X0063017Y0187262D01*
X0062965Y0187233D01*
X0062910Y0187206D01*
X0062855Y0187183D01*
X0062798Y0187163D01*
X0062739Y0187147D01*
X0062680Y0187134D01*
X0062621Y0187125D01*
X0062560Y0187120D01*
X0062500Y0187118D01*
X0061000Y0187118D01*
X0060500Y0187618D01*
X0041500Y0187618D01*
X0041000Y0187118D01*
X0039500Y0187118D01*
X0039440Y0187120D01*
X0039379Y0187125D01*
X0039320Y0187134D01*
X0039261Y0187147D01*
X0039202Y0187163D01*
X0039145Y0187183D01*
X0039090Y0187206D01*
X0039035Y0187233D01*
X0038983Y0187262D01*
X0038932Y0187295D01*
X0038883Y0187331D01*
X0038837Y0187369D01*
X0038793Y0187411D01*
X0038751Y0187455D01*
X0038713Y0187501D01*
X0038677Y0187550D01*
X0038644Y0187601D01*
X0038615Y0187653D01*
X0038588Y0187708D01*
X0038565Y0187763D01*
X0038545Y0187820D01*
X0038529Y0187879D01*
X0038516Y0187938D01*
X0038507Y0187997D01*
X0038502Y0188058D01*
X0038500Y0188118D01*
X0038500Y0195118D01*
X0038502Y0195178D01*
X0038507Y0195239D01*
X0038516Y0195298D01*
X0038529Y0195357D01*
X0038545Y0195416D01*
X0038565Y0195473D01*
X0038588Y0195528D01*
X0038615Y0195583D01*
X0038644Y0195635D01*
X0038677Y0195686D01*
X0038713Y0195735D01*
X0038751Y0195781D01*
X0038793Y0195825D01*
X0038837Y0195867D01*
X0038883Y0195905D01*
X0038932Y0195941D01*
X0038983Y0195974D01*
X0039035Y0196003D01*
X0039090Y0196030D01*
X0039145Y0196053D01*
X0039202Y0196073D01*
X0039261Y0196089D01*
X0039320Y0196102D01*
X0039379Y0196111D01*
X0039440Y0196116D01*
X0039500Y0196118D01*
X0041000Y0196118D01*
X0041500Y0195618D01*
X0060500Y0195618D01*
X0061000Y0196118D01*
X0062500Y0196118D01*
X0062560Y0196116D01*
X0062621Y0196111D01*
X0062680Y0196102D01*
X0062739Y0196089D01*
X0062798Y0196073D01*
X0062855Y0196053D01*
X0062910Y0196030D01*
X0062965Y0196003D01*
X0063017Y0195974D01*
X0063068Y0195941D01*
X0063117Y0195905D01*
X0063163Y0195867D01*
X0063207Y0195825D01*
X0063249Y0195781D01*
X0063287Y0195735D01*
X0063323Y0195686D01*
X0063356Y0195635D01*
X0063385Y0195583D01*
X0063412Y0195528D01*
X0063435Y0195473D01*
X0063455Y0195416D01*
X0063471Y0195357D01*
X0063484Y0195298D01*
X0063493Y0195239D01*
X0063498Y0195178D01*
X0063500Y0195118D01*
X0077500Y0174118D02*
X0084500Y0174118D01*
X0084560Y0174116D01*
X0084621Y0174111D01*
X0084680Y0174102D01*
X0084739Y0174089D01*
X0084798Y0174073D01*
X0084855Y0174053D01*
X0084910Y0174030D01*
X0084965Y0174003D01*
X0085017Y0173974D01*
X0085068Y0173941D01*
X0085117Y0173905D01*
X0085163Y0173867D01*
X0085207Y0173825D01*
X0085249Y0173781D01*
X0085287Y0173735D01*
X0085323Y0173686D01*
X0085356Y0173635D01*
X0085385Y0173583D01*
X0085412Y0173528D01*
X0085435Y0173473D01*
X0085455Y0173416D01*
X0085471Y0173357D01*
X0085484Y0173298D01*
X0085493Y0173239D01*
X0085498Y0173178D01*
X0085500Y0173118D01*
X0085500Y0171618D01*
X0085000Y0171118D01*
X0085000Y0152118D01*
X0085500Y0151618D01*
X0085500Y0150118D01*
X0085498Y0150058D01*
X0085493Y0149997D01*
X0085484Y0149938D01*
X0085471Y0149879D01*
X0085455Y0149820D01*
X0085435Y0149763D01*
X0085412Y0149708D01*
X0085385Y0149653D01*
X0085356Y0149601D01*
X0085323Y0149550D01*
X0085287Y0149501D01*
X0085249Y0149455D01*
X0085207Y0149411D01*
X0085163Y0149369D01*
X0085117Y0149331D01*
X0085068Y0149295D01*
X0085017Y0149262D01*
X0084965Y0149233D01*
X0084910Y0149206D01*
X0084855Y0149183D01*
X0084798Y0149163D01*
X0084739Y0149147D01*
X0084680Y0149134D01*
X0084621Y0149125D01*
X0084560Y0149120D01*
X0084500Y0149118D01*
X0077500Y0149118D01*
X0077440Y0149120D01*
X0077379Y0149125D01*
X0077320Y0149134D01*
X0077261Y0149147D01*
X0077202Y0149163D01*
X0077145Y0149183D01*
X0077090Y0149206D01*
X0077035Y0149233D01*
X0076983Y0149262D01*
X0076932Y0149295D01*
X0076883Y0149331D01*
X0076837Y0149369D01*
X0076793Y0149411D01*
X0076751Y0149455D01*
X0076713Y0149501D01*
X0076677Y0149550D01*
X0076644Y0149601D01*
X0076615Y0149653D01*
X0076588Y0149708D01*
X0076565Y0149763D01*
X0076545Y0149820D01*
X0076529Y0149879D01*
X0076516Y0149938D01*
X0076507Y0149997D01*
X0076502Y0150058D01*
X0076500Y0150118D01*
X0076500Y0151618D01*
X0077000Y0152118D01*
X0077000Y0171118D01*
X0076500Y0171618D01*
X0076500Y0173118D01*
X0076502Y0173178D01*
X0076507Y0173239D01*
X0076516Y0173298D01*
X0076529Y0173357D01*
X0076545Y0173416D01*
X0076565Y0173473D01*
X0076588Y0173528D01*
X0076615Y0173583D01*
X0076644Y0173635D01*
X0076677Y0173686D01*
X0076713Y0173735D01*
X0076751Y0173781D01*
X0076793Y0173825D01*
X0076837Y0173867D01*
X0076883Y0173905D01*
X0076932Y0173941D01*
X0076983Y0173974D01*
X0077035Y0174003D01*
X0077090Y0174030D01*
X0077145Y0174053D01*
X0077202Y0174073D01*
X0077261Y0174089D01*
X0077320Y0174102D01*
X0077379Y0174111D01*
X0077440Y0174116D01*
X0077500Y0174118D01*
X0068000Y0165118D02*
X0068000Y0161118D01*
X0068000Y0151618D01*
X0068000Y0148118D01*
X0060000Y0144618D02*
X0059000Y0144618D01*
X0059000Y0143618D01*
X0053000Y0143618D01*
X0053000Y0144618D01*
X0052000Y0144618D01*
X0044000Y0148118D02*
X0044000Y0151618D01*
X0044000Y0161618D01*
X0044000Y0165118D01*
X0052000Y0168618D02*
X0053000Y0168618D01*
X0053000Y0169618D01*
X0059000Y0169618D01*
X0059000Y0168618D01*
X0060000Y0168618D01*
X0055000Y0156618D02*
X0055002Y0156681D01*
X0055008Y0156743D01*
X0055018Y0156805D01*
X0055031Y0156867D01*
X0055049Y0156927D01*
X0055070Y0156986D01*
X0055095Y0157044D01*
X0055124Y0157100D01*
X0055156Y0157154D01*
X0055191Y0157206D01*
X0055229Y0157255D01*
X0055271Y0157303D01*
X0055315Y0157347D01*
X0055363Y0157389D01*
X0055412Y0157427D01*
X0055464Y0157462D01*
X0055518Y0157494D01*
X0055574Y0157523D01*
X0055632Y0157548D01*
X0055691Y0157569D01*
X0055751Y0157587D01*
X0055813Y0157600D01*
X0055875Y0157610D01*
X0055937Y0157616D01*
X0056000Y0157618D01*
X0056063Y0157616D01*
X0056125Y0157610D01*
X0056187Y0157600D01*
X0056249Y0157587D01*
X0056309Y0157569D01*
X0056368Y0157548D01*
X0056426Y0157523D01*
X0056482Y0157494D01*
X0056536Y0157462D01*
X0056588Y0157427D01*
X0056637Y0157389D01*
X0056685Y0157347D01*
X0056729Y0157303D01*
X0056771Y0157255D01*
X0056809Y0157206D01*
X0056844Y0157154D01*
X0056876Y0157100D01*
X0056905Y0157044D01*
X0056930Y0156986D01*
X0056951Y0156927D01*
X0056969Y0156867D01*
X0056982Y0156805D01*
X0056992Y0156743D01*
X0056998Y0156681D01*
X0057000Y0156618D01*
X0056998Y0156555D01*
X0056992Y0156493D01*
X0056982Y0156431D01*
X0056969Y0156369D01*
X0056951Y0156309D01*
X0056930Y0156250D01*
X0056905Y0156192D01*
X0056876Y0156136D01*
X0056844Y0156082D01*
X0056809Y0156030D01*
X0056771Y0155981D01*
X0056729Y0155933D01*
X0056685Y0155889D01*
X0056637Y0155847D01*
X0056588Y0155809D01*
X0056536Y0155774D01*
X0056482Y0155742D01*
X0056426Y0155713D01*
X0056368Y0155688D01*
X0056309Y0155667D01*
X0056249Y0155649D01*
X0056187Y0155636D01*
X0056125Y0155626D01*
X0056063Y0155620D01*
X0056000Y0155618D01*
X0055937Y0155620D01*
X0055875Y0155626D01*
X0055813Y0155636D01*
X0055751Y0155649D01*
X0055691Y0155667D01*
X0055632Y0155688D01*
X0055574Y0155713D01*
X0055518Y0155742D01*
X0055464Y0155774D01*
X0055412Y0155809D01*
X0055363Y0155847D01*
X0055315Y0155889D01*
X0055271Y0155933D01*
X0055229Y0155981D01*
X0055191Y0156030D01*
X0055156Y0156082D01*
X0055124Y0156136D01*
X0055095Y0156192D01*
X0055070Y0156250D01*
X0055049Y0156309D01*
X0055031Y0156369D01*
X0055018Y0156431D01*
X0055008Y0156493D01*
X0055002Y0156555D01*
X0055000Y0156618D01*
X0049000Y0156618D02*
X0049002Y0156790D01*
X0049008Y0156961D01*
X0049019Y0157133D01*
X0049034Y0157304D01*
X0049053Y0157475D01*
X0049076Y0157645D01*
X0049103Y0157815D01*
X0049135Y0157984D01*
X0049170Y0158152D01*
X0049210Y0158319D01*
X0049254Y0158485D01*
X0049301Y0158650D01*
X0049353Y0158814D01*
X0049409Y0158976D01*
X0049469Y0159137D01*
X0049533Y0159297D01*
X0049601Y0159455D01*
X0049672Y0159611D01*
X0049747Y0159765D01*
X0049827Y0159918D01*
X0049909Y0160068D01*
X0049996Y0160217D01*
X0050086Y0160363D01*
X0050180Y0160507D01*
X0050277Y0160649D01*
X0050378Y0160788D01*
X0050482Y0160925D01*
X0050589Y0161059D01*
X0050700Y0161190D01*
X0050813Y0161319D01*
X0050930Y0161445D01*
X0051050Y0161568D01*
X0051173Y0161688D01*
X0051299Y0161805D01*
X0051428Y0161918D01*
X0051559Y0162029D01*
X0051693Y0162136D01*
X0051830Y0162240D01*
X0051969Y0162341D01*
X0052111Y0162438D01*
X0052255Y0162532D01*
X0052401Y0162622D01*
X0052550Y0162709D01*
X0052700Y0162791D01*
X0052853Y0162871D01*
X0053007Y0162946D01*
X0053163Y0163017D01*
X0053321Y0163085D01*
X0053481Y0163149D01*
X0053642Y0163209D01*
X0053804Y0163265D01*
X0053968Y0163317D01*
X0054133Y0163364D01*
X0054299Y0163408D01*
X0054466Y0163448D01*
X0054634Y0163483D01*
X0054803Y0163515D01*
X0054973Y0163542D01*
X0055143Y0163565D01*
X0055314Y0163584D01*
X0055485Y0163599D01*
X0055657Y0163610D01*
X0055828Y0163616D01*
X0056000Y0163618D01*
X0056172Y0163616D01*
X0056343Y0163610D01*
X0056515Y0163599D01*
X0056686Y0163584D01*
X0056857Y0163565D01*
X0057027Y0163542D01*
X0057197Y0163515D01*
X0057366Y0163483D01*
X0057534Y0163448D01*
X0057701Y0163408D01*
X0057867Y0163364D01*
X0058032Y0163317D01*
X0058196Y0163265D01*
X0058358Y0163209D01*
X0058519Y0163149D01*
X0058679Y0163085D01*
X0058837Y0163017D01*
X0058993Y0162946D01*
X0059147Y0162871D01*
X0059300Y0162791D01*
X0059450Y0162709D01*
X0059599Y0162622D01*
X0059745Y0162532D01*
X0059889Y0162438D01*
X0060031Y0162341D01*
X0060170Y0162240D01*
X0060307Y0162136D01*
X0060441Y0162029D01*
X0060572Y0161918D01*
X0060701Y0161805D01*
X0060827Y0161688D01*
X0060950Y0161568D01*
X0061070Y0161445D01*
X0061187Y0161319D01*
X0061300Y0161190D01*
X0061411Y0161059D01*
X0061518Y0160925D01*
X0061622Y0160788D01*
X0061723Y0160649D01*
X0061820Y0160507D01*
X0061914Y0160363D01*
X0062004Y0160217D01*
X0062091Y0160068D01*
X0062173Y0159918D01*
X0062253Y0159765D01*
X0062328Y0159611D01*
X0062399Y0159455D01*
X0062467Y0159297D01*
X0062531Y0159137D01*
X0062591Y0158976D01*
X0062647Y0158814D01*
X0062699Y0158650D01*
X0062746Y0158485D01*
X0062790Y0158319D01*
X0062830Y0158152D01*
X0062865Y0157984D01*
X0062897Y0157815D01*
X0062924Y0157645D01*
X0062947Y0157475D01*
X0062966Y0157304D01*
X0062981Y0157133D01*
X0062992Y0156961D01*
X0062998Y0156790D01*
X0063000Y0156618D01*
X0062998Y0156446D01*
X0062992Y0156275D01*
X0062981Y0156103D01*
X0062966Y0155932D01*
X0062947Y0155761D01*
X0062924Y0155591D01*
X0062897Y0155421D01*
X0062865Y0155252D01*
X0062830Y0155084D01*
X0062790Y0154917D01*
X0062746Y0154751D01*
X0062699Y0154586D01*
X0062647Y0154422D01*
X0062591Y0154260D01*
X0062531Y0154099D01*
X0062467Y0153939D01*
X0062399Y0153781D01*
X0062328Y0153625D01*
X0062253Y0153471D01*
X0062173Y0153318D01*
X0062091Y0153168D01*
X0062004Y0153019D01*
X0061914Y0152873D01*
X0061820Y0152729D01*
X0061723Y0152587D01*
X0061622Y0152448D01*
X0061518Y0152311D01*
X0061411Y0152177D01*
X0061300Y0152046D01*
X0061187Y0151917D01*
X0061070Y0151791D01*
X0060950Y0151668D01*
X0060827Y0151548D01*
X0060701Y0151431D01*
X0060572Y0151318D01*
X0060441Y0151207D01*
X0060307Y0151100D01*
X0060170Y0150996D01*
X0060031Y0150895D01*
X0059889Y0150798D01*
X0059745Y0150704D01*
X0059599Y0150614D01*
X0059450Y0150527D01*
X0059300Y0150445D01*
X0059147Y0150365D01*
X0058993Y0150290D01*
X0058837Y0150219D01*
X0058679Y0150151D01*
X0058519Y0150087D01*
X0058358Y0150027D01*
X0058196Y0149971D01*
X0058032Y0149919D01*
X0057867Y0149872D01*
X0057701Y0149828D01*
X0057534Y0149788D01*
X0057366Y0149753D01*
X0057197Y0149721D01*
X0057027Y0149694D01*
X0056857Y0149671D01*
X0056686Y0149652D01*
X0056515Y0149637D01*
X0056343Y0149626D01*
X0056172Y0149620D01*
X0056000Y0149618D01*
X0055828Y0149620D01*
X0055657Y0149626D01*
X0055485Y0149637D01*
X0055314Y0149652D01*
X0055143Y0149671D01*
X0054973Y0149694D01*
X0054803Y0149721D01*
X0054634Y0149753D01*
X0054466Y0149788D01*
X0054299Y0149828D01*
X0054133Y0149872D01*
X0053968Y0149919D01*
X0053804Y0149971D01*
X0053642Y0150027D01*
X0053481Y0150087D01*
X0053321Y0150151D01*
X0053163Y0150219D01*
X0053007Y0150290D01*
X0052853Y0150365D01*
X0052700Y0150445D01*
X0052550Y0150527D01*
X0052401Y0150614D01*
X0052255Y0150704D01*
X0052111Y0150798D01*
X0051969Y0150895D01*
X0051830Y0150996D01*
X0051693Y0151100D01*
X0051559Y0151207D01*
X0051428Y0151318D01*
X0051299Y0151431D01*
X0051173Y0151548D01*
X0051050Y0151668D01*
X0050930Y0151791D01*
X0050813Y0151917D01*
X0050700Y0152046D01*
X0050589Y0152177D01*
X0050482Y0152311D01*
X0050378Y0152448D01*
X0050277Y0152587D01*
X0050180Y0152729D01*
X0050086Y0152873D01*
X0049996Y0153019D01*
X0049909Y0153168D01*
X0049827Y0153318D01*
X0049747Y0153471D01*
X0049672Y0153625D01*
X0049601Y0153781D01*
X0049533Y0153939D01*
X0049469Y0154099D01*
X0049409Y0154260D01*
X0049353Y0154422D01*
X0049301Y0154586D01*
X0049254Y0154751D01*
X0049210Y0154917D01*
X0049170Y0155084D01*
X0049135Y0155252D01*
X0049103Y0155421D01*
X0049076Y0155591D01*
X0049053Y0155761D01*
X0049034Y0155932D01*
X0049019Y0156103D01*
X0049008Y0156275D01*
X0049002Y0156446D01*
X0049000Y0156618D01*
X0032000Y0151618D02*
X0031998Y0151464D01*
X0031992Y0151310D01*
X0031982Y0151156D01*
X0031968Y0151002D01*
X0031951Y0150849D01*
X0031929Y0150697D01*
X0031903Y0150545D01*
X0031874Y0150393D01*
X0031840Y0150243D01*
X0031803Y0150093D01*
X0031762Y0149945D01*
X0031717Y0149797D01*
X0031668Y0149651D01*
X0031616Y0149506D01*
X0031560Y0149363D01*
X0031500Y0149220D01*
X0031437Y0149080D01*
X0031370Y0148941D01*
X0031299Y0148804D01*
X0031225Y0148669D01*
X0031148Y0148536D01*
X0031067Y0148404D01*
X0030983Y0148275D01*
X0030895Y0148148D01*
X0030804Y0148024D01*
X0030711Y0147902D01*
X0030613Y0147782D01*
X0030513Y0147665D01*
X0030410Y0147550D01*
X0030304Y0147438D01*
X0030196Y0147329D01*
X0030084Y0147223D01*
X0029970Y0147119D01*
X0029853Y0147019D01*
X0029734Y0146921D01*
X0029612Y0146827D01*
X0029487Y0146736D01*
X0020000Y0151618D02*
X0020002Y0151770D01*
X0020008Y0151921D01*
X0020017Y0152072D01*
X0020031Y0152224D01*
X0020048Y0152374D01*
X0020069Y0152524D01*
X0020094Y0152674D01*
X0020122Y0152823D01*
X0020155Y0152971D01*
X0020191Y0153118D01*
X0020230Y0153265D01*
X0020274Y0153410D01*
X0020321Y0153554D01*
X0020372Y0153697D01*
X0020426Y0153838D01*
X0020484Y0153979D01*
X0020545Y0154117D01*
X0020610Y0154254D01*
X0020679Y0154390D01*
X0020750Y0154523D01*
X0020825Y0154655D01*
X0020904Y0154785D01*
X0020985Y0154912D01*
X0021070Y0155038D01*
X0021158Y0155162D01*
X0021249Y0155283D01*
X0021343Y0155402D01*
X0021441Y0155518D01*
X0021541Y0155632D01*
X0021643Y0155744D01*
X0021749Y0155852D01*
X0021857Y0155958D01*
X0021968Y0156062D01*
X0022082Y0156162D01*
X0022198Y0156260D01*
X0022317Y0156354D01*
X0020000Y0151618D02*
X0020002Y0151466D01*
X0020008Y0151315D01*
X0020017Y0151164D01*
X0020031Y0151012D01*
X0020048Y0150862D01*
X0020069Y0150712D01*
X0020094Y0150562D01*
X0020122Y0150413D01*
X0020155Y0150265D01*
X0020191Y0150118D01*
X0020230Y0149971D01*
X0020274Y0149826D01*
X0020321Y0149682D01*
X0020372Y0149539D01*
X0020426Y0149398D01*
X0020484Y0149257D01*
X0020545Y0149119D01*
X0020610Y0148982D01*
X0020679Y0148846D01*
X0020750Y0148713D01*
X0020825Y0148581D01*
X0020904Y0148451D01*
X0020985Y0148324D01*
X0021070Y0148198D01*
X0021158Y0148074D01*
X0021249Y0147953D01*
X0021343Y0147834D01*
X0021441Y0147718D01*
X0021541Y0147604D01*
X0021643Y0147492D01*
X0021749Y0147384D01*
X0021857Y0147278D01*
X0021968Y0147174D01*
X0022082Y0147074D01*
X0022198Y0146976D01*
X0022317Y0146882D01*
X0032000Y0151618D02*
X0031998Y0151768D01*
X0031992Y0151919D01*
X0031983Y0152069D01*
X0031970Y0152218D01*
X0031953Y0152368D01*
X0031932Y0152517D01*
X0031908Y0152665D01*
X0031880Y0152813D01*
X0031848Y0152960D01*
X0031813Y0153106D01*
X0031773Y0153251D01*
X0031731Y0153395D01*
X0031684Y0153538D01*
X0031634Y0153680D01*
X0031581Y0153821D01*
X0031524Y0153960D01*
X0031464Y0154098D01*
X0031400Y0154234D01*
X0031333Y0154368D01*
X0031262Y0154501D01*
X0031188Y0154632D01*
X0031111Y0154761D01*
X0031030Y0154888D01*
X0030947Y0155013D01*
X0030860Y0155136D01*
X0030771Y0155257D01*
X0030678Y0155375D01*
X0030582Y0155491D01*
X0030484Y0155605D01*
X0030383Y0155716D01*
X0030278Y0155825D01*
X0030172Y0155930D01*
X0030062Y0156034D01*
X0029950Y0156134D01*
X0029836Y0156232D01*
X0029719Y0156326D01*
X0029600Y0156418D01*
X0042500Y0119118D02*
X0049500Y0119118D01*
X0049560Y0119116D01*
X0049621Y0119111D01*
X0049680Y0119102D01*
X0049739Y0119089D01*
X0049798Y0119073D01*
X0049855Y0119053D01*
X0049910Y0119030D01*
X0049965Y0119003D01*
X0050017Y0118974D01*
X0050068Y0118941D01*
X0050117Y0118905D01*
X0050163Y0118867D01*
X0050207Y0118825D01*
X0050249Y0118781D01*
X0050287Y0118735D01*
X0050323Y0118686D01*
X0050356Y0118635D01*
X0050385Y0118583D01*
X0050412Y0118528D01*
X0050435Y0118473D01*
X0050455Y0118416D01*
X0050471Y0118357D01*
X0050484Y0118298D01*
X0050493Y0118239D01*
X0050498Y0118178D01*
X0050500Y0118118D01*
X0050500Y0116618D01*
X0050000Y0116118D01*
X0050000Y0097118D01*
X0050500Y0096618D01*
X0050500Y0095118D01*
X0050498Y0095058D01*
X0050493Y0094997D01*
X0050484Y0094938D01*
X0050471Y0094879D01*
X0050455Y0094820D01*
X0050435Y0094763D01*
X0050412Y0094708D01*
X0050385Y0094653D01*
X0050356Y0094601D01*
X0050323Y0094550D01*
X0050287Y0094501D01*
X0050249Y0094455D01*
X0050207Y0094411D01*
X0050163Y0094369D01*
X0050117Y0094331D01*
X0050068Y0094295D01*
X0050017Y0094262D01*
X0049965Y0094233D01*
X0049910Y0094206D01*
X0049855Y0094183D01*
X0049798Y0094163D01*
X0049739Y0094147D01*
X0049680Y0094134D01*
X0049621Y0094125D01*
X0049560Y0094120D01*
X0049500Y0094118D01*
X0042500Y0094118D01*
X0042440Y0094120D01*
X0042379Y0094125D01*
X0042320Y0094134D01*
X0042261Y0094147D01*
X0042202Y0094163D01*
X0042145Y0094183D01*
X0042090Y0094206D01*
X0042035Y0094233D01*
X0041983Y0094262D01*
X0041932Y0094295D01*
X0041883Y0094331D01*
X0041837Y0094369D01*
X0041793Y0094411D01*
X0041751Y0094455D01*
X0041713Y0094501D01*
X0041677Y0094550D01*
X0041644Y0094601D01*
X0041615Y0094653D01*
X0041588Y0094708D01*
X0041565Y0094763D01*
X0041545Y0094820D01*
X0041529Y0094879D01*
X0041516Y0094938D01*
X0041507Y0094997D01*
X0041502Y0095058D01*
X0041500Y0095118D01*
X0041500Y0096618D01*
X0042000Y0097118D01*
X0042000Y0116118D01*
X0041500Y0116618D01*
X0041500Y0118118D01*
X0041502Y0118178D01*
X0041507Y0118239D01*
X0041516Y0118298D01*
X0041529Y0118357D01*
X0041545Y0118416D01*
X0041565Y0118473D01*
X0041588Y0118528D01*
X0041615Y0118583D01*
X0041644Y0118635D01*
X0041677Y0118686D01*
X0041713Y0118735D01*
X0041751Y0118781D01*
X0041793Y0118825D01*
X0041837Y0118867D01*
X0041883Y0118905D01*
X0041932Y0118941D01*
X0041983Y0118974D01*
X0042035Y0119003D01*
X0042090Y0119030D01*
X0042145Y0119053D01*
X0042202Y0119073D01*
X0042261Y0119089D01*
X0042320Y0119102D01*
X0042379Y0119111D01*
X0042440Y0119116D01*
X0042500Y0119118D01*
X0082795Y0145418D02*
X0082795Y0147553D01*
X0082795Y0146486D02*
X0089200Y0146486D01*
X0089200Y0147553D02*
X0089200Y0145418D01*
X0088132Y0149715D02*
X0083862Y0149715D01*
X0082795Y0150783D01*
X0082795Y0152918D01*
X0083862Y0153985D01*
X0084930Y0156161D02*
X0082795Y0158296D01*
X0089200Y0158296D01*
X0089200Y0156161D02*
X0089200Y0160431D01*
X0088132Y0153985D02*
X0089200Y0152918D01*
X0089200Y0150783D01*
X0088132Y0149715D01*
X0087500Y0093618D02*
X0091500Y0093618D01*
X0101000Y0093618D01*
X0104500Y0093618D01*
X0108000Y0085618D02*
X0108000Y0084618D01*
X0109000Y0084618D01*
X0109000Y0078618D01*
X0108000Y0078618D01*
X0108000Y0077618D01*
X0104500Y0069618D02*
X0101000Y0069618D01*
X0091000Y0069618D01*
X0087500Y0069618D01*
X0084000Y0077618D02*
X0084000Y0078618D01*
X0083000Y0078618D01*
X0083000Y0084618D01*
X0084000Y0084618D01*
X0084000Y0085618D01*
X0095000Y0081618D02*
X0095002Y0081681D01*
X0095008Y0081743D01*
X0095018Y0081805D01*
X0095031Y0081867D01*
X0095049Y0081927D01*
X0095070Y0081986D01*
X0095095Y0082044D01*
X0095124Y0082100D01*
X0095156Y0082154D01*
X0095191Y0082206D01*
X0095229Y0082255D01*
X0095271Y0082303D01*
X0095315Y0082347D01*
X0095363Y0082389D01*
X0095412Y0082427D01*
X0095464Y0082462D01*
X0095518Y0082494D01*
X0095574Y0082523D01*
X0095632Y0082548D01*
X0095691Y0082569D01*
X0095751Y0082587D01*
X0095813Y0082600D01*
X0095875Y0082610D01*
X0095937Y0082616D01*
X0096000Y0082618D01*
X0096063Y0082616D01*
X0096125Y0082610D01*
X0096187Y0082600D01*
X0096249Y0082587D01*
X0096309Y0082569D01*
X0096368Y0082548D01*
X0096426Y0082523D01*
X0096482Y0082494D01*
X0096536Y0082462D01*
X0096588Y0082427D01*
X0096637Y0082389D01*
X0096685Y0082347D01*
X0096729Y0082303D01*
X0096771Y0082255D01*
X0096809Y0082206D01*
X0096844Y0082154D01*
X0096876Y0082100D01*
X0096905Y0082044D01*
X0096930Y0081986D01*
X0096951Y0081927D01*
X0096969Y0081867D01*
X0096982Y0081805D01*
X0096992Y0081743D01*
X0096998Y0081681D01*
X0097000Y0081618D01*
X0096998Y0081555D01*
X0096992Y0081493D01*
X0096982Y0081431D01*
X0096969Y0081369D01*
X0096951Y0081309D01*
X0096930Y0081250D01*
X0096905Y0081192D01*
X0096876Y0081136D01*
X0096844Y0081082D01*
X0096809Y0081030D01*
X0096771Y0080981D01*
X0096729Y0080933D01*
X0096685Y0080889D01*
X0096637Y0080847D01*
X0096588Y0080809D01*
X0096536Y0080774D01*
X0096482Y0080742D01*
X0096426Y0080713D01*
X0096368Y0080688D01*
X0096309Y0080667D01*
X0096249Y0080649D01*
X0096187Y0080636D01*
X0096125Y0080626D01*
X0096063Y0080620D01*
X0096000Y0080618D01*
X0095937Y0080620D01*
X0095875Y0080626D01*
X0095813Y0080636D01*
X0095751Y0080649D01*
X0095691Y0080667D01*
X0095632Y0080688D01*
X0095574Y0080713D01*
X0095518Y0080742D01*
X0095464Y0080774D01*
X0095412Y0080809D01*
X0095363Y0080847D01*
X0095315Y0080889D01*
X0095271Y0080933D01*
X0095229Y0080981D01*
X0095191Y0081030D01*
X0095156Y0081082D01*
X0095124Y0081136D01*
X0095095Y0081192D01*
X0095070Y0081250D01*
X0095049Y0081309D01*
X0095031Y0081369D01*
X0095018Y0081431D01*
X0095008Y0081493D01*
X0095002Y0081555D01*
X0095000Y0081618D01*
X0089000Y0081618D02*
X0089002Y0081790D01*
X0089008Y0081961D01*
X0089019Y0082133D01*
X0089034Y0082304D01*
X0089053Y0082475D01*
X0089076Y0082645D01*
X0089103Y0082815D01*
X0089135Y0082984D01*
X0089170Y0083152D01*
X0089210Y0083319D01*
X0089254Y0083485D01*
X0089301Y0083650D01*
X0089353Y0083814D01*
X0089409Y0083976D01*
X0089469Y0084137D01*
X0089533Y0084297D01*
X0089601Y0084455D01*
X0089672Y0084611D01*
X0089747Y0084765D01*
X0089827Y0084918D01*
X0089909Y0085068D01*
X0089996Y0085217D01*
X0090086Y0085363D01*
X0090180Y0085507D01*
X0090277Y0085649D01*
X0090378Y0085788D01*
X0090482Y0085925D01*
X0090589Y0086059D01*
X0090700Y0086190D01*
X0090813Y0086319D01*
X0090930Y0086445D01*
X0091050Y0086568D01*
X0091173Y0086688D01*
X0091299Y0086805D01*
X0091428Y0086918D01*
X0091559Y0087029D01*
X0091693Y0087136D01*
X0091830Y0087240D01*
X0091969Y0087341D01*
X0092111Y0087438D01*
X0092255Y0087532D01*
X0092401Y0087622D01*
X0092550Y0087709D01*
X0092700Y0087791D01*
X0092853Y0087871D01*
X0093007Y0087946D01*
X0093163Y0088017D01*
X0093321Y0088085D01*
X0093481Y0088149D01*
X0093642Y0088209D01*
X0093804Y0088265D01*
X0093968Y0088317D01*
X0094133Y0088364D01*
X0094299Y0088408D01*
X0094466Y0088448D01*
X0094634Y0088483D01*
X0094803Y0088515D01*
X0094973Y0088542D01*
X0095143Y0088565D01*
X0095314Y0088584D01*
X0095485Y0088599D01*
X0095657Y0088610D01*
X0095828Y0088616D01*
X0096000Y0088618D01*
X0096172Y0088616D01*
X0096343Y0088610D01*
X0096515Y0088599D01*
X0096686Y0088584D01*
X0096857Y0088565D01*
X0097027Y0088542D01*
X0097197Y0088515D01*
X0097366Y0088483D01*
X0097534Y0088448D01*
X0097701Y0088408D01*
X0097867Y0088364D01*
X0098032Y0088317D01*
X0098196Y0088265D01*
X0098358Y0088209D01*
X0098519Y0088149D01*
X0098679Y0088085D01*
X0098837Y0088017D01*
X0098993Y0087946D01*
X0099147Y0087871D01*
X0099300Y0087791D01*
X0099450Y0087709D01*
X0099599Y0087622D01*
X0099745Y0087532D01*
X0099889Y0087438D01*
X0100031Y0087341D01*
X0100170Y0087240D01*
X0100307Y0087136D01*
X0100441Y0087029D01*
X0100572Y0086918D01*
X0100701Y0086805D01*
X0100827Y0086688D01*
X0100950Y0086568D01*
X0101070Y0086445D01*
X0101187Y0086319D01*
X0101300Y0086190D01*
X0101411Y0086059D01*
X0101518Y0085925D01*
X0101622Y0085788D01*
X0101723Y0085649D01*
X0101820Y0085507D01*
X0101914Y0085363D01*
X0102004Y0085217D01*
X0102091Y0085068D01*
X0102173Y0084918D01*
X0102253Y0084765D01*
X0102328Y0084611D01*
X0102399Y0084455D01*
X0102467Y0084297D01*
X0102531Y0084137D01*
X0102591Y0083976D01*
X0102647Y0083814D01*
X0102699Y0083650D01*
X0102746Y0083485D01*
X0102790Y0083319D01*
X0102830Y0083152D01*
X0102865Y0082984D01*
X0102897Y0082815D01*
X0102924Y0082645D01*
X0102947Y0082475D01*
X0102966Y0082304D01*
X0102981Y0082133D01*
X0102992Y0081961D01*
X0102998Y0081790D01*
X0103000Y0081618D01*
X0102998Y0081446D01*
X0102992Y0081275D01*
X0102981Y0081103D01*
X0102966Y0080932D01*
X0102947Y0080761D01*
X0102924Y0080591D01*
X0102897Y0080421D01*
X0102865Y0080252D01*
X0102830Y0080084D01*
X0102790Y0079917D01*
X0102746Y0079751D01*
X0102699Y0079586D01*
X0102647Y0079422D01*
X0102591Y0079260D01*
X0102531Y0079099D01*
X0102467Y0078939D01*
X0102399Y0078781D01*
X0102328Y0078625D01*
X0102253Y0078471D01*
X0102173Y0078318D01*
X0102091Y0078168D01*
X0102004Y0078019D01*
X0101914Y0077873D01*
X0101820Y0077729D01*
X0101723Y0077587D01*
X0101622Y0077448D01*
X0101518Y0077311D01*
X0101411Y0077177D01*
X0101300Y0077046D01*
X0101187Y0076917D01*
X0101070Y0076791D01*
X0100950Y0076668D01*
X0100827Y0076548D01*
X0100701Y0076431D01*
X0100572Y0076318D01*
X0100441Y0076207D01*
X0100307Y0076100D01*
X0100170Y0075996D01*
X0100031Y0075895D01*
X0099889Y0075798D01*
X0099745Y0075704D01*
X0099599Y0075614D01*
X0099450Y0075527D01*
X0099300Y0075445D01*
X0099147Y0075365D01*
X0098993Y0075290D01*
X0098837Y0075219D01*
X0098679Y0075151D01*
X0098519Y0075087D01*
X0098358Y0075027D01*
X0098196Y0074971D01*
X0098032Y0074919D01*
X0097867Y0074872D01*
X0097701Y0074828D01*
X0097534Y0074788D01*
X0097366Y0074753D01*
X0097197Y0074721D01*
X0097027Y0074694D01*
X0096857Y0074671D01*
X0096686Y0074652D01*
X0096515Y0074637D01*
X0096343Y0074626D01*
X0096172Y0074620D01*
X0096000Y0074618D01*
X0095828Y0074620D01*
X0095657Y0074626D01*
X0095485Y0074637D01*
X0095314Y0074652D01*
X0095143Y0074671D01*
X0094973Y0074694D01*
X0094803Y0074721D01*
X0094634Y0074753D01*
X0094466Y0074788D01*
X0094299Y0074828D01*
X0094133Y0074872D01*
X0093968Y0074919D01*
X0093804Y0074971D01*
X0093642Y0075027D01*
X0093481Y0075087D01*
X0093321Y0075151D01*
X0093163Y0075219D01*
X0093007Y0075290D01*
X0092853Y0075365D01*
X0092700Y0075445D01*
X0092550Y0075527D01*
X0092401Y0075614D01*
X0092255Y0075704D01*
X0092111Y0075798D01*
X0091969Y0075895D01*
X0091830Y0075996D01*
X0091693Y0076100D01*
X0091559Y0076207D01*
X0091428Y0076318D01*
X0091299Y0076431D01*
X0091173Y0076548D01*
X0091050Y0076668D01*
X0090930Y0076791D01*
X0090813Y0076917D01*
X0090700Y0077046D01*
X0090589Y0077177D01*
X0090482Y0077311D01*
X0090378Y0077448D01*
X0090277Y0077587D01*
X0090180Y0077729D01*
X0090086Y0077873D01*
X0089996Y0078019D01*
X0089909Y0078168D01*
X0089827Y0078318D01*
X0089747Y0078471D01*
X0089672Y0078625D01*
X0089601Y0078781D01*
X0089533Y0078939D01*
X0089469Y0079099D01*
X0089409Y0079260D01*
X0089353Y0079422D01*
X0089301Y0079586D01*
X0089254Y0079751D01*
X0089210Y0079917D01*
X0089170Y0080084D01*
X0089135Y0080252D01*
X0089103Y0080421D01*
X0089076Y0080591D01*
X0089053Y0080761D01*
X0089034Y0080932D01*
X0089019Y0081103D01*
X0089008Y0081275D01*
X0089002Y0081446D01*
X0089000Y0081618D01*
X0096000Y0066118D02*
X0097500Y0066118D01*
X0097560Y0066116D01*
X0097621Y0066111D01*
X0097680Y0066102D01*
X0097739Y0066089D01*
X0097798Y0066073D01*
X0097855Y0066053D01*
X0097910Y0066030D01*
X0097965Y0066003D01*
X0098017Y0065974D01*
X0098068Y0065941D01*
X0098117Y0065905D01*
X0098163Y0065867D01*
X0098207Y0065825D01*
X0098249Y0065781D01*
X0098287Y0065735D01*
X0098323Y0065686D01*
X0098356Y0065635D01*
X0098385Y0065583D01*
X0098412Y0065528D01*
X0098435Y0065473D01*
X0098455Y0065416D01*
X0098471Y0065357D01*
X0098484Y0065298D01*
X0098493Y0065239D01*
X0098498Y0065178D01*
X0098500Y0065118D01*
X0098500Y0058118D01*
X0098498Y0058058D01*
X0098493Y0057997D01*
X0098484Y0057938D01*
X0098471Y0057879D01*
X0098455Y0057820D01*
X0098435Y0057763D01*
X0098412Y0057708D01*
X0098385Y0057653D01*
X0098356Y0057601D01*
X0098323Y0057550D01*
X0098287Y0057501D01*
X0098249Y0057455D01*
X0098207Y0057411D01*
X0098163Y0057369D01*
X0098117Y0057331D01*
X0098068Y0057295D01*
X0098017Y0057262D01*
X0097965Y0057233D01*
X0097910Y0057206D01*
X0097855Y0057183D01*
X0097798Y0057163D01*
X0097739Y0057147D01*
X0097680Y0057134D01*
X0097621Y0057125D01*
X0097560Y0057120D01*
X0097500Y0057118D01*
X0096000Y0057118D01*
X0095500Y0057618D01*
X0076500Y0057618D01*
X0076000Y0057118D01*
X0074500Y0057118D01*
X0074440Y0057120D01*
X0074379Y0057125D01*
X0074320Y0057134D01*
X0074261Y0057147D01*
X0074202Y0057163D01*
X0074145Y0057183D01*
X0074090Y0057206D01*
X0074035Y0057233D01*
X0073983Y0057262D01*
X0073932Y0057295D01*
X0073883Y0057331D01*
X0073837Y0057369D01*
X0073793Y0057411D01*
X0073751Y0057455D01*
X0073713Y0057501D01*
X0073677Y0057550D01*
X0073644Y0057601D01*
X0073615Y0057653D01*
X0073588Y0057708D01*
X0073565Y0057763D01*
X0073545Y0057820D01*
X0073529Y0057879D01*
X0073516Y0057938D01*
X0073507Y0057997D01*
X0073502Y0058058D01*
X0073500Y0058118D01*
X0073500Y0065118D01*
X0073502Y0065178D01*
X0073507Y0065239D01*
X0073516Y0065298D01*
X0073529Y0065357D01*
X0073545Y0065416D01*
X0073565Y0065473D01*
X0073588Y0065528D01*
X0073615Y0065583D01*
X0073644Y0065635D01*
X0073677Y0065686D01*
X0073713Y0065735D01*
X0073751Y0065781D01*
X0073793Y0065825D01*
X0073837Y0065867D01*
X0073883Y0065905D01*
X0073932Y0065941D01*
X0073983Y0065974D01*
X0074035Y0066003D01*
X0074090Y0066030D01*
X0074145Y0066053D01*
X0074202Y0066073D01*
X0074261Y0066089D01*
X0074320Y0066102D01*
X0074379Y0066111D01*
X0074440Y0066116D01*
X0074500Y0066118D01*
X0076000Y0066118D01*
X0076500Y0065618D01*
X0095500Y0065618D01*
X0096000Y0066118D01*
X0102500Y0056118D02*
X0102500Y0053118D01*
X0104000Y0054618D02*
X0101000Y0054618D01*
X0096000Y0046118D02*
X0096000Y0045118D01*
X0100500Y0045118D01*
X0100500Y0042618D01*
X0091500Y0042618D01*
X0091500Y0045118D01*
X0096000Y0045118D01*
X0078500Y0041618D02*
X0078505Y0042047D01*
X0078521Y0042477D01*
X0078547Y0042905D01*
X0078584Y0043333D01*
X0078632Y0043760D01*
X0078689Y0044186D01*
X0078758Y0044610D01*
X0078836Y0045032D01*
X0078925Y0045452D01*
X0079024Y0045870D01*
X0079134Y0046285D01*
X0079254Y0046698D01*
X0079383Y0047107D01*
X0079523Y0047514D01*
X0079673Y0047916D01*
X0079832Y0048315D01*
X0080001Y0048710D01*
X0080180Y0049100D01*
X0080369Y0049486D01*
X0080566Y0049867D01*
X0080773Y0050244D01*
X0080990Y0050615D01*
X0081215Y0050980D01*
X0081449Y0051340D01*
X0081692Y0051695D01*
X0081944Y0052043D01*
X0082204Y0052385D01*
X0082472Y0052720D01*
X0082749Y0053049D01*
X0083033Y0053370D01*
X0083326Y0053685D01*
X0083626Y0053992D01*
X0083933Y0054292D01*
X0084248Y0054585D01*
X0084569Y0054869D01*
X0084898Y0055146D01*
X0085233Y0055414D01*
X0085575Y0055674D01*
X0085923Y0055926D01*
X0086278Y0056169D01*
X0086638Y0056403D01*
X0087003Y0056628D01*
X0087374Y0056845D01*
X0087751Y0057052D01*
X0088132Y0057249D01*
X0088518Y0057438D01*
X0088908Y0057617D01*
X0089303Y0057786D01*
X0089702Y0057945D01*
X0090104Y0058095D01*
X0090511Y0058235D01*
X0090920Y0058364D01*
X0091333Y0058484D01*
X0091748Y0058594D01*
X0092166Y0058693D01*
X0092586Y0058782D01*
X0093008Y0058860D01*
X0093432Y0058929D01*
X0093858Y0058986D01*
X0094285Y0059034D01*
X0094713Y0059071D01*
X0095141Y0059097D01*
X0095571Y0059113D01*
X0096000Y0059118D01*
X0096429Y0059113D01*
X0096859Y0059097D01*
X0097287Y0059071D01*
X0097715Y0059034D01*
X0098142Y0058986D01*
X0098568Y0058929D01*
X0098992Y0058860D01*
X0099414Y0058782D01*
X0099834Y0058693D01*
X0100252Y0058594D01*
X0100667Y0058484D01*
X0101080Y0058364D01*
X0101489Y0058235D01*
X0101896Y0058095D01*
X0102298Y0057945D01*
X0102697Y0057786D01*
X0103092Y0057617D01*
X0103482Y0057438D01*
X0103868Y0057249D01*
X0104249Y0057052D01*
X0104626Y0056845D01*
X0104997Y0056628D01*
X0105362Y0056403D01*
X0105722Y0056169D01*
X0106077Y0055926D01*
X0106425Y0055674D01*
X0106767Y0055414D01*
X0107102Y0055146D01*
X0107431Y0054869D01*
X0107752Y0054585D01*
X0108067Y0054292D01*
X0108374Y0053992D01*
X0108674Y0053685D01*
X0108967Y0053370D01*
X0109251Y0053049D01*
X0109528Y0052720D01*
X0109796Y0052385D01*
X0110056Y0052043D01*
X0110308Y0051695D01*
X0110551Y0051340D01*
X0110785Y0050980D01*
X0111010Y0050615D01*
X0111227Y0050244D01*
X0111434Y0049867D01*
X0111631Y0049486D01*
X0111820Y0049100D01*
X0111999Y0048710D01*
X0112168Y0048315D01*
X0112327Y0047916D01*
X0112477Y0047514D01*
X0112617Y0047107D01*
X0112746Y0046698D01*
X0112866Y0046285D01*
X0112976Y0045870D01*
X0113075Y0045452D01*
X0113164Y0045032D01*
X0113242Y0044610D01*
X0113311Y0044186D01*
X0113368Y0043760D01*
X0113416Y0043333D01*
X0113453Y0042905D01*
X0113479Y0042477D01*
X0113495Y0042047D01*
X0113500Y0041618D01*
X0113495Y0041189D01*
X0113479Y0040759D01*
X0113453Y0040331D01*
X0113416Y0039903D01*
X0113368Y0039476D01*
X0113311Y0039050D01*
X0113242Y0038626D01*
X0113164Y0038204D01*
X0113075Y0037784D01*
X0112976Y0037366D01*
X0112866Y0036951D01*
X0112746Y0036538D01*
X0112617Y0036129D01*
X0112477Y0035722D01*
X0112327Y0035320D01*
X0112168Y0034921D01*
X0111999Y0034526D01*
X0111820Y0034136D01*
X0111631Y0033750D01*
X0111434Y0033369D01*
X0111227Y0032992D01*
X0111010Y0032621D01*
X0110785Y0032256D01*
X0110551Y0031896D01*
X0110308Y0031541D01*
X0110056Y0031193D01*
X0109796Y0030851D01*
X0109528Y0030516D01*
X0109251Y0030187D01*
X0108967Y0029866D01*
X0108674Y0029551D01*
X0108374Y0029244D01*
X0108067Y0028944D01*
X0107752Y0028651D01*
X0107431Y0028367D01*
X0107102Y0028090D01*
X0106767Y0027822D01*
X0106425Y0027562D01*
X0106077Y0027310D01*
X0105722Y0027067D01*
X0105362Y0026833D01*
X0104997Y0026608D01*
X0104626Y0026391D01*
X0104249Y0026184D01*
X0103868Y0025987D01*
X0103482Y0025798D01*
X0103092Y0025619D01*
X0102697Y0025450D01*
X0102298Y0025291D01*
X0101896Y0025141D01*
X0101489Y0025001D01*
X0101080Y0024872D01*
X0100667Y0024752D01*
X0100252Y0024642D01*
X0099834Y0024543D01*
X0099414Y0024454D01*
X0098992Y0024376D01*
X0098568Y0024307D01*
X0098142Y0024250D01*
X0097715Y0024202D01*
X0097287Y0024165D01*
X0096859Y0024139D01*
X0096429Y0024123D01*
X0096000Y0024118D01*
X0095571Y0024123D01*
X0095141Y0024139D01*
X0094713Y0024165D01*
X0094285Y0024202D01*
X0093858Y0024250D01*
X0093432Y0024307D01*
X0093008Y0024376D01*
X0092586Y0024454D01*
X0092166Y0024543D01*
X0091748Y0024642D01*
X0091333Y0024752D01*
X0090920Y0024872D01*
X0090511Y0025001D01*
X0090104Y0025141D01*
X0089702Y0025291D01*
X0089303Y0025450D01*
X0088908Y0025619D01*
X0088518Y0025798D01*
X0088132Y0025987D01*
X0087751Y0026184D01*
X0087374Y0026391D01*
X0087003Y0026608D01*
X0086638Y0026833D01*
X0086278Y0027067D01*
X0085923Y0027310D01*
X0085575Y0027562D01*
X0085233Y0027822D01*
X0084898Y0028090D01*
X0084569Y0028367D01*
X0084248Y0028651D01*
X0083933Y0028944D01*
X0083626Y0029244D01*
X0083326Y0029551D01*
X0083033Y0029866D01*
X0082749Y0030187D01*
X0082472Y0030516D01*
X0082204Y0030851D01*
X0081944Y0031193D01*
X0081692Y0031541D01*
X0081449Y0031896D01*
X0081215Y0032256D01*
X0080990Y0032621D01*
X0080773Y0032992D01*
X0080566Y0033369D01*
X0080369Y0033750D01*
X0080180Y0034136D01*
X0080001Y0034526D01*
X0079832Y0034921D01*
X0079673Y0035320D01*
X0079523Y0035722D01*
X0079383Y0036129D01*
X0079254Y0036538D01*
X0079134Y0036951D01*
X0079024Y0037366D01*
X0078925Y0037784D01*
X0078836Y0038204D01*
X0078758Y0038626D01*
X0078689Y0039050D01*
X0078632Y0039476D01*
X0078584Y0039903D01*
X0078547Y0040331D01*
X0078521Y0040759D01*
X0078505Y0041189D01*
X0078500Y0041618D01*
X0096000Y0039118D02*
X0096000Y0037118D01*
X0131000Y0030319D02*
X0136000Y0007287D01*
X0141000Y0007287D01*
X0146000Y0030319D01*
X0156000Y0030319D02*
X0161000Y0007287D01*
X0166000Y0007287D01*
X0171000Y0030319D01*
X0171000Y0069618D02*
X0167500Y0069618D01*
X0171000Y0069618D02*
X0181000Y0069618D01*
X0184500Y0069618D01*
X0188000Y0077618D02*
X0188000Y0078618D01*
X0189000Y0078618D01*
X0189000Y0084618D01*
X0188000Y0084618D01*
X0188000Y0085618D01*
X0184500Y0093618D02*
X0181000Y0093618D01*
X0171500Y0093618D01*
X0167500Y0093618D01*
X0167300Y0101618D02*
X0172000Y0101618D01*
X0164800Y0101618D02*
X0160000Y0101618D01*
X0152500Y0094618D02*
X0152440Y0094620D01*
X0152379Y0094625D01*
X0152320Y0094634D01*
X0152261Y0094647D01*
X0152202Y0094663D01*
X0152145Y0094683D01*
X0152090Y0094706D01*
X0152035Y0094733D01*
X0151983Y0094762D01*
X0151932Y0094795D01*
X0151883Y0094831D01*
X0151837Y0094869D01*
X0151793Y0094911D01*
X0151751Y0094955D01*
X0151713Y0095001D01*
X0151677Y0095050D01*
X0151644Y0095101D01*
X0151615Y0095153D01*
X0151588Y0095208D01*
X0151565Y0095263D01*
X0151545Y0095320D01*
X0151529Y0095379D01*
X0151516Y0095438D01*
X0151507Y0095497D01*
X0151502Y0095558D01*
X0151500Y0095618D01*
X0151500Y0107618D01*
X0151502Y0107678D01*
X0151507Y0107739D01*
X0151516Y0107798D01*
X0151529Y0107857D01*
X0151545Y0107916D01*
X0151565Y0107973D01*
X0151588Y0108028D01*
X0151615Y0108083D01*
X0151644Y0108135D01*
X0151677Y0108186D01*
X0151713Y0108235D01*
X0151751Y0108281D01*
X0151793Y0108325D01*
X0151837Y0108367D01*
X0151883Y0108405D01*
X0151932Y0108441D01*
X0151983Y0108474D01*
X0152035Y0108503D01*
X0152090Y0108530D01*
X0152145Y0108553D01*
X0152202Y0108573D01*
X0152261Y0108589D01*
X0152320Y0108602D01*
X0152379Y0108611D01*
X0152440Y0108616D01*
X0152500Y0108618D01*
X0179500Y0108618D01*
X0179560Y0108616D01*
X0179621Y0108611D01*
X0179680Y0108602D01*
X0179739Y0108589D01*
X0179798Y0108573D01*
X0179855Y0108553D01*
X0179910Y0108530D01*
X0179965Y0108503D01*
X0180017Y0108474D01*
X0180068Y0108441D01*
X0180117Y0108405D01*
X0180163Y0108367D01*
X0180207Y0108325D01*
X0180249Y0108281D01*
X0180287Y0108235D01*
X0180323Y0108186D01*
X0180356Y0108135D01*
X0180385Y0108083D01*
X0180412Y0108028D01*
X0180435Y0107973D01*
X0180455Y0107916D01*
X0180471Y0107857D01*
X0180484Y0107798D01*
X0180493Y0107739D01*
X0180498Y0107678D01*
X0180500Y0107618D01*
X0180500Y0095618D01*
X0180498Y0095558D01*
X0180493Y0095497D01*
X0180484Y0095438D01*
X0180471Y0095379D01*
X0180455Y0095320D01*
X0180435Y0095263D01*
X0180412Y0095208D01*
X0180385Y0095153D01*
X0180356Y0095101D01*
X0180323Y0095050D01*
X0180287Y0095001D01*
X0180249Y0094955D01*
X0180207Y0094911D01*
X0180163Y0094869D01*
X0180117Y0094831D01*
X0180068Y0094795D01*
X0180017Y0094762D01*
X0179965Y0094733D01*
X0179910Y0094706D01*
X0179855Y0094683D01*
X0179798Y0094663D01*
X0179739Y0094647D01*
X0179680Y0094634D01*
X0179621Y0094625D01*
X0179560Y0094620D01*
X0179500Y0094618D01*
X0152500Y0094618D01*
X0144500Y0093618D02*
X0141000Y0093618D01*
X0131500Y0093618D01*
X0127500Y0093618D01*
X0124000Y0085618D02*
X0124000Y0084618D01*
X0123000Y0084618D01*
X0123000Y0078618D01*
X0124000Y0078618D01*
X0124000Y0077618D01*
X0127500Y0069618D02*
X0131000Y0069618D01*
X0141000Y0069618D01*
X0144500Y0069618D01*
X0148000Y0077618D02*
X0148000Y0078618D01*
X0149000Y0078618D01*
X0149000Y0084618D01*
X0148000Y0084618D01*
X0148000Y0085618D01*
X0135000Y0081618D02*
X0135002Y0081681D01*
X0135008Y0081743D01*
X0135018Y0081805D01*
X0135031Y0081867D01*
X0135049Y0081927D01*
X0135070Y0081986D01*
X0135095Y0082044D01*
X0135124Y0082100D01*
X0135156Y0082154D01*
X0135191Y0082206D01*
X0135229Y0082255D01*
X0135271Y0082303D01*
X0135315Y0082347D01*
X0135363Y0082389D01*
X0135412Y0082427D01*
X0135464Y0082462D01*
X0135518Y0082494D01*
X0135574Y0082523D01*
X0135632Y0082548D01*
X0135691Y0082569D01*
X0135751Y0082587D01*
X0135813Y0082600D01*
X0135875Y0082610D01*
X0135937Y0082616D01*
X0136000Y0082618D01*
X0136063Y0082616D01*
X0136125Y0082610D01*
X0136187Y0082600D01*
X0136249Y0082587D01*
X0136309Y0082569D01*
X0136368Y0082548D01*
X0136426Y0082523D01*
X0136482Y0082494D01*
X0136536Y0082462D01*
X0136588Y0082427D01*
X0136637Y0082389D01*
X0136685Y0082347D01*
X0136729Y0082303D01*
X0136771Y0082255D01*
X0136809Y0082206D01*
X0136844Y0082154D01*
X0136876Y0082100D01*
X0136905Y0082044D01*
X0136930Y0081986D01*
X0136951Y0081927D01*
X0136969Y0081867D01*
X0136982Y0081805D01*
X0136992Y0081743D01*
X0136998Y0081681D01*
X0137000Y0081618D01*
X0136998Y0081555D01*
X0136992Y0081493D01*
X0136982Y0081431D01*
X0136969Y0081369D01*
X0136951Y0081309D01*
X0136930Y0081250D01*
X0136905Y0081192D01*
X0136876Y0081136D01*
X0136844Y0081082D01*
X0136809Y0081030D01*
X0136771Y0080981D01*
X0136729Y0080933D01*
X0136685Y0080889D01*
X0136637Y0080847D01*
X0136588Y0080809D01*
X0136536Y0080774D01*
X0136482Y0080742D01*
X0136426Y0080713D01*
X0136368Y0080688D01*
X0136309Y0080667D01*
X0136249Y0080649D01*
X0136187Y0080636D01*
X0136125Y0080626D01*
X0136063Y0080620D01*
X0136000Y0080618D01*
X0135937Y0080620D01*
X0135875Y0080626D01*
X0135813Y0080636D01*
X0135751Y0080649D01*
X0135691Y0080667D01*
X0135632Y0080688D01*
X0135574Y0080713D01*
X0135518Y0080742D01*
X0135464Y0080774D01*
X0135412Y0080809D01*
X0135363Y0080847D01*
X0135315Y0080889D01*
X0135271Y0080933D01*
X0135229Y0080981D01*
X0135191Y0081030D01*
X0135156Y0081082D01*
X0135124Y0081136D01*
X0135095Y0081192D01*
X0135070Y0081250D01*
X0135049Y0081309D01*
X0135031Y0081369D01*
X0135018Y0081431D01*
X0135008Y0081493D01*
X0135002Y0081555D01*
X0135000Y0081618D01*
X0129000Y0081618D02*
X0129002Y0081790D01*
X0129008Y0081961D01*
X0129019Y0082133D01*
X0129034Y0082304D01*
X0129053Y0082475D01*
X0129076Y0082645D01*
X0129103Y0082815D01*
X0129135Y0082984D01*
X0129170Y0083152D01*
X0129210Y0083319D01*
X0129254Y0083485D01*
X0129301Y0083650D01*
X0129353Y0083814D01*
X0129409Y0083976D01*
X0129469Y0084137D01*
X0129533Y0084297D01*
X0129601Y0084455D01*
X0129672Y0084611D01*
X0129747Y0084765D01*
X0129827Y0084918D01*
X0129909Y0085068D01*
X0129996Y0085217D01*
X0130086Y0085363D01*
X0130180Y0085507D01*
X0130277Y0085649D01*
X0130378Y0085788D01*
X0130482Y0085925D01*
X0130589Y0086059D01*
X0130700Y0086190D01*
X0130813Y0086319D01*
X0130930Y0086445D01*
X0131050Y0086568D01*
X0131173Y0086688D01*
X0131299Y0086805D01*
X0131428Y0086918D01*
X0131559Y0087029D01*
X0131693Y0087136D01*
X0131830Y0087240D01*
X0131969Y0087341D01*
X0132111Y0087438D01*
X0132255Y0087532D01*
X0132401Y0087622D01*
X0132550Y0087709D01*
X0132700Y0087791D01*
X0132853Y0087871D01*
X0133007Y0087946D01*
X0133163Y0088017D01*
X0133321Y0088085D01*
X0133481Y0088149D01*
X0133642Y0088209D01*
X0133804Y0088265D01*
X0133968Y0088317D01*
X0134133Y0088364D01*
X0134299Y0088408D01*
X0134466Y0088448D01*
X0134634Y0088483D01*
X0134803Y0088515D01*
X0134973Y0088542D01*
X0135143Y0088565D01*
X0135314Y0088584D01*
X0135485Y0088599D01*
X0135657Y0088610D01*
X0135828Y0088616D01*
X0136000Y0088618D01*
X0136172Y0088616D01*
X0136343Y0088610D01*
X0136515Y0088599D01*
X0136686Y0088584D01*
X0136857Y0088565D01*
X0137027Y0088542D01*
X0137197Y0088515D01*
X0137366Y0088483D01*
X0137534Y0088448D01*
X0137701Y0088408D01*
X0137867Y0088364D01*
X0138032Y0088317D01*
X0138196Y0088265D01*
X0138358Y0088209D01*
X0138519Y0088149D01*
X0138679Y0088085D01*
X0138837Y0088017D01*
X0138993Y0087946D01*
X0139147Y0087871D01*
X0139300Y0087791D01*
X0139450Y0087709D01*
X0139599Y0087622D01*
X0139745Y0087532D01*
X0139889Y0087438D01*
X0140031Y0087341D01*
X0140170Y0087240D01*
X0140307Y0087136D01*
X0140441Y0087029D01*
X0140572Y0086918D01*
X0140701Y0086805D01*
X0140827Y0086688D01*
X0140950Y0086568D01*
X0141070Y0086445D01*
X0141187Y0086319D01*
X0141300Y0086190D01*
X0141411Y0086059D01*
X0141518Y0085925D01*
X0141622Y0085788D01*
X0141723Y0085649D01*
X0141820Y0085507D01*
X0141914Y0085363D01*
X0142004Y0085217D01*
X0142091Y0085068D01*
X0142173Y0084918D01*
X0142253Y0084765D01*
X0142328Y0084611D01*
X0142399Y0084455D01*
X0142467Y0084297D01*
X0142531Y0084137D01*
X0142591Y0083976D01*
X0142647Y0083814D01*
X0142699Y0083650D01*
X0142746Y0083485D01*
X0142790Y0083319D01*
X0142830Y0083152D01*
X0142865Y0082984D01*
X0142897Y0082815D01*
X0142924Y0082645D01*
X0142947Y0082475D01*
X0142966Y0082304D01*
X0142981Y0082133D01*
X0142992Y0081961D01*
X0142998Y0081790D01*
X0143000Y0081618D01*
X0142998Y0081446D01*
X0142992Y0081275D01*
X0142981Y0081103D01*
X0142966Y0080932D01*
X0142947Y0080761D01*
X0142924Y0080591D01*
X0142897Y0080421D01*
X0142865Y0080252D01*
X0142830Y0080084D01*
X0142790Y0079917D01*
X0142746Y0079751D01*
X0142699Y0079586D01*
X0142647Y0079422D01*
X0142591Y0079260D01*
X0142531Y0079099D01*
X0142467Y0078939D01*
X0142399Y0078781D01*
X0142328Y0078625D01*
X0142253Y0078471D01*
X0142173Y0078318D01*
X0142091Y0078168D01*
X0142004Y0078019D01*
X0141914Y0077873D01*
X0141820Y0077729D01*
X0141723Y0077587D01*
X0141622Y0077448D01*
X0141518Y0077311D01*
X0141411Y0077177D01*
X0141300Y0077046D01*
X0141187Y0076917D01*
X0141070Y0076791D01*
X0140950Y0076668D01*
X0140827Y0076548D01*
X0140701Y0076431D01*
X0140572Y0076318D01*
X0140441Y0076207D01*
X0140307Y0076100D01*
X0140170Y0075996D01*
X0140031Y0075895D01*
X0139889Y0075798D01*
X0139745Y0075704D01*
X0139599Y0075614D01*
X0139450Y0075527D01*
X0139300Y0075445D01*
X0139147Y0075365D01*
X0138993Y0075290D01*
X0138837Y0075219D01*
X0138679Y0075151D01*
X0138519Y0075087D01*
X0138358Y0075027D01*
X0138196Y0074971D01*
X0138032Y0074919D01*
X0137867Y0074872D01*
X0137701Y0074828D01*
X0137534Y0074788D01*
X0137366Y0074753D01*
X0137197Y0074721D01*
X0137027Y0074694D01*
X0136857Y0074671D01*
X0136686Y0074652D01*
X0136515Y0074637D01*
X0136343Y0074626D01*
X0136172Y0074620D01*
X0136000Y0074618D01*
X0135828Y0074620D01*
X0135657Y0074626D01*
X0135485Y0074637D01*
X0135314Y0074652D01*
X0135143Y0074671D01*
X0134973Y0074694D01*
X0134803Y0074721D01*
X0134634Y0074753D01*
X0134466Y0074788D01*
X0134299Y0074828D01*
X0134133Y0074872D01*
X0133968Y0074919D01*
X0133804Y0074971D01*
X0133642Y0075027D01*
X0133481Y0075087D01*
X0133321Y0075151D01*
X0133163Y0075219D01*
X0133007Y0075290D01*
X0132853Y0075365D01*
X0132700Y0075445D01*
X0132550Y0075527D01*
X0132401Y0075614D01*
X0132255Y0075704D01*
X0132111Y0075798D01*
X0131969Y0075895D01*
X0131830Y0075996D01*
X0131693Y0076100D01*
X0131559Y0076207D01*
X0131428Y0076318D01*
X0131299Y0076431D01*
X0131173Y0076548D01*
X0131050Y0076668D01*
X0130930Y0076791D01*
X0130813Y0076917D01*
X0130700Y0077046D01*
X0130589Y0077177D01*
X0130482Y0077311D01*
X0130378Y0077448D01*
X0130277Y0077587D01*
X0130180Y0077729D01*
X0130086Y0077873D01*
X0129996Y0078019D01*
X0129909Y0078168D01*
X0129827Y0078318D01*
X0129747Y0078471D01*
X0129672Y0078625D01*
X0129601Y0078781D01*
X0129533Y0078939D01*
X0129469Y0079099D01*
X0129409Y0079260D01*
X0129353Y0079422D01*
X0129301Y0079586D01*
X0129254Y0079751D01*
X0129210Y0079917D01*
X0129170Y0080084D01*
X0129135Y0080252D01*
X0129103Y0080421D01*
X0129076Y0080591D01*
X0129053Y0080761D01*
X0129034Y0080932D01*
X0129019Y0081103D01*
X0129008Y0081275D01*
X0129002Y0081446D01*
X0129000Y0081618D01*
X0163000Y0078618D02*
X0164000Y0078618D01*
X0164000Y0077618D01*
X0163000Y0078618D02*
X0163000Y0084618D01*
X0164000Y0084618D01*
X0164000Y0085618D01*
X0175000Y0081618D02*
X0175002Y0081681D01*
X0175008Y0081743D01*
X0175018Y0081805D01*
X0175031Y0081867D01*
X0175049Y0081927D01*
X0175070Y0081986D01*
X0175095Y0082044D01*
X0175124Y0082100D01*
X0175156Y0082154D01*
X0175191Y0082206D01*
X0175229Y0082255D01*
X0175271Y0082303D01*
X0175315Y0082347D01*
X0175363Y0082389D01*
X0175412Y0082427D01*
X0175464Y0082462D01*
X0175518Y0082494D01*
X0175574Y0082523D01*
X0175632Y0082548D01*
X0175691Y0082569D01*
X0175751Y0082587D01*
X0175813Y0082600D01*
X0175875Y0082610D01*
X0175937Y0082616D01*
X0176000Y0082618D01*
X0176063Y0082616D01*
X0176125Y0082610D01*
X0176187Y0082600D01*
X0176249Y0082587D01*
X0176309Y0082569D01*
X0176368Y0082548D01*
X0176426Y0082523D01*
X0176482Y0082494D01*
X0176536Y0082462D01*
X0176588Y0082427D01*
X0176637Y0082389D01*
X0176685Y0082347D01*
X0176729Y0082303D01*
X0176771Y0082255D01*
X0176809Y0082206D01*
X0176844Y0082154D01*
X0176876Y0082100D01*
X0176905Y0082044D01*
X0176930Y0081986D01*
X0176951Y0081927D01*
X0176969Y0081867D01*
X0176982Y0081805D01*
X0176992Y0081743D01*
X0176998Y0081681D01*
X0177000Y0081618D01*
X0176998Y0081555D01*
X0176992Y0081493D01*
X0176982Y0081431D01*
X0176969Y0081369D01*
X0176951Y0081309D01*
X0176930Y0081250D01*
X0176905Y0081192D01*
X0176876Y0081136D01*
X0176844Y0081082D01*
X0176809Y0081030D01*
X0176771Y0080981D01*
X0176729Y0080933D01*
X0176685Y0080889D01*
X0176637Y0080847D01*
X0176588Y0080809D01*
X0176536Y0080774D01*
X0176482Y0080742D01*
X0176426Y0080713D01*
X0176368Y0080688D01*
X0176309Y0080667D01*
X0176249Y0080649D01*
X0176187Y0080636D01*
X0176125Y0080626D01*
X0176063Y0080620D01*
X0176000Y0080618D01*
X0175937Y0080620D01*
X0175875Y0080626D01*
X0175813Y0080636D01*
X0175751Y0080649D01*
X0175691Y0080667D01*
X0175632Y0080688D01*
X0175574Y0080713D01*
X0175518Y0080742D01*
X0175464Y0080774D01*
X0175412Y0080809D01*
X0175363Y0080847D01*
X0175315Y0080889D01*
X0175271Y0080933D01*
X0175229Y0080981D01*
X0175191Y0081030D01*
X0175156Y0081082D01*
X0175124Y0081136D01*
X0175095Y0081192D01*
X0175070Y0081250D01*
X0175049Y0081309D01*
X0175031Y0081369D01*
X0175018Y0081431D01*
X0175008Y0081493D01*
X0175002Y0081555D01*
X0175000Y0081618D01*
X0169000Y0081618D02*
X0169002Y0081790D01*
X0169008Y0081961D01*
X0169019Y0082133D01*
X0169034Y0082304D01*
X0169053Y0082475D01*
X0169076Y0082645D01*
X0169103Y0082815D01*
X0169135Y0082984D01*
X0169170Y0083152D01*
X0169210Y0083319D01*
X0169254Y0083485D01*
X0169301Y0083650D01*
X0169353Y0083814D01*
X0169409Y0083976D01*
X0169469Y0084137D01*
X0169533Y0084297D01*
X0169601Y0084455D01*
X0169672Y0084611D01*
X0169747Y0084765D01*
X0169827Y0084918D01*
X0169909Y0085068D01*
X0169996Y0085217D01*
X0170086Y0085363D01*
X0170180Y0085507D01*
X0170277Y0085649D01*
X0170378Y0085788D01*
X0170482Y0085925D01*
X0170589Y0086059D01*
X0170700Y0086190D01*
X0170813Y0086319D01*
X0170930Y0086445D01*
X0171050Y0086568D01*
X0171173Y0086688D01*
X0171299Y0086805D01*
X0171428Y0086918D01*
X0171559Y0087029D01*
X0171693Y0087136D01*
X0171830Y0087240D01*
X0171969Y0087341D01*
X0172111Y0087438D01*
X0172255Y0087532D01*
X0172401Y0087622D01*
X0172550Y0087709D01*
X0172700Y0087791D01*
X0172853Y0087871D01*
X0173007Y0087946D01*
X0173163Y0088017D01*
X0173321Y0088085D01*
X0173481Y0088149D01*
X0173642Y0088209D01*
X0173804Y0088265D01*
X0173968Y0088317D01*
X0174133Y0088364D01*
X0174299Y0088408D01*
X0174466Y0088448D01*
X0174634Y0088483D01*
X0174803Y0088515D01*
X0174973Y0088542D01*
X0175143Y0088565D01*
X0175314Y0088584D01*
X0175485Y0088599D01*
X0175657Y0088610D01*
X0175828Y0088616D01*
X0176000Y0088618D01*
X0176172Y0088616D01*
X0176343Y0088610D01*
X0176515Y0088599D01*
X0176686Y0088584D01*
X0176857Y0088565D01*
X0177027Y0088542D01*
X0177197Y0088515D01*
X0177366Y0088483D01*
X0177534Y0088448D01*
X0177701Y0088408D01*
X0177867Y0088364D01*
X0178032Y0088317D01*
X0178196Y0088265D01*
X0178358Y0088209D01*
X0178519Y0088149D01*
X0178679Y0088085D01*
X0178837Y0088017D01*
X0178993Y0087946D01*
X0179147Y0087871D01*
X0179300Y0087791D01*
X0179450Y0087709D01*
X0179599Y0087622D01*
X0179745Y0087532D01*
X0179889Y0087438D01*
X0180031Y0087341D01*
X0180170Y0087240D01*
X0180307Y0087136D01*
X0180441Y0087029D01*
X0180572Y0086918D01*
X0180701Y0086805D01*
X0180827Y0086688D01*
X0180950Y0086568D01*
X0181070Y0086445D01*
X0181187Y0086319D01*
X0181300Y0086190D01*
X0181411Y0086059D01*
X0181518Y0085925D01*
X0181622Y0085788D01*
X0181723Y0085649D01*
X0181820Y0085507D01*
X0181914Y0085363D01*
X0182004Y0085217D01*
X0182091Y0085068D01*
X0182173Y0084918D01*
X0182253Y0084765D01*
X0182328Y0084611D01*
X0182399Y0084455D01*
X0182467Y0084297D01*
X0182531Y0084137D01*
X0182591Y0083976D01*
X0182647Y0083814D01*
X0182699Y0083650D01*
X0182746Y0083485D01*
X0182790Y0083319D01*
X0182830Y0083152D01*
X0182865Y0082984D01*
X0182897Y0082815D01*
X0182924Y0082645D01*
X0182947Y0082475D01*
X0182966Y0082304D01*
X0182981Y0082133D01*
X0182992Y0081961D01*
X0182998Y0081790D01*
X0183000Y0081618D01*
X0182998Y0081446D01*
X0182992Y0081275D01*
X0182981Y0081103D01*
X0182966Y0080932D01*
X0182947Y0080761D01*
X0182924Y0080591D01*
X0182897Y0080421D01*
X0182865Y0080252D01*
X0182830Y0080084D01*
X0182790Y0079917D01*
X0182746Y0079751D01*
X0182699Y0079586D01*
X0182647Y0079422D01*
X0182591Y0079260D01*
X0182531Y0079099D01*
X0182467Y0078939D01*
X0182399Y0078781D01*
X0182328Y0078625D01*
X0182253Y0078471D01*
X0182173Y0078318D01*
X0182091Y0078168D01*
X0182004Y0078019D01*
X0181914Y0077873D01*
X0181820Y0077729D01*
X0181723Y0077587D01*
X0181622Y0077448D01*
X0181518Y0077311D01*
X0181411Y0077177D01*
X0181300Y0077046D01*
X0181187Y0076917D01*
X0181070Y0076791D01*
X0180950Y0076668D01*
X0180827Y0076548D01*
X0180701Y0076431D01*
X0180572Y0076318D01*
X0180441Y0076207D01*
X0180307Y0076100D01*
X0180170Y0075996D01*
X0180031Y0075895D01*
X0179889Y0075798D01*
X0179745Y0075704D01*
X0179599Y0075614D01*
X0179450Y0075527D01*
X0179300Y0075445D01*
X0179147Y0075365D01*
X0178993Y0075290D01*
X0178837Y0075219D01*
X0178679Y0075151D01*
X0178519Y0075087D01*
X0178358Y0075027D01*
X0178196Y0074971D01*
X0178032Y0074919D01*
X0177867Y0074872D01*
X0177701Y0074828D01*
X0177534Y0074788D01*
X0177366Y0074753D01*
X0177197Y0074721D01*
X0177027Y0074694D01*
X0176857Y0074671D01*
X0176686Y0074652D01*
X0176515Y0074637D01*
X0176343Y0074626D01*
X0176172Y0074620D01*
X0176000Y0074618D01*
X0175828Y0074620D01*
X0175657Y0074626D01*
X0175485Y0074637D01*
X0175314Y0074652D01*
X0175143Y0074671D01*
X0174973Y0074694D01*
X0174803Y0074721D01*
X0174634Y0074753D01*
X0174466Y0074788D01*
X0174299Y0074828D01*
X0174133Y0074872D01*
X0173968Y0074919D01*
X0173804Y0074971D01*
X0173642Y0075027D01*
X0173481Y0075087D01*
X0173321Y0075151D01*
X0173163Y0075219D01*
X0173007Y0075290D01*
X0172853Y0075365D01*
X0172700Y0075445D01*
X0172550Y0075527D01*
X0172401Y0075614D01*
X0172255Y0075704D01*
X0172111Y0075798D01*
X0171969Y0075895D01*
X0171830Y0075996D01*
X0171693Y0076100D01*
X0171559Y0076207D01*
X0171428Y0076318D01*
X0171299Y0076431D01*
X0171173Y0076548D01*
X0171050Y0076668D01*
X0170930Y0076791D01*
X0170813Y0076917D01*
X0170700Y0077046D01*
X0170589Y0077177D01*
X0170482Y0077311D01*
X0170378Y0077448D01*
X0170277Y0077587D01*
X0170180Y0077729D01*
X0170086Y0077873D01*
X0169996Y0078019D01*
X0169909Y0078168D01*
X0169827Y0078318D01*
X0169747Y0078471D01*
X0169672Y0078625D01*
X0169601Y0078781D01*
X0169533Y0078939D01*
X0169469Y0079099D01*
X0169409Y0079260D01*
X0169353Y0079422D01*
X0169301Y0079586D01*
X0169254Y0079751D01*
X0169210Y0079917D01*
X0169170Y0080084D01*
X0169135Y0080252D01*
X0169103Y0080421D01*
X0169076Y0080591D01*
X0169053Y0080761D01*
X0169034Y0080932D01*
X0169019Y0081103D01*
X0169008Y0081275D01*
X0169002Y0081446D01*
X0169000Y0081618D01*
X0203000Y0078618D02*
X0204000Y0078618D01*
X0204000Y0077618D01*
X0203000Y0078618D02*
X0203000Y0084618D01*
X0204000Y0084618D01*
X0204000Y0085618D01*
X0207500Y0093618D02*
X0211500Y0093618D01*
X0221000Y0093618D01*
X0224500Y0093618D01*
X0228000Y0085618D02*
X0228000Y0084618D01*
X0229000Y0084618D01*
X0229000Y0078618D01*
X0228000Y0078618D01*
X0228000Y0077618D01*
X0224500Y0069618D02*
X0221000Y0069618D01*
X0211000Y0069618D01*
X0207500Y0069618D01*
X0215000Y0081618D02*
X0215002Y0081681D01*
X0215008Y0081743D01*
X0215018Y0081805D01*
X0215031Y0081867D01*
X0215049Y0081927D01*
X0215070Y0081986D01*
X0215095Y0082044D01*
X0215124Y0082100D01*
X0215156Y0082154D01*
X0215191Y0082206D01*
X0215229Y0082255D01*
X0215271Y0082303D01*
X0215315Y0082347D01*
X0215363Y0082389D01*
X0215412Y0082427D01*
X0215464Y0082462D01*
X0215518Y0082494D01*
X0215574Y0082523D01*
X0215632Y0082548D01*
X0215691Y0082569D01*
X0215751Y0082587D01*
X0215813Y0082600D01*
X0215875Y0082610D01*
X0215937Y0082616D01*
X0216000Y0082618D01*
X0216063Y0082616D01*
X0216125Y0082610D01*
X0216187Y0082600D01*
X0216249Y0082587D01*
X0216309Y0082569D01*
X0216368Y0082548D01*
X0216426Y0082523D01*
X0216482Y0082494D01*
X0216536Y0082462D01*
X0216588Y0082427D01*
X0216637Y0082389D01*
X0216685Y0082347D01*
X0216729Y0082303D01*
X0216771Y0082255D01*
X0216809Y0082206D01*
X0216844Y0082154D01*
X0216876Y0082100D01*
X0216905Y0082044D01*
X0216930Y0081986D01*
X0216951Y0081927D01*
X0216969Y0081867D01*
X0216982Y0081805D01*
X0216992Y0081743D01*
X0216998Y0081681D01*
X0217000Y0081618D01*
X0216998Y0081555D01*
X0216992Y0081493D01*
X0216982Y0081431D01*
X0216969Y0081369D01*
X0216951Y0081309D01*
X0216930Y0081250D01*
X0216905Y0081192D01*
X0216876Y0081136D01*
X0216844Y0081082D01*
X0216809Y0081030D01*
X0216771Y0080981D01*
X0216729Y0080933D01*
X0216685Y0080889D01*
X0216637Y0080847D01*
X0216588Y0080809D01*
X0216536Y0080774D01*
X0216482Y0080742D01*
X0216426Y0080713D01*
X0216368Y0080688D01*
X0216309Y0080667D01*
X0216249Y0080649D01*
X0216187Y0080636D01*
X0216125Y0080626D01*
X0216063Y0080620D01*
X0216000Y0080618D01*
X0215937Y0080620D01*
X0215875Y0080626D01*
X0215813Y0080636D01*
X0215751Y0080649D01*
X0215691Y0080667D01*
X0215632Y0080688D01*
X0215574Y0080713D01*
X0215518Y0080742D01*
X0215464Y0080774D01*
X0215412Y0080809D01*
X0215363Y0080847D01*
X0215315Y0080889D01*
X0215271Y0080933D01*
X0215229Y0080981D01*
X0215191Y0081030D01*
X0215156Y0081082D01*
X0215124Y0081136D01*
X0215095Y0081192D01*
X0215070Y0081250D01*
X0215049Y0081309D01*
X0215031Y0081369D01*
X0215018Y0081431D01*
X0215008Y0081493D01*
X0215002Y0081555D01*
X0215000Y0081618D01*
X0209000Y0081618D02*
X0209002Y0081790D01*
X0209008Y0081961D01*
X0209019Y0082133D01*
X0209034Y0082304D01*
X0209053Y0082475D01*
X0209076Y0082645D01*
X0209103Y0082815D01*
X0209135Y0082984D01*
X0209170Y0083152D01*
X0209210Y0083319D01*
X0209254Y0083485D01*
X0209301Y0083650D01*
X0209353Y0083814D01*
X0209409Y0083976D01*
X0209469Y0084137D01*
X0209533Y0084297D01*
X0209601Y0084455D01*
X0209672Y0084611D01*
X0209747Y0084765D01*
X0209827Y0084918D01*
X0209909Y0085068D01*
X0209996Y0085217D01*
X0210086Y0085363D01*
X0210180Y0085507D01*
X0210277Y0085649D01*
X0210378Y0085788D01*
X0210482Y0085925D01*
X0210589Y0086059D01*
X0210700Y0086190D01*
X0210813Y0086319D01*
X0210930Y0086445D01*
X0211050Y0086568D01*
X0211173Y0086688D01*
X0211299Y0086805D01*
X0211428Y0086918D01*
X0211559Y0087029D01*
X0211693Y0087136D01*
X0211830Y0087240D01*
X0211969Y0087341D01*
X0212111Y0087438D01*
X0212255Y0087532D01*
X0212401Y0087622D01*
X0212550Y0087709D01*
X0212700Y0087791D01*
X0212853Y0087871D01*
X0213007Y0087946D01*
X0213163Y0088017D01*
X0213321Y0088085D01*
X0213481Y0088149D01*
X0213642Y0088209D01*
X0213804Y0088265D01*
X0213968Y0088317D01*
X0214133Y0088364D01*
X0214299Y0088408D01*
X0214466Y0088448D01*
X0214634Y0088483D01*
X0214803Y0088515D01*
X0214973Y0088542D01*
X0215143Y0088565D01*
X0215314Y0088584D01*
X0215485Y0088599D01*
X0215657Y0088610D01*
X0215828Y0088616D01*
X0216000Y0088618D01*
X0216172Y0088616D01*
X0216343Y0088610D01*
X0216515Y0088599D01*
X0216686Y0088584D01*
X0216857Y0088565D01*
X0217027Y0088542D01*
X0217197Y0088515D01*
X0217366Y0088483D01*
X0217534Y0088448D01*
X0217701Y0088408D01*
X0217867Y0088364D01*
X0218032Y0088317D01*
X0218196Y0088265D01*
X0218358Y0088209D01*
X0218519Y0088149D01*
X0218679Y0088085D01*
X0218837Y0088017D01*
X0218993Y0087946D01*
X0219147Y0087871D01*
X0219300Y0087791D01*
X0219450Y0087709D01*
X0219599Y0087622D01*
X0219745Y0087532D01*
X0219889Y0087438D01*
X0220031Y0087341D01*
X0220170Y0087240D01*
X0220307Y0087136D01*
X0220441Y0087029D01*
X0220572Y0086918D01*
X0220701Y0086805D01*
X0220827Y0086688D01*
X0220950Y0086568D01*
X0221070Y0086445D01*
X0221187Y0086319D01*
X0221300Y0086190D01*
X0221411Y0086059D01*
X0221518Y0085925D01*
X0221622Y0085788D01*
X0221723Y0085649D01*
X0221820Y0085507D01*
X0221914Y0085363D01*
X0222004Y0085217D01*
X0222091Y0085068D01*
X0222173Y0084918D01*
X0222253Y0084765D01*
X0222328Y0084611D01*
X0222399Y0084455D01*
X0222467Y0084297D01*
X0222531Y0084137D01*
X0222591Y0083976D01*
X0222647Y0083814D01*
X0222699Y0083650D01*
X0222746Y0083485D01*
X0222790Y0083319D01*
X0222830Y0083152D01*
X0222865Y0082984D01*
X0222897Y0082815D01*
X0222924Y0082645D01*
X0222947Y0082475D01*
X0222966Y0082304D01*
X0222981Y0082133D01*
X0222992Y0081961D01*
X0222998Y0081790D01*
X0223000Y0081618D01*
X0222998Y0081446D01*
X0222992Y0081275D01*
X0222981Y0081103D01*
X0222966Y0080932D01*
X0222947Y0080761D01*
X0222924Y0080591D01*
X0222897Y0080421D01*
X0222865Y0080252D01*
X0222830Y0080084D01*
X0222790Y0079917D01*
X0222746Y0079751D01*
X0222699Y0079586D01*
X0222647Y0079422D01*
X0222591Y0079260D01*
X0222531Y0079099D01*
X0222467Y0078939D01*
X0222399Y0078781D01*
X0222328Y0078625D01*
X0222253Y0078471D01*
X0222173Y0078318D01*
X0222091Y0078168D01*
X0222004Y0078019D01*
X0221914Y0077873D01*
X0221820Y0077729D01*
X0221723Y0077587D01*
X0221622Y0077448D01*
X0221518Y0077311D01*
X0221411Y0077177D01*
X0221300Y0077046D01*
X0221187Y0076917D01*
X0221070Y0076791D01*
X0220950Y0076668D01*
X0220827Y0076548D01*
X0220701Y0076431D01*
X0220572Y0076318D01*
X0220441Y0076207D01*
X0220307Y0076100D01*
X0220170Y0075996D01*
X0220031Y0075895D01*
X0219889Y0075798D01*
X0219745Y0075704D01*
X0219599Y0075614D01*
X0219450Y0075527D01*
X0219300Y0075445D01*
X0219147Y0075365D01*
X0218993Y0075290D01*
X0218837Y0075219D01*
X0218679Y0075151D01*
X0218519Y0075087D01*
X0218358Y0075027D01*
X0218196Y0074971D01*
X0218032Y0074919D01*
X0217867Y0074872D01*
X0217701Y0074828D01*
X0217534Y0074788D01*
X0217366Y0074753D01*
X0217197Y0074721D01*
X0217027Y0074694D01*
X0216857Y0074671D01*
X0216686Y0074652D01*
X0216515Y0074637D01*
X0216343Y0074626D01*
X0216172Y0074620D01*
X0216000Y0074618D01*
X0215828Y0074620D01*
X0215657Y0074626D01*
X0215485Y0074637D01*
X0215314Y0074652D01*
X0215143Y0074671D01*
X0214973Y0074694D01*
X0214803Y0074721D01*
X0214634Y0074753D01*
X0214466Y0074788D01*
X0214299Y0074828D01*
X0214133Y0074872D01*
X0213968Y0074919D01*
X0213804Y0074971D01*
X0213642Y0075027D01*
X0213481Y0075087D01*
X0213321Y0075151D01*
X0213163Y0075219D01*
X0213007Y0075290D01*
X0212853Y0075365D01*
X0212700Y0075445D01*
X0212550Y0075527D01*
X0212401Y0075614D01*
X0212255Y0075704D01*
X0212111Y0075798D01*
X0211969Y0075895D01*
X0211830Y0075996D01*
X0211693Y0076100D01*
X0211559Y0076207D01*
X0211428Y0076318D01*
X0211299Y0076431D01*
X0211173Y0076548D01*
X0211050Y0076668D01*
X0210930Y0076791D01*
X0210813Y0076917D01*
X0210700Y0077046D01*
X0210589Y0077177D01*
X0210482Y0077311D01*
X0210378Y0077448D01*
X0210277Y0077587D01*
X0210180Y0077729D01*
X0210086Y0077873D01*
X0209996Y0078019D01*
X0209909Y0078168D01*
X0209827Y0078318D01*
X0209747Y0078471D01*
X0209672Y0078625D01*
X0209601Y0078781D01*
X0209533Y0078939D01*
X0209469Y0079099D01*
X0209409Y0079260D01*
X0209353Y0079422D01*
X0209301Y0079586D01*
X0209254Y0079751D01*
X0209210Y0079917D01*
X0209170Y0080084D01*
X0209135Y0080252D01*
X0209103Y0080421D01*
X0209076Y0080591D01*
X0209053Y0080761D01*
X0209034Y0080932D01*
X0209019Y0081103D01*
X0209008Y0081275D01*
X0209002Y0081446D01*
X0209000Y0081618D01*
X0193000Y0115118D02*
X0169000Y0115118D01*
X0168840Y0115120D01*
X0168681Y0115126D01*
X0168522Y0115136D01*
X0168363Y0115149D01*
X0168204Y0115167D01*
X0168046Y0115188D01*
X0167889Y0115214D01*
X0167732Y0115243D01*
X0167576Y0115276D01*
X0167421Y0115313D01*
X0167266Y0115353D01*
X0167113Y0115398D01*
X0166961Y0115446D01*
X0166810Y0115498D01*
X0166661Y0115554D01*
X0166513Y0115613D01*
X0166366Y0115676D01*
X0166221Y0115742D01*
X0166078Y0115812D01*
X0165936Y0115886D01*
X0165796Y0115962D01*
X0165658Y0116043D01*
X0165523Y0116126D01*
X0165389Y0116213D01*
X0165257Y0116304D01*
X0165128Y0116397D01*
X0165001Y0116494D01*
X0164876Y0116593D01*
X0164754Y0116696D01*
X0164635Y0116802D01*
X0164518Y0116910D01*
X0164404Y0117022D01*
X0164292Y0117136D01*
X0164184Y0117253D01*
X0164078Y0117372D01*
X0163975Y0117494D01*
X0163876Y0117619D01*
X0163779Y0117746D01*
X0163686Y0117875D01*
X0163595Y0118007D01*
X0163508Y0118141D01*
X0163425Y0118276D01*
X0163344Y0118414D01*
X0163268Y0118554D01*
X0163194Y0118696D01*
X0163124Y0118839D01*
X0163058Y0118984D01*
X0162995Y0119131D01*
X0162936Y0119279D01*
X0162880Y0119428D01*
X0162828Y0119579D01*
X0162780Y0119731D01*
X0162735Y0119884D01*
X0162695Y0120039D01*
X0162658Y0120194D01*
X0162625Y0120350D01*
X0162596Y0120507D01*
X0162570Y0120664D01*
X0162549Y0120822D01*
X0162531Y0120981D01*
X0162518Y0121140D01*
X0162508Y0121299D01*
X0162502Y0121458D01*
X0162500Y0121618D01*
X0162502Y0121778D01*
X0162508Y0121937D01*
X0162518Y0122096D01*
X0162531Y0122255D01*
X0162549Y0122414D01*
X0162570Y0122572D01*
X0162596Y0122729D01*
X0162625Y0122886D01*
X0162658Y0123042D01*
X0162695Y0123197D01*
X0162735Y0123352D01*
X0162780Y0123505D01*
X0162828Y0123657D01*
X0162880Y0123808D01*
X0162936Y0123957D01*
X0162995Y0124105D01*
X0163058Y0124252D01*
X0163124Y0124397D01*
X0163194Y0124540D01*
X0163268Y0124682D01*
X0163344Y0124822D01*
X0163425Y0124960D01*
X0163508Y0125095D01*
X0163595Y0125229D01*
X0163686Y0125361D01*
X0163779Y0125490D01*
X0163876Y0125617D01*
X0163975Y0125742D01*
X0164078Y0125864D01*
X0164184Y0125983D01*
X0164292Y0126100D01*
X0164404Y0126214D01*
X0164518Y0126326D01*
X0164635Y0126434D01*
X0164754Y0126540D01*
X0164876Y0126643D01*
X0165001Y0126742D01*
X0165128Y0126839D01*
X0165257Y0126932D01*
X0165389Y0127023D01*
X0165523Y0127110D01*
X0165658Y0127193D01*
X0165796Y0127274D01*
X0165936Y0127350D01*
X0166078Y0127424D01*
X0166221Y0127494D01*
X0166366Y0127560D01*
X0166513Y0127623D01*
X0166661Y0127682D01*
X0166810Y0127738D01*
X0166961Y0127790D01*
X0167113Y0127838D01*
X0167266Y0127883D01*
X0167421Y0127923D01*
X0167576Y0127960D01*
X0167732Y0127993D01*
X0167889Y0128022D01*
X0168046Y0128048D01*
X0168204Y0128069D01*
X0168363Y0128087D01*
X0168522Y0128100D01*
X0168681Y0128110D01*
X0168840Y0128116D01*
X0169000Y0128118D01*
X0193000Y0128118D01*
X0193160Y0128116D01*
X0193319Y0128110D01*
X0193478Y0128100D01*
X0193637Y0128087D01*
X0193796Y0128069D01*
X0193954Y0128048D01*
X0194111Y0128022D01*
X0194268Y0127993D01*
X0194424Y0127960D01*
X0194579Y0127923D01*
X0194734Y0127883D01*
X0194887Y0127838D01*
X0195039Y0127790D01*
X0195190Y0127738D01*
X0195339Y0127682D01*
X0195487Y0127623D01*
X0195634Y0127560D01*
X0195779Y0127494D01*
X0195922Y0127424D01*
X0196064Y0127350D01*
X0196204Y0127274D01*
X0196342Y0127193D01*
X0196477Y0127110D01*
X0196611Y0127023D01*
X0196743Y0126932D01*
X0196872Y0126839D01*
X0196999Y0126742D01*
X0197124Y0126643D01*
X0197246Y0126540D01*
X0197365Y0126434D01*
X0197482Y0126326D01*
X0197596Y0126214D01*
X0197708Y0126100D01*
X0197816Y0125983D01*
X0197922Y0125864D01*
X0198025Y0125742D01*
X0198124Y0125617D01*
X0198221Y0125490D01*
X0198314Y0125361D01*
X0198405Y0125229D01*
X0198492Y0125095D01*
X0198575Y0124960D01*
X0198656Y0124822D01*
X0198732Y0124682D01*
X0198806Y0124540D01*
X0198876Y0124397D01*
X0198942Y0124252D01*
X0199005Y0124105D01*
X0199064Y0123957D01*
X0199120Y0123808D01*
X0199172Y0123657D01*
X0199220Y0123505D01*
X0199265Y0123352D01*
X0199305Y0123197D01*
X0199342Y0123042D01*
X0199375Y0122886D01*
X0199404Y0122729D01*
X0199430Y0122572D01*
X0199451Y0122414D01*
X0199469Y0122255D01*
X0199482Y0122096D01*
X0199492Y0121937D01*
X0199498Y0121778D01*
X0199500Y0121618D01*
X0199498Y0121458D01*
X0199492Y0121299D01*
X0199482Y0121140D01*
X0199469Y0120981D01*
X0199451Y0120822D01*
X0199430Y0120664D01*
X0199404Y0120507D01*
X0199375Y0120350D01*
X0199342Y0120194D01*
X0199305Y0120039D01*
X0199265Y0119884D01*
X0199220Y0119731D01*
X0199172Y0119579D01*
X0199120Y0119428D01*
X0199064Y0119279D01*
X0199005Y0119131D01*
X0198942Y0118984D01*
X0198876Y0118839D01*
X0198806Y0118696D01*
X0198732Y0118554D01*
X0198656Y0118414D01*
X0198575Y0118276D01*
X0198492Y0118141D01*
X0198405Y0118007D01*
X0198314Y0117875D01*
X0198221Y0117746D01*
X0198124Y0117619D01*
X0198025Y0117494D01*
X0197922Y0117372D01*
X0197816Y0117253D01*
X0197708Y0117136D01*
X0197596Y0117022D01*
X0197482Y0116910D01*
X0197365Y0116802D01*
X0197246Y0116696D01*
X0197124Y0116593D01*
X0196999Y0116494D01*
X0196872Y0116397D01*
X0196743Y0116304D01*
X0196611Y0116213D01*
X0196477Y0116126D01*
X0196342Y0116043D01*
X0196204Y0115962D01*
X0196064Y0115886D01*
X0195922Y0115812D01*
X0195779Y0115742D01*
X0195634Y0115676D01*
X0195487Y0115613D01*
X0195339Y0115554D01*
X0195190Y0115498D01*
X0195039Y0115446D01*
X0194887Y0115398D01*
X0194734Y0115353D01*
X0194579Y0115313D01*
X0194424Y0115276D01*
X0194268Y0115243D01*
X0194111Y0115214D01*
X0193954Y0115188D01*
X0193796Y0115167D01*
X0193637Y0115149D01*
X0193478Y0115136D01*
X0193319Y0115126D01*
X0193160Y0115120D01*
X0193000Y0115118D01*
X0186000Y0121618D02*
X0183500Y0121618D01*
X0183500Y0124618D01*
X0182000Y0124618D02*
X0182000Y0118618D01*
X0180000Y0118618D01*
X0180000Y0124618D01*
X0182000Y0124618D01*
X0183500Y0121618D02*
X0183500Y0118618D01*
X0178500Y0118618D02*
X0178500Y0121618D01*
X0176000Y0121618D01*
X0178500Y0121618D02*
X0178500Y0124618D01*
X0027400Y0061818D02*
X0027281Y0061910D01*
X0027164Y0062004D01*
X0027050Y0062102D01*
X0026938Y0062202D01*
X0026828Y0062306D01*
X0026722Y0062411D01*
X0026617Y0062520D01*
X0026516Y0062631D01*
X0026418Y0062745D01*
X0026322Y0062861D01*
X0026229Y0062979D01*
X0026140Y0063100D01*
X0026053Y0063223D01*
X0025970Y0063348D01*
X0025889Y0063475D01*
X0025812Y0063604D01*
X0025738Y0063735D01*
X0025667Y0063868D01*
X0025600Y0064002D01*
X0025536Y0064138D01*
X0025476Y0064276D01*
X0025419Y0064415D01*
X0025366Y0064556D01*
X0025316Y0064698D01*
X0025269Y0064841D01*
X0025227Y0064985D01*
X0025187Y0065130D01*
X0025152Y0065276D01*
X0025120Y0065423D01*
X0025092Y0065571D01*
X0025068Y0065719D01*
X0025047Y0065868D01*
X0025030Y0066018D01*
X0025017Y0066167D01*
X0025008Y0066317D01*
X0025002Y0066468D01*
X0025000Y0066618D01*
X0034683Y0061882D02*
X0034802Y0061976D01*
X0034918Y0062074D01*
X0035032Y0062174D01*
X0035143Y0062278D01*
X0035251Y0062384D01*
X0035357Y0062492D01*
X0035459Y0062604D01*
X0035559Y0062718D01*
X0035657Y0062834D01*
X0035751Y0062953D01*
X0035842Y0063074D01*
X0035930Y0063198D01*
X0036015Y0063324D01*
X0036096Y0063451D01*
X0036175Y0063581D01*
X0036250Y0063713D01*
X0036321Y0063846D01*
X0036390Y0063982D01*
X0036455Y0064119D01*
X0036516Y0064257D01*
X0036574Y0064398D01*
X0036628Y0064539D01*
X0036679Y0064682D01*
X0036726Y0064826D01*
X0036770Y0064971D01*
X0036809Y0065118D01*
X0036845Y0065265D01*
X0036878Y0065413D01*
X0036906Y0065562D01*
X0036931Y0065712D01*
X0036952Y0065862D01*
X0036969Y0066012D01*
X0036983Y0066164D01*
X0036992Y0066315D01*
X0036998Y0066466D01*
X0037000Y0066618D01*
X0027513Y0071500D02*
X0027388Y0071409D01*
X0027266Y0071315D01*
X0027147Y0071217D01*
X0027030Y0071117D01*
X0026916Y0071013D01*
X0026804Y0070907D01*
X0026696Y0070798D01*
X0026590Y0070686D01*
X0026487Y0070571D01*
X0026387Y0070454D01*
X0026289Y0070334D01*
X0026196Y0070212D01*
X0026105Y0070088D01*
X0026017Y0069961D01*
X0025933Y0069832D01*
X0025852Y0069700D01*
X0025775Y0069567D01*
X0025701Y0069432D01*
X0025630Y0069295D01*
X0025563Y0069156D01*
X0025500Y0069016D01*
X0025440Y0068873D01*
X0025384Y0068730D01*
X0025332Y0068585D01*
X0025283Y0068439D01*
X0025238Y0068291D01*
X0025197Y0068143D01*
X0025160Y0067993D01*
X0025126Y0067843D01*
X0025097Y0067691D01*
X0025071Y0067539D01*
X0025049Y0067387D01*
X0025032Y0067234D01*
X0025018Y0067080D01*
X0025008Y0066926D01*
X0025002Y0066772D01*
X0025000Y0066618D01*
X0034683Y0071354D02*
X0034802Y0071260D01*
X0034918Y0071162D01*
X0035032Y0071062D01*
X0035143Y0070958D01*
X0035251Y0070852D01*
X0035357Y0070744D01*
X0035459Y0070632D01*
X0035559Y0070518D01*
X0035657Y0070402D01*
X0035751Y0070283D01*
X0035842Y0070162D01*
X0035930Y0070038D01*
X0036015Y0069912D01*
X0036096Y0069785D01*
X0036175Y0069655D01*
X0036250Y0069523D01*
X0036321Y0069390D01*
X0036390Y0069254D01*
X0036455Y0069117D01*
X0036516Y0068979D01*
X0036574Y0068838D01*
X0036628Y0068697D01*
X0036679Y0068554D01*
X0036726Y0068410D01*
X0036770Y0068265D01*
X0036809Y0068118D01*
X0036845Y0067971D01*
X0036878Y0067823D01*
X0036906Y0067674D01*
X0036931Y0067524D01*
X0036952Y0067374D01*
X0036969Y0067224D01*
X0036983Y0067072D01*
X0036992Y0066921D01*
X0036998Y0066770D01*
X0037000Y0066618D01*
D12*
X0029250Y0074368D02*
X0029250Y0077371D01*
X0029250Y0078972D02*
X0029250Y0081975D01*
X0029250Y0083576D02*
X0029250Y0085828D01*
X0028499Y0086579D01*
X0025497Y0086579D01*
X0024746Y0085828D01*
X0024746Y0083576D01*
X0029250Y0083576D01*
X0031500Y0086091D02*
X0031500Y0087146D01*
X0029250Y0088180D02*
X0026247Y0091182D01*
X0025497Y0091182D01*
X0024746Y0090432D01*
X0024746Y0088931D01*
X0025497Y0088180D01*
X0029250Y0088180D02*
X0029250Y0091182D01*
X0035472Y0082116D02*
X0035687Y0082220D01*
X0035900Y0082329D01*
X0036110Y0082443D01*
X0036317Y0082562D01*
X0036522Y0082685D01*
X0036724Y0082813D01*
X0036923Y0082946D01*
X0037118Y0083083D01*
X0037311Y0083224D01*
X0037500Y0083370D01*
X0037500Y0099866D01*
X0037998Y0098972D02*
X0037998Y0101975D01*
X0035746Y0101224D02*
X0037998Y0098972D01*
X0037998Y0097371D02*
X0038749Y0096620D01*
X0038749Y0094368D01*
X0040250Y0094368D02*
X0035746Y0094368D01*
X0035746Y0096620D01*
X0036497Y0097371D01*
X0037998Y0097371D01*
X0038749Y0095869D02*
X0040250Y0097371D01*
X0040250Y0101224D02*
X0035746Y0101224D01*
X0031500Y0097146D02*
X0031500Y0096091D01*
X0035378Y0101164D02*
X0035603Y0101057D01*
X0035826Y0100945D01*
X0036046Y0100828D01*
X0036263Y0100706D01*
X0036478Y0100578D01*
X0036689Y0100445D01*
X0036897Y0100308D01*
X0037101Y0100165D01*
X0037303Y0100018D01*
X0037500Y0099866D01*
X0026528Y0101118D02*
X0026298Y0101006D01*
X0026071Y0100889D01*
X0025847Y0100767D01*
X0025626Y0100639D01*
X0025409Y0100505D01*
X0025194Y0100367D01*
X0024983Y0100223D01*
X0024776Y0100074D01*
X0024572Y0099920D01*
X0024372Y0099762D01*
X0024176Y0099598D01*
X0023984Y0099430D01*
X0023796Y0099257D01*
X0023612Y0099079D01*
X0023433Y0098898D01*
X0023258Y0098711D01*
X0023088Y0098521D01*
X0022923Y0098327D01*
X0022762Y0098128D01*
X0022606Y0097926D01*
X0022455Y0097720D01*
X0022309Y0097510D01*
X0022169Y0097297D01*
X0022033Y0097081D01*
X0021903Y0096861D01*
X0021778Y0096638D01*
X0021659Y0096413D01*
X0021545Y0096184D01*
X0021437Y0095953D01*
X0021334Y0095719D01*
X0021237Y0095483D01*
X0021146Y0095244D01*
X0021061Y0095004D01*
X0020981Y0094761D01*
X0020908Y0094516D01*
X0020840Y0094270D01*
X0020779Y0094022D01*
X0020724Y0093773D01*
X0020674Y0093523D01*
X0020631Y0093271D01*
X0020594Y0093018D01*
X0020563Y0092765D01*
X0020538Y0092511D01*
X0020519Y0092256D01*
X0020507Y0092001D01*
X0020501Y0091746D01*
X0020501Y0091490D01*
X0020507Y0091235D01*
X0020519Y0090980D01*
X0020538Y0090725D01*
X0020563Y0090471D01*
X0020594Y0090218D01*
X0020631Y0089965D01*
X0020674Y0089713D01*
X0020724Y0089463D01*
X0020779Y0089214D01*
X0020840Y0088966D01*
X0020908Y0088720D01*
X0020981Y0088475D01*
X0021061Y0088232D01*
X0021146Y0087992D01*
X0021237Y0087753D01*
X0021334Y0087517D01*
X0021437Y0087283D01*
X0021545Y0087052D01*
X0021659Y0086823D01*
X0021778Y0086598D01*
X0021903Y0086375D01*
X0022033Y0086155D01*
X0022169Y0085939D01*
X0022309Y0085726D01*
X0022455Y0085516D01*
X0022606Y0085310D01*
X0022762Y0085108D01*
X0022923Y0084909D01*
X0023088Y0084715D01*
X0023258Y0084525D01*
X0023433Y0084338D01*
X0023612Y0084157D01*
X0023796Y0083979D01*
X0023984Y0083806D01*
X0024176Y0083638D01*
X0024372Y0083474D01*
X0024572Y0083316D01*
X0024776Y0083162D01*
X0024983Y0083013D01*
X0025194Y0082869D01*
X0025409Y0082731D01*
X0025626Y0082597D01*
X0025847Y0082469D01*
X0026071Y0082347D01*
X0026298Y0082230D01*
X0026528Y0082118D01*
X0026998Y0080473D02*
X0026998Y0078972D01*
X0024746Y0078972D02*
X0024746Y0081975D01*
X0024746Y0078972D02*
X0029250Y0078972D01*
X0029250Y0074368D02*
X0024746Y0074368D01*
X0014246Y0081868D02*
X0014246Y0084871D01*
X0014246Y0083369D02*
X0018750Y0083369D01*
X0018750Y0086472D02*
X0015747Y0089475D01*
X0014997Y0089475D01*
X0014246Y0088724D01*
X0014246Y0087223D01*
X0014997Y0086472D01*
X0018750Y0086472D02*
X0018750Y0089475D01*
X0024500Y0113370D02*
X0024500Y0129866D01*
X0027746Y0130556D02*
X0027746Y0133559D01*
X0027746Y0135160D02*
X0027746Y0137412D01*
X0028497Y0138163D01*
X0031499Y0138163D01*
X0032250Y0137412D01*
X0032250Y0135160D01*
X0027746Y0135160D01*
X0029998Y0132058D02*
X0029998Y0130556D01*
X0027746Y0130556D02*
X0032250Y0130556D01*
X0032250Y0133559D01*
X0032250Y0128955D02*
X0032250Y0125952D01*
X0027746Y0125952D01*
X0030500Y0126091D02*
X0030500Y0127146D01*
X0026528Y0131120D02*
X0026313Y0131016D01*
X0026100Y0130907D01*
X0025890Y0130793D01*
X0025683Y0130674D01*
X0025478Y0130551D01*
X0025276Y0130423D01*
X0025077Y0130290D01*
X0024882Y0130153D01*
X0024689Y0130012D01*
X0024500Y0129866D01*
X0035472Y0131118D02*
X0035702Y0131006D01*
X0035929Y0130889D01*
X0036153Y0130767D01*
X0036374Y0130639D01*
X0036591Y0130505D01*
X0036806Y0130367D01*
X0037017Y0130223D01*
X0037224Y0130074D01*
X0037428Y0129920D01*
X0037628Y0129762D01*
X0037824Y0129598D01*
X0038016Y0129430D01*
X0038204Y0129257D01*
X0038388Y0129079D01*
X0038567Y0128898D01*
X0038742Y0128711D01*
X0038912Y0128521D01*
X0039077Y0128327D01*
X0039238Y0128128D01*
X0039394Y0127926D01*
X0039545Y0127720D01*
X0039691Y0127510D01*
X0039831Y0127297D01*
X0039967Y0127081D01*
X0040097Y0126861D01*
X0040222Y0126638D01*
X0040341Y0126413D01*
X0040455Y0126184D01*
X0040563Y0125953D01*
X0040666Y0125719D01*
X0040763Y0125483D01*
X0040854Y0125244D01*
X0040939Y0125004D01*
X0041019Y0124761D01*
X0041092Y0124516D01*
X0041160Y0124270D01*
X0041221Y0124022D01*
X0041276Y0123773D01*
X0041326Y0123523D01*
X0041369Y0123271D01*
X0041406Y0123018D01*
X0041437Y0122765D01*
X0041462Y0122511D01*
X0041481Y0122256D01*
X0041493Y0122001D01*
X0041499Y0121746D01*
X0041499Y0121490D01*
X0041493Y0121235D01*
X0041481Y0120980D01*
X0041462Y0120725D01*
X0041437Y0120471D01*
X0041406Y0120218D01*
X0041369Y0119965D01*
X0041326Y0119713D01*
X0041276Y0119463D01*
X0041221Y0119214D01*
X0041160Y0118966D01*
X0041092Y0118720D01*
X0041019Y0118475D01*
X0040939Y0118232D01*
X0040854Y0117992D01*
X0040763Y0117753D01*
X0040666Y0117517D01*
X0040563Y0117283D01*
X0040455Y0117052D01*
X0040341Y0116823D01*
X0040222Y0116598D01*
X0040097Y0116375D01*
X0039967Y0116155D01*
X0039831Y0115939D01*
X0039691Y0115726D01*
X0039545Y0115516D01*
X0039394Y0115310D01*
X0039238Y0115108D01*
X0039077Y0114909D01*
X0038912Y0114715D01*
X0038742Y0114525D01*
X0038567Y0114338D01*
X0038388Y0114157D01*
X0038204Y0113979D01*
X0038016Y0113806D01*
X0037824Y0113638D01*
X0037628Y0113474D01*
X0037428Y0113316D01*
X0037224Y0113162D01*
X0037017Y0113013D01*
X0036806Y0112869D01*
X0036591Y0112731D01*
X0036374Y0112597D01*
X0036153Y0112469D01*
X0035929Y0112347D01*
X0035702Y0112230D01*
X0035472Y0112118D01*
X0030500Y0116091D02*
X0030500Y0117146D01*
X0026622Y0112072D02*
X0026397Y0112179D01*
X0026174Y0112291D01*
X0025954Y0112408D01*
X0025737Y0112530D01*
X0025522Y0112658D01*
X0025311Y0112791D01*
X0025103Y0112928D01*
X0024899Y0113071D01*
X0024697Y0113218D01*
X0024500Y0113370D01*
X0043246Y0122660D02*
X0043246Y0125663D01*
X0043246Y0124162D02*
X0047750Y0124162D01*
X0047750Y0127264D02*
X0047750Y0130267D01*
X0047750Y0128765D02*
X0043246Y0128765D01*
X0044747Y0127264D01*
X0032250Y0139764D02*
X0032250Y0142767D01*
X0032250Y0141265D02*
X0027746Y0141265D01*
X0029247Y0139764D01*
X0036746Y0145619D02*
X0037497Y0144868D01*
X0038247Y0144868D01*
X0038998Y0145619D01*
X0038998Y0147120D01*
X0039749Y0147871D01*
X0040499Y0147871D01*
X0041250Y0147120D01*
X0041250Y0145619D01*
X0040499Y0144868D01*
X0036746Y0145619D02*
X0036746Y0147120D01*
X0037497Y0147871D01*
X0037497Y0149472D02*
X0038247Y0149472D01*
X0038998Y0150223D01*
X0038998Y0152475D01*
X0040499Y0152475D02*
X0037497Y0152475D01*
X0036746Y0151724D01*
X0036746Y0150223D01*
X0037497Y0149472D01*
X0040499Y0149472D02*
X0041250Y0150223D01*
X0041250Y0151724D01*
X0040499Y0152475D01*
X0070746Y0151620D02*
X0070746Y0149368D01*
X0075250Y0149368D01*
X0073749Y0149368D02*
X0073749Y0151620D01*
X0072998Y0152371D01*
X0071497Y0152371D01*
X0070746Y0151620D01*
X0070746Y0153972D02*
X0072998Y0153972D01*
X0072247Y0155473D01*
X0072247Y0156224D01*
X0072998Y0156975D01*
X0074499Y0156975D01*
X0075250Y0156224D01*
X0075250Y0154723D01*
X0074499Y0153972D01*
X0075250Y0152371D02*
X0073749Y0150869D01*
X0070746Y0153972D02*
X0070746Y0156975D01*
X0046356Y0197368D02*
X0043354Y0197368D01*
X0044855Y0197368D02*
X0044855Y0201872D01*
X0043354Y0200371D01*
X0041753Y0201121D02*
X0041753Y0199620D01*
X0041002Y0198869D01*
X0038750Y0198869D01*
X0038750Y0197368D02*
X0038750Y0201872D01*
X0041002Y0201872D01*
X0041753Y0201121D01*
X0040251Y0198869D02*
X0041753Y0197368D01*
X0079250Y0227119D02*
X0080001Y0226368D01*
X0081502Y0226368D01*
X0082253Y0227119D01*
X0082253Y0227869D01*
X0081502Y0228620D01*
X0080001Y0228620D01*
X0079250Y0229371D01*
X0079250Y0230121D01*
X0080001Y0230872D01*
X0081502Y0230872D01*
X0082253Y0230121D01*
X0083854Y0230872D02*
X0083854Y0228620D01*
X0085355Y0229371D01*
X0086106Y0229371D01*
X0086856Y0228620D01*
X0086856Y0227119D01*
X0086106Y0226368D01*
X0084605Y0226368D01*
X0083854Y0227119D01*
X0083854Y0230872D02*
X0086856Y0230872D01*
X0119250Y0230121D02*
X0119250Y0229371D01*
X0120001Y0228620D01*
X0121502Y0228620D01*
X0122253Y0227869D01*
X0122253Y0227119D01*
X0121502Y0226368D01*
X0120001Y0226368D01*
X0119250Y0227119D01*
X0119250Y0230121D02*
X0120001Y0230872D01*
X0121502Y0230872D01*
X0122253Y0230121D01*
X0123854Y0228620D02*
X0126106Y0228620D01*
X0126856Y0227869D01*
X0126856Y0227119D01*
X0126106Y0226368D01*
X0124605Y0226368D01*
X0123854Y0227119D01*
X0123854Y0228620D01*
X0125355Y0230121D01*
X0126856Y0230872D01*
X0159250Y0230121D02*
X0159250Y0229371D01*
X0160001Y0228620D01*
X0161502Y0228620D01*
X0162253Y0227869D01*
X0162253Y0227119D01*
X0161502Y0226368D01*
X0160001Y0226368D01*
X0159250Y0227119D01*
X0159250Y0230121D02*
X0160001Y0230872D01*
X0161502Y0230872D01*
X0162253Y0230121D01*
X0163854Y0230872D02*
X0166856Y0230872D01*
X0166856Y0230121D01*
X0163854Y0227119D01*
X0163854Y0226368D01*
X0199250Y0227119D02*
X0200001Y0226368D01*
X0201502Y0226368D01*
X0202253Y0227119D01*
X0202253Y0227869D01*
X0201502Y0228620D01*
X0200001Y0228620D01*
X0199250Y0229371D01*
X0199250Y0230121D01*
X0200001Y0230872D01*
X0201502Y0230872D01*
X0202253Y0230121D01*
X0203854Y0230121D02*
X0203854Y0229371D01*
X0204605Y0228620D01*
X0206106Y0228620D01*
X0206856Y0227869D01*
X0206856Y0227119D01*
X0206106Y0226368D01*
X0204605Y0226368D01*
X0203854Y0227119D01*
X0203854Y0227869D01*
X0204605Y0228620D01*
X0206106Y0228620D02*
X0206856Y0229371D01*
X0206856Y0230121D01*
X0206106Y0230872D01*
X0204605Y0230872D01*
X0203854Y0230121D01*
X0261497Y0172267D02*
X0264499Y0169264D01*
X0265250Y0170015D01*
X0265250Y0171516D01*
X0264499Y0172267D01*
X0261497Y0172267D01*
X0260746Y0171516D01*
X0260746Y0170015D01*
X0261497Y0169264D01*
X0264499Y0169264D01*
X0265250Y0167663D02*
X0265250Y0164660D01*
X0265250Y0166162D02*
X0260746Y0166162D01*
X0262247Y0164660D01*
X0261497Y0163059D02*
X0260746Y0162308D01*
X0260746Y0160807D01*
X0261497Y0160056D01*
X0262247Y0160056D01*
X0262998Y0160807D01*
X0262998Y0162308D01*
X0263749Y0163059D01*
X0264499Y0163059D01*
X0265250Y0162308D01*
X0265250Y0160807D01*
X0264499Y0160056D01*
X0237898Y0112872D02*
X0236397Y0112872D01*
X0235646Y0112121D01*
X0234045Y0112121D02*
X0233294Y0112872D01*
X0231793Y0112872D01*
X0231042Y0112121D01*
X0231042Y0109119D01*
X0231793Y0108368D01*
X0233294Y0108368D01*
X0234045Y0109119D01*
X0235646Y0108368D02*
X0238649Y0111371D01*
X0238649Y0112121D01*
X0237898Y0112872D01*
X0238649Y0108368D02*
X0235646Y0108368D01*
X0210606Y0137368D02*
X0209105Y0137368D01*
X0208354Y0138119D01*
X0206753Y0137368D02*
X0205251Y0138869D01*
X0206002Y0138869D02*
X0203750Y0138869D01*
X0203750Y0137368D02*
X0203750Y0141872D01*
X0206002Y0141872D01*
X0206753Y0141121D01*
X0206753Y0139620D01*
X0206002Y0138869D01*
X0208354Y0141121D02*
X0209105Y0141872D01*
X0210606Y0141872D01*
X0211356Y0141121D01*
X0211356Y0140371D01*
X0210606Y0139620D01*
X0211356Y0138869D01*
X0211356Y0138119D01*
X0210606Y0137368D01*
X0210606Y0139620D02*
X0209855Y0139620D01*
X0198147Y0110872D02*
X0198147Y0106368D01*
X0196646Y0106368D02*
X0199649Y0106368D01*
X0196646Y0109371D02*
X0198147Y0110872D01*
X0195045Y0110121D02*
X0195045Y0107119D01*
X0194294Y0106368D01*
X0192793Y0106368D01*
X0192042Y0107119D01*
X0192042Y0110121D01*
X0192793Y0110872D01*
X0194294Y0110872D01*
X0195045Y0110121D01*
X0193543Y0107869D02*
X0195045Y0106368D01*
X0159856Y0110368D02*
X0156854Y0110368D01*
X0158355Y0110368D02*
X0158355Y0114872D01*
X0156854Y0113371D01*
X0155253Y0114121D02*
X0154502Y0114872D01*
X0153001Y0114872D01*
X0152250Y0114121D01*
X0152250Y0111119D01*
X0153001Y0110368D01*
X0154502Y0110368D01*
X0155253Y0111119D01*
X0145898Y0066872D02*
X0144397Y0066872D01*
X0143646Y0066121D01*
X0142045Y0066121D02*
X0141294Y0066872D01*
X0139793Y0066872D01*
X0139042Y0066121D01*
X0139042Y0065371D01*
X0139793Y0064620D01*
X0141294Y0064620D01*
X0142045Y0063869D01*
X0142045Y0063119D01*
X0141294Y0062368D01*
X0139793Y0062368D01*
X0139042Y0063119D01*
X0143646Y0062368D02*
X0146649Y0065371D01*
X0146649Y0066121D01*
X0145898Y0066872D01*
X0146649Y0062368D02*
X0143646Y0062368D01*
X0179042Y0063119D02*
X0179793Y0062368D01*
X0181294Y0062368D01*
X0182045Y0063119D01*
X0182045Y0063869D01*
X0181294Y0064620D01*
X0179793Y0064620D01*
X0179042Y0065371D01*
X0179042Y0066121D01*
X0179793Y0066872D01*
X0181294Y0066872D01*
X0182045Y0066121D01*
X0183646Y0066121D02*
X0184397Y0066872D01*
X0185898Y0066872D01*
X0186649Y0066121D01*
X0186649Y0065371D01*
X0185898Y0064620D01*
X0186649Y0063869D01*
X0186649Y0063119D01*
X0185898Y0062368D01*
X0184397Y0062368D01*
X0183646Y0063119D01*
X0185147Y0064620D02*
X0185898Y0064620D01*
X0219042Y0065371D02*
X0219793Y0064620D01*
X0221294Y0064620D01*
X0222045Y0063869D01*
X0222045Y0063119D01*
X0221294Y0062368D01*
X0219793Y0062368D01*
X0219042Y0063119D01*
X0219042Y0065371D02*
X0219042Y0066121D01*
X0219793Y0066872D01*
X0221294Y0066872D01*
X0222045Y0066121D01*
X0223646Y0064620D02*
X0226649Y0064620D01*
X0225898Y0062368D02*
X0225898Y0066872D01*
X0223646Y0064620D01*
X0109750Y0023216D02*
X0109750Y0021715D01*
X0108999Y0020964D01*
X0108999Y0019363D02*
X0109750Y0018612D01*
X0109750Y0017111D01*
X0108999Y0016360D01*
X0105997Y0016360D01*
X0105246Y0017111D01*
X0105246Y0018612D01*
X0105997Y0019363D01*
X0105997Y0020964D02*
X0105246Y0021715D01*
X0105246Y0023216D01*
X0105997Y0023967D01*
X0106747Y0023967D01*
X0107498Y0023216D01*
X0108249Y0023967D01*
X0108999Y0023967D01*
X0109750Y0023216D01*
X0107498Y0023216D02*
X0107498Y0022465D01*
X0106649Y0062368D02*
X0103646Y0062368D01*
X0105147Y0062368D02*
X0105147Y0066872D01*
X0103646Y0065371D01*
X0102045Y0066121D02*
X0101294Y0066872D01*
X0099793Y0066872D01*
X0099042Y0066121D01*
X0099042Y0065371D01*
X0099793Y0064620D01*
X0101294Y0064620D01*
X0102045Y0063869D01*
X0102045Y0063119D01*
X0101294Y0062368D01*
X0099793Y0062368D01*
X0099042Y0063119D01*
X0081356Y0067368D02*
X0078354Y0067368D01*
X0081356Y0070371D01*
X0081356Y0071121D01*
X0080606Y0071872D01*
X0079105Y0071872D01*
X0078354Y0071121D01*
X0076753Y0071121D02*
X0076753Y0069620D01*
X0076002Y0068869D01*
X0073750Y0068869D01*
X0073750Y0067368D02*
X0073750Y0071872D01*
X0076002Y0071872D01*
X0076753Y0071121D01*
X0075251Y0068869D02*
X0076753Y0067368D01*
D13*
X0027235Y0059559D02*
X0027067Y0059652D01*
X0026901Y0059748D01*
X0026737Y0059848D01*
X0026576Y0059953D01*
X0026417Y0060061D01*
X0026261Y0060173D01*
X0026107Y0060289D01*
X0025957Y0060408D01*
X0025809Y0060531D01*
X0025664Y0060657D01*
X0025523Y0060787D01*
X0025384Y0060920D01*
X0025249Y0061057D01*
X0025117Y0061197D01*
X0024989Y0061339D01*
X0024864Y0061485D01*
X0024742Y0061634D01*
X0024624Y0061786D01*
X0024510Y0061940D01*
X0024400Y0062098D01*
X0024293Y0062257D01*
X0024190Y0062420D01*
X0024091Y0062585D01*
X0023996Y0062752D01*
X0023906Y0062921D01*
X0023819Y0063092D01*
X0023736Y0063266D01*
X0023658Y0063441D01*
X0023584Y0063619D01*
X0023514Y0063798D01*
X0023448Y0063978D01*
X0023387Y0064160D01*
X0023330Y0064344D01*
X0023278Y0064529D01*
X0023230Y0064715D01*
X0023186Y0064902D01*
X0023147Y0065090D01*
X0023113Y0065279D01*
X0023083Y0065469D01*
X0023058Y0065659D01*
X0023037Y0065850D01*
X0023021Y0066042D01*
X0023009Y0066234D01*
X0023002Y0066426D01*
X0023000Y0066618D01*
X0034969Y0059672D02*
X0035138Y0059771D01*
X0035304Y0059875D01*
X0035468Y0059982D01*
X0035629Y0060093D01*
X0035787Y0060208D01*
X0035942Y0060327D01*
X0036095Y0060450D01*
X0036244Y0060576D01*
X0036390Y0060706D01*
X0036533Y0060840D01*
X0036673Y0060977D01*
X0036809Y0061117D01*
X0036942Y0061261D01*
X0037071Y0061408D01*
X0037197Y0061558D01*
X0037318Y0061711D01*
X0037437Y0061867D01*
X0037551Y0062026D01*
X0037661Y0062187D01*
X0037767Y0062352D01*
X0037870Y0062518D01*
X0037968Y0062688D01*
X0038062Y0062859D01*
X0038152Y0063033D01*
X0038237Y0063209D01*
X0038319Y0063387D01*
X0038395Y0063567D01*
X0038468Y0063749D01*
X0038536Y0063932D01*
X0038599Y0064117D01*
X0038658Y0064304D01*
X0038712Y0064492D01*
X0038762Y0064681D01*
X0038807Y0064871D01*
X0038847Y0065063D01*
X0038883Y0065255D01*
X0038914Y0065448D01*
X0038940Y0065642D01*
X0038962Y0065837D01*
X0038978Y0066032D01*
X0038990Y0066227D01*
X0038998Y0066423D01*
X0039000Y0066618D01*
X0038998Y0066811D01*
X0038991Y0067004D01*
X0038979Y0067196D01*
X0038963Y0067389D01*
X0038942Y0067581D01*
X0038916Y0067772D01*
X0038886Y0067962D01*
X0038851Y0068152D01*
X0038812Y0068341D01*
X0038768Y0068529D01*
X0038720Y0068716D01*
X0038667Y0068902D01*
X0038610Y0069086D01*
X0038548Y0069269D01*
X0038482Y0069450D01*
X0038411Y0069630D01*
X0038337Y0069808D01*
X0038258Y0069984D01*
X0038174Y0070158D01*
X0038087Y0070330D01*
X0037995Y0070500D01*
X0037899Y0070667D01*
X0037800Y0070833D01*
X0037696Y0070996D01*
X0037589Y0071156D01*
X0037477Y0071313D01*
X0037362Y0071468D01*
X0037243Y0071620D01*
X0037121Y0071769D01*
X0036995Y0071916D01*
X0036865Y0072059D01*
X0036732Y0072199D01*
X0036596Y0072335D01*
X0036456Y0072469D01*
X0036314Y0072598D01*
X0036168Y0072725D01*
X0025878Y0072764D02*
X0025730Y0072637D01*
X0025585Y0072507D01*
X0025444Y0072374D01*
X0025305Y0072237D01*
X0025170Y0072097D01*
X0025039Y0071953D01*
X0024911Y0071806D01*
X0024786Y0071657D01*
X0024665Y0071504D01*
X0024548Y0071349D01*
X0024435Y0071190D01*
X0024326Y0071029D01*
X0024221Y0070865D01*
X0024119Y0070699D01*
X0024022Y0070530D01*
X0023929Y0070360D01*
X0023840Y0070186D01*
X0023755Y0070011D01*
X0023675Y0069834D01*
X0023599Y0069655D01*
X0023527Y0069474D01*
X0023460Y0069291D01*
X0023397Y0069107D01*
X0023339Y0068921D01*
X0023285Y0068734D01*
X0023236Y0068546D01*
X0023191Y0068356D01*
X0023151Y0068166D01*
X0023116Y0067974D01*
X0023085Y0067782D01*
X0023059Y0067589D01*
X0023038Y0067395D01*
X0023021Y0067201D01*
X0023009Y0067007D01*
X0023002Y0066813D01*
X0023000Y0066618D01*
X0034000Y0151618D02*
X0033998Y0151810D01*
X0033991Y0152002D01*
X0033979Y0152194D01*
X0033963Y0152386D01*
X0033942Y0152577D01*
X0033917Y0152767D01*
X0033887Y0152957D01*
X0033853Y0153146D01*
X0033814Y0153334D01*
X0033770Y0153521D01*
X0033722Y0153707D01*
X0033670Y0153892D01*
X0033613Y0154076D01*
X0033552Y0154258D01*
X0033486Y0154438D01*
X0033416Y0154617D01*
X0033342Y0154795D01*
X0033264Y0154970D01*
X0033181Y0155144D01*
X0033094Y0155315D01*
X0033004Y0155484D01*
X0032909Y0155651D01*
X0032810Y0155816D01*
X0032707Y0155979D01*
X0032600Y0156138D01*
X0032490Y0156296D01*
X0032376Y0156450D01*
X0032258Y0156602D01*
X0032136Y0156751D01*
X0032011Y0156897D01*
X0031883Y0157039D01*
X0031751Y0157179D01*
X0031616Y0157316D01*
X0031477Y0157449D01*
X0031336Y0157579D01*
X0031191Y0157705D01*
X0031043Y0157828D01*
X0030893Y0157947D01*
X0030739Y0158063D01*
X0030583Y0158175D01*
X0030424Y0158283D01*
X0030263Y0158388D01*
X0030099Y0158488D01*
X0029933Y0158584D01*
X0029765Y0158677D01*
X0022031Y0158564D02*
X0021862Y0158465D01*
X0021696Y0158361D01*
X0021532Y0158254D01*
X0021371Y0158143D01*
X0021213Y0158028D01*
X0021058Y0157909D01*
X0020905Y0157786D01*
X0020756Y0157660D01*
X0020610Y0157530D01*
X0020467Y0157396D01*
X0020327Y0157259D01*
X0020191Y0157119D01*
X0020058Y0156975D01*
X0019929Y0156828D01*
X0019803Y0156678D01*
X0019682Y0156525D01*
X0019563Y0156369D01*
X0019449Y0156210D01*
X0019339Y0156049D01*
X0019233Y0155884D01*
X0019130Y0155718D01*
X0019032Y0155548D01*
X0018938Y0155377D01*
X0018848Y0155203D01*
X0018763Y0155027D01*
X0018681Y0154849D01*
X0018605Y0154669D01*
X0018532Y0154487D01*
X0018464Y0154304D01*
X0018401Y0154119D01*
X0018342Y0153932D01*
X0018288Y0153744D01*
X0018238Y0153555D01*
X0018193Y0153365D01*
X0018153Y0153173D01*
X0018117Y0152981D01*
X0018086Y0152788D01*
X0018060Y0152594D01*
X0018038Y0152399D01*
X0018022Y0152204D01*
X0018010Y0152009D01*
X0018002Y0151813D01*
X0018000Y0151618D01*
X0018002Y0151425D01*
X0018009Y0151232D01*
X0018021Y0151040D01*
X0018037Y0150847D01*
X0018058Y0150655D01*
X0018084Y0150464D01*
X0018114Y0150274D01*
X0018149Y0150084D01*
X0018188Y0149895D01*
X0018232Y0149707D01*
X0018280Y0149520D01*
X0018333Y0149334D01*
X0018390Y0149150D01*
X0018452Y0148967D01*
X0018518Y0148786D01*
X0018589Y0148606D01*
X0018663Y0148428D01*
X0018742Y0148252D01*
X0018826Y0148078D01*
X0018913Y0147906D01*
X0019005Y0147736D01*
X0019101Y0147569D01*
X0019200Y0147403D01*
X0019304Y0147240D01*
X0019411Y0147080D01*
X0019523Y0146923D01*
X0019638Y0146768D01*
X0019757Y0146616D01*
X0019879Y0146467D01*
X0020005Y0146320D01*
X0020135Y0146177D01*
X0020268Y0146037D01*
X0020404Y0145901D01*
X0020544Y0145767D01*
X0020686Y0145638D01*
X0020832Y0145511D01*
X0031122Y0145472D02*
X0031270Y0145599D01*
X0031415Y0145729D01*
X0031556Y0145862D01*
X0031695Y0145999D01*
X0031830Y0146139D01*
X0031961Y0146283D01*
X0032089Y0146430D01*
X0032214Y0146579D01*
X0032335Y0146732D01*
X0032452Y0146887D01*
X0032565Y0147046D01*
X0032674Y0147207D01*
X0032779Y0147371D01*
X0032881Y0147537D01*
X0032978Y0147706D01*
X0033071Y0147876D01*
X0033160Y0148050D01*
X0033245Y0148225D01*
X0033325Y0148402D01*
X0033401Y0148581D01*
X0033473Y0148762D01*
X0033540Y0148945D01*
X0033603Y0149129D01*
X0033661Y0149315D01*
X0033715Y0149502D01*
X0033764Y0149690D01*
X0033809Y0149880D01*
X0033849Y0150070D01*
X0033884Y0150262D01*
X0033915Y0150454D01*
X0033941Y0150647D01*
X0033962Y0150841D01*
X0033979Y0151035D01*
X0033991Y0151229D01*
X0033998Y0151423D01*
X0034000Y0151618D01*
X0121866Y0057799D02*
X0121866Y0001500D01*
X0180134Y0001500D01*
X0180134Y0057799D01*
X0121866Y0057799D01*
D14*
X0169000Y0113118D02*
X0193000Y0113118D01*
X0193207Y0113121D01*
X0193414Y0113128D01*
X0193620Y0113141D01*
X0193827Y0113158D01*
X0194032Y0113181D01*
X0194238Y0113209D01*
X0194442Y0113241D01*
X0194646Y0113279D01*
X0194848Y0113321D01*
X0195050Y0113369D01*
X0195250Y0113421D01*
X0195449Y0113478D01*
X0195646Y0113540D01*
X0195842Y0113607D01*
X0196036Y0113679D01*
X0196229Y0113755D01*
X0196419Y0113836D01*
X0196608Y0113922D01*
X0196794Y0114012D01*
X0196978Y0114106D01*
X0197160Y0114206D01*
X0197339Y0114309D01*
X0197516Y0114417D01*
X0197690Y0114529D01*
X0197861Y0114645D01*
X0198030Y0114766D01*
X0198195Y0114890D01*
X0198357Y0115019D01*
X0198516Y0115151D01*
X0198672Y0115287D01*
X0198825Y0115427D01*
X0198974Y0115571D01*
X0199119Y0115718D01*
X0199261Y0115869D01*
X0199399Y0116023D01*
X0199534Y0116181D01*
X0199664Y0116341D01*
X0199790Y0116505D01*
X0199913Y0116672D01*
X0200031Y0116842D01*
X0200146Y0117015D01*
X0200256Y0117190D01*
X0200361Y0117368D01*
X0200463Y0117549D01*
X0200559Y0117731D01*
X0200652Y0117917D01*
X0200740Y0118104D01*
X0200823Y0118294D01*
X0200902Y0118485D01*
X0200976Y0118678D01*
X0201045Y0118874D01*
X0201109Y0119070D01*
X0201169Y0119268D01*
X0201224Y0119468D01*
X0201274Y0119669D01*
X0201319Y0119871D01*
X0201359Y0120074D01*
X0201394Y0120278D01*
X0201424Y0120483D01*
X0201449Y0120688D01*
X0201469Y0120894D01*
X0201484Y0121101D01*
X0201494Y0121308D01*
X0201499Y0121515D01*
X0201499Y0121721D01*
X0201494Y0121928D01*
X0201484Y0122135D01*
X0201469Y0122342D01*
X0201449Y0122548D01*
X0201424Y0122753D01*
X0201394Y0122958D01*
X0201359Y0123162D01*
X0201319Y0123365D01*
X0201274Y0123567D01*
X0201224Y0123768D01*
X0201169Y0123968D01*
X0201109Y0124166D01*
X0201045Y0124362D01*
X0200976Y0124558D01*
X0200902Y0124751D01*
X0200823Y0124942D01*
X0200740Y0125132D01*
X0200652Y0125319D01*
X0200559Y0125505D01*
X0200463Y0125687D01*
X0200361Y0125868D01*
X0200256Y0126046D01*
X0200146Y0126221D01*
X0200031Y0126394D01*
X0199913Y0126564D01*
X0199790Y0126731D01*
X0199664Y0126895D01*
X0199534Y0127055D01*
X0199399Y0127213D01*
X0199261Y0127367D01*
X0199119Y0127518D01*
X0198974Y0127665D01*
X0198825Y0127809D01*
X0198672Y0127949D01*
X0198516Y0128085D01*
X0198357Y0128217D01*
X0198195Y0128346D01*
X0198030Y0128470D01*
X0197861Y0128591D01*
X0197690Y0128707D01*
X0197516Y0128819D01*
X0197339Y0128927D01*
X0197160Y0129030D01*
X0196978Y0129130D01*
X0196794Y0129224D01*
X0196608Y0129314D01*
X0196419Y0129400D01*
X0196229Y0129481D01*
X0196036Y0129557D01*
X0195842Y0129629D01*
X0195646Y0129696D01*
X0195449Y0129758D01*
X0195250Y0129815D01*
X0195050Y0129867D01*
X0194848Y0129915D01*
X0194646Y0129957D01*
X0194442Y0129995D01*
X0194238Y0130027D01*
X0194032Y0130055D01*
X0193827Y0130078D01*
X0193620Y0130095D01*
X0193414Y0130108D01*
X0193207Y0130115D01*
X0193000Y0130118D01*
X0169000Y0130118D01*
X0168793Y0130115D01*
X0168586Y0130108D01*
X0168380Y0130095D01*
X0168173Y0130078D01*
X0167968Y0130055D01*
X0167762Y0130027D01*
X0167558Y0129995D01*
X0167354Y0129957D01*
X0167152Y0129915D01*
X0166950Y0129867D01*
X0166750Y0129815D01*
X0166551Y0129758D01*
X0166354Y0129696D01*
X0166158Y0129629D01*
X0165964Y0129557D01*
X0165771Y0129481D01*
X0165581Y0129400D01*
X0165392Y0129314D01*
X0165206Y0129224D01*
X0165022Y0129130D01*
X0164840Y0129030D01*
X0164661Y0128927D01*
X0164484Y0128819D01*
X0164310Y0128707D01*
X0164139Y0128591D01*
X0163970Y0128470D01*
X0163805Y0128346D01*
X0163643Y0128217D01*
X0163484Y0128085D01*
X0163328Y0127949D01*
X0163175Y0127809D01*
X0163026Y0127665D01*
X0162881Y0127518D01*
X0162739Y0127367D01*
X0162601Y0127213D01*
X0162466Y0127055D01*
X0162336Y0126895D01*
X0162210Y0126731D01*
X0162087Y0126564D01*
X0161969Y0126394D01*
X0161854Y0126221D01*
X0161744Y0126046D01*
X0161639Y0125868D01*
X0161537Y0125687D01*
X0161441Y0125505D01*
X0161348Y0125319D01*
X0161260Y0125132D01*
X0161177Y0124942D01*
X0161098Y0124751D01*
X0161024Y0124558D01*
X0160955Y0124362D01*
X0160891Y0124166D01*
X0160831Y0123968D01*
X0160776Y0123768D01*
X0160726Y0123567D01*
X0160681Y0123365D01*
X0160641Y0123162D01*
X0160606Y0122958D01*
X0160576Y0122753D01*
X0160551Y0122548D01*
X0160531Y0122342D01*
X0160516Y0122135D01*
X0160506Y0121928D01*
X0160501Y0121721D01*
X0160501Y0121515D01*
X0160506Y0121308D01*
X0160516Y0121101D01*
X0160531Y0120894D01*
X0160551Y0120688D01*
X0160576Y0120483D01*
X0160606Y0120278D01*
X0160641Y0120074D01*
X0160681Y0119871D01*
X0160726Y0119669D01*
X0160776Y0119468D01*
X0160831Y0119268D01*
X0160891Y0119070D01*
X0160955Y0118874D01*
X0161024Y0118678D01*
X0161098Y0118485D01*
X0161177Y0118294D01*
X0161260Y0118104D01*
X0161348Y0117917D01*
X0161441Y0117731D01*
X0161537Y0117549D01*
X0161639Y0117368D01*
X0161744Y0117190D01*
X0161854Y0117015D01*
X0161969Y0116842D01*
X0162087Y0116672D01*
X0162210Y0116505D01*
X0162336Y0116341D01*
X0162466Y0116181D01*
X0162601Y0116023D01*
X0162739Y0115869D01*
X0162881Y0115718D01*
X0163026Y0115571D01*
X0163175Y0115427D01*
X0163328Y0115287D01*
X0163484Y0115151D01*
X0163643Y0115019D01*
X0163805Y0114890D01*
X0163970Y0114766D01*
X0164139Y0114645D01*
X0164310Y0114529D01*
X0164484Y0114417D01*
X0164661Y0114309D01*
X0164840Y0114206D01*
X0165022Y0114106D01*
X0165206Y0114012D01*
X0165392Y0113922D01*
X0165581Y0113836D01*
X0165771Y0113755D01*
X0165964Y0113679D01*
X0166158Y0113607D01*
X0166354Y0113540D01*
X0166551Y0113478D01*
X0166750Y0113421D01*
X0166950Y0113369D01*
X0167152Y0113321D01*
X0167354Y0113279D01*
X0167558Y0113241D01*
X0167762Y0113209D01*
X0167968Y0113181D01*
X0168173Y0113158D01*
X0168380Y0113141D01*
X0168586Y0113128D01*
X0168793Y0113121D01*
X0169000Y0113118D01*
D15*
X0198500Y0131618D02*
X0200000Y0131618D01*
X0232000Y0131618D02*
X0233500Y0131618D01*
X0103500Y0061618D02*
X0102000Y0061618D01*
X0070000Y0061618D02*
X0068500Y0061618D01*
X0046000Y0089118D02*
X0046000Y0090618D01*
X0046000Y0122618D02*
X0046000Y0124118D01*
X0081000Y0144118D02*
X0081000Y0145618D01*
X0081000Y0177618D02*
X0081000Y0179118D01*
X0068500Y0191618D02*
X0067000Y0191618D01*
X0035000Y0191618D02*
X0033500Y0191618D01*
D16*
X0066800Y0061618D03*
X0071800Y0061618D03*
X0100200Y0061618D03*
X0105200Y0061618D03*
X0196800Y0131618D03*
X0201800Y0131618D03*
X0230200Y0131618D03*
X0235200Y0131618D03*
X0070200Y0191618D03*
X0065200Y0191618D03*
X0036800Y0191618D03*
X0031800Y0191618D03*
D17*
X0081000Y0180818D03*
X0081000Y0175818D03*
X0081000Y0147418D03*
X0081000Y0142418D03*
X0046000Y0125818D03*
X0046000Y0120818D03*
X0046000Y0092418D03*
X0046000Y0087418D03*
D18*
X0091500Y0092618D02*
X0091500Y0093618D01*
X0091500Y0092618D02*
X0101000Y0092618D01*
X0101000Y0093618D01*
X0101000Y0070618D02*
X0091000Y0070618D01*
X0091000Y0069618D01*
X0101000Y0069618D02*
X0101000Y0070618D01*
X0131000Y0070618D02*
X0131000Y0069618D01*
X0131000Y0070618D02*
X0141000Y0070618D01*
X0141000Y0069618D01*
X0164445Y0037287D02*
X0164660Y0037290D01*
X0164874Y0037299D01*
X0165089Y0037312D01*
X0165303Y0037330D01*
X0165516Y0037353D01*
X0165729Y0037381D01*
X0165941Y0037414D01*
X0166153Y0037452D01*
X0166363Y0037495D01*
X0166572Y0037542D01*
X0166781Y0037594D01*
X0166988Y0037651D01*
X0167193Y0037713D01*
X0167398Y0037779D01*
X0167398Y0037780D02*
X0167398Y0041224D01*
X0165429Y0041224D01*
X0165429Y0043193D02*
X0165342Y0043191D01*
X0165255Y0043185D01*
X0165168Y0043176D01*
X0165082Y0043162D01*
X0164997Y0043145D01*
X0164912Y0043124D01*
X0164829Y0043099D01*
X0164746Y0043071D01*
X0164665Y0043039D01*
X0164586Y0043003D01*
X0164508Y0042964D01*
X0164432Y0042922D01*
X0164358Y0042876D01*
X0164286Y0042827D01*
X0164216Y0042775D01*
X0164149Y0042720D01*
X0164084Y0042662D01*
X0164021Y0042601D01*
X0163962Y0042537D01*
X0163905Y0042471D01*
X0163852Y0042402D01*
X0163801Y0042331D01*
X0163754Y0042258D01*
X0163709Y0042183D01*
X0163669Y0042106D01*
X0163631Y0042028D01*
X0163598Y0041947D01*
X0163567Y0041866D01*
X0163541Y0041783D01*
X0163518Y0041698D01*
X0163499Y0041613D01*
X0163484Y0041528D01*
X0163472Y0041441D01*
X0163464Y0041355D01*
X0163460Y0041268D01*
X0163460Y0041180D01*
X0163464Y0041093D01*
X0163472Y0041007D01*
X0163484Y0040920D01*
X0163499Y0040835D01*
X0163518Y0040750D01*
X0163541Y0040665D01*
X0163567Y0040582D01*
X0163598Y0040501D01*
X0163631Y0040420D01*
X0163669Y0040342D01*
X0163709Y0040265D01*
X0163754Y0040190D01*
X0163801Y0040117D01*
X0163852Y0040046D01*
X0163905Y0039977D01*
X0163962Y0039911D01*
X0164021Y0039847D01*
X0164084Y0039786D01*
X0164149Y0039728D01*
X0164216Y0039673D01*
X0164286Y0039621D01*
X0164358Y0039572D01*
X0164432Y0039526D01*
X0164508Y0039484D01*
X0164586Y0039445D01*
X0164665Y0039409D01*
X0164746Y0039377D01*
X0164829Y0039349D01*
X0164912Y0039324D01*
X0164997Y0039303D01*
X0165082Y0039286D01*
X0165168Y0039272D01*
X0165255Y0039263D01*
X0165342Y0039257D01*
X0165429Y0039255D01*
X0165429Y0039256D02*
X0165429Y0041224D01*
X0164445Y0045161D02*
X0164321Y0045159D01*
X0164198Y0045153D01*
X0164074Y0045144D01*
X0163952Y0045130D01*
X0163829Y0045113D01*
X0163707Y0045091D01*
X0163586Y0045066D01*
X0163466Y0045037D01*
X0163347Y0045005D01*
X0163228Y0044968D01*
X0163111Y0044928D01*
X0162996Y0044885D01*
X0162881Y0044837D01*
X0162769Y0044786D01*
X0162658Y0044732D01*
X0162548Y0044674D01*
X0162441Y0044613D01*
X0162335Y0044548D01*
X0162232Y0044480D01*
X0162131Y0044409D01*
X0162032Y0044335D01*
X0161935Y0044258D01*
X0161841Y0044177D01*
X0161750Y0044094D01*
X0161661Y0044008D01*
X0161575Y0043919D01*
X0161492Y0043828D01*
X0161411Y0043734D01*
X0161334Y0043637D01*
X0161260Y0043538D01*
X0161189Y0043437D01*
X0161121Y0043334D01*
X0161056Y0043228D01*
X0160995Y0043121D01*
X0160937Y0043011D01*
X0160883Y0042900D01*
X0160832Y0042788D01*
X0160784Y0042673D01*
X0160741Y0042558D01*
X0160701Y0042441D01*
X0160664Y0042322D01*
X0160632Y0042203D01*
X0160603Y0042083D01*
X0160578Y0041962D01*
X0160556Y0041840D01*
X0160539Y0041717D01*
X0160525Y0041595D01*
X0160516Y0041471D01*
X0160510Y0041348D01*
X0160508Y0041224D01*
X0160510Y0041100D01*
X0160516Y0040977D01*
X0160525Y0040853D01*
X0160539Y0040731D01*
X0160556Y0040608D01*
X0160578Y0040486D01*
X0160603Y0040365D01*
X0160632Y0040245D01*
X0160664Y0040126D01*
X0160701Y0040007D01*
X0160741Y0039890D01*
X0160784Y0039775D01*
X0160832Y0039660D01*
X0160883Y0039548D01*
X0160937Y0039437D01*
X0160995Y0039327D01*
X0161056Y0039220D01*
X0161121Y0039114D01*
X0161189Y0039011D01*
X0161260Y0038910D01*
X0161334Y0038811D01*
X0161411Y0038714D01*
X0161492Y0038620D01*
X0161575Y0038529D01*
X0161661Y0038440D01*
X0161750Y0038354D01*
X0161841Y0038271D01*
X0161935Y0038190D01*
X0162032Y0038113D01*
X0162131Y0038039D01*
X0162232Y0037968D01*
X0162335Y0037900D01*
X0162441Y0037835D01*
X0162548Y0037774D01*
X0162658Y0037716D01*
X0162769Y0037662D01*
X0162881Y0037611D01*
X0162996Y0037563D01*
X0163111Y0037520D01*
X0163228Y0037480D01*
X0163347Y0037443D01*
X0163466Y0037411D01*
X0163586Y0037382D01*
X0163707Y0037357D01*
X0163829Y0037335D01*
X0163952Y0037318D01*
X0164074Y0037304D01*
X0164198Y0037295D01*
X0164321Y0037289D01*
X0164445Y0037287D01*
X0165429Y0043193D02*
X0165607Y0043214D01*
X0165786Y0043232D01*
X0165965Y0043244D01*
X0166144Y0043253D01*
X0166323Y0043257D01*
X0166503Y0043257D01*
X0166682Y0043253D01*
X0166861Y0043244D01*
X0167040Y0043232D01*
X0167219Y0043214D01*
X0167397Y0043193D01*
X0167378Y0043193D02*
X0167378Y0044945D01*
X0157555Y0045161D02*
X0152142Y0045161D01*
X0152142Y0037287D01*
X0154602Y0037287D01*
X0154602Y0040240D01*
X0156571Y0037287D01*
X0159524Y0037287D01*
X0157555Y0040240D01*
X0156079Y0041717D02*
X0154602Y0041717D01*
X0154602Y0043193D01*
X0156079Y0043193D01*
X0156132Y0043191D01*
X0156184Y0043185D01*
X0156236Y0043176D01*
X0156287Y0043163D01*
X0156337Y0043146D01*
X0156386Y0043126D01*
X0156433Y0043103D01*
X0156478Y0043076D01*
X0156521Y0043046D01*
X0156562Y0043013D01*
X0156601Y0042977D01*
X0156637Y0042938D01*
X0156670Y0042897D01*
X0156700Y0042854D01*
X0156727Y0042809D01*
X0156750Y0042762D01*
X0156770Y0042713D01*
X0156787Y0042663D01*
X0156800Y0042612D01*
X0156809Y0042560D01*
X0156815Y0042508D01*
X0156817Y0042455D01*
X0156815Y0042402D01*
X0156809Y0042350D01*
X0156800Y0042298D01*
X0156787Y0042247D01*
X0156770Y0042197D01*
X0156750Y0042148D01*
X0156727Y0042101D01*
X0156700Y0042056D01*
X0156670Y0042013D01*
X0156637Y0041972D01*
X0156601Y0041933D01*
X0156562Y0041897D01*
X0156521Y0041864D01*
X0156478Y0041834D01*
X0156433Y0041807D01*
X0156386Y0041784D01*
X0156337Y0041764D01*
X0156287Y0041747D01*
X0156236Y0041734D01*
X0156184Y0041725D01*
X0156132Y0041719D01*
X0156079Y0041717D01*
X0157555Y0040240D02*
X0157653Y0040242D01*
X0157751Y0040248D01*
X0157848Y0040257D01*
X0157945Y0040271D01*
X0158041Y0040288D01*
X0158137Y0040310D01*
X0158231Y0040335D01*
X0158325Y0040363D01*
X0158417Y0040396D01*
X0158508Y0040432D01*
X0158598Y0040472D01*
X0158685Y0040515D01*
X0158771Y0040562D01*
X0158855Y0040612D01*
X0158937Y0040665D01*
X0159017Y0040722D01*
X0159095Y0040781D01*
X0159170Y0040844D01*
X0159243Y0040910D01*
X0159312Y0040978D01*
X0159380Y0041049D01*
X0159444Y0041123D01*
X0159505Y0041200D01*
X0159563Y0041278D01*
X0159618Y0041359D01*
X0159670Y0041442D01*
X0159718Y0041527D01*
X0159763Y0041614D01*
X0159805Y0041703D01*
X0159842Y0041793D01*
X0159877Y0041885D01*
X0159907Y0041978D01*
X0159934Y0042072D01*
X0159957Y0042167D01*
X0159977Y0042263D01*
X0159992Y0042360D01*
X0160004Y0042457D01*
X0160012Y0042554D01*
X0160016Y0042652D01*
X0160016Y0042750D01*
X0160012Y0042848D01*
X0160004Y0042945D01*
X0159992Y0043042D01*
X0159977Y0043139D01*
X0159957Y0043235D01*
X0159934Y0043330D01*
X0159907Y0043424D01*
X0159877Y0043517D01*
X0159842Y0043609D01*
X0159805Y0043699D01*
X0159763Y0043788D01*
X0159718Y0043875D01*
X0159670Y0043960D01*
X0159618Y0044043D01*
X0159563Y0044124D01*
X0159505Y0044202D01*
X0159444Y0044279D01*
X0159380Y0044353D01*
X0159312Y0044424D01*
X0159243Y0044492D01*
X0159170Y0044558D01*
X0159095Y0044621D01*
X0159017Y0044680D01*
X0158937Y0044737D01*
X0158855Y0044790D01*
X0158771Y0044840D01*
X0158685Y0044887D01*
X0158598Y0044930D01*
X0158508Y0044970D01*
X0158417Y0045006D01*
X0158325Y0045039D01*
X0158231Y0045067D01*
X0158137Y0045092D01*
X0158041Y0045114D01*
X0157945Y0045131D01*
X0157848Y0045145D01*
X0157751Y0045154D01*
X0157653Y0045160D01*
X0157555Y0045162D01*
X0151157Y0045161D02*
X0151157Y0043193D01*
X0146728Y0043193D01*
X0146728Y0042209D01*
X0151157Y0042209D01*
X0151157Y0040240D01*
X0146728Y0040240D01*
X0146728Y0039256D01*
X0151157Y0039256D01*
X0151157Y0037287D01*
X0144268Y0037287D01*
X0144268Y0045161D01*
X0151157Y0045161D01*
X0141315Y0045161D02*
X0138362Y0045161D01*
X0141315Y0043193D01*
X0141315Y0041224D02*
X0141402Y0041226D01*
X0141489Y0041232D01*
X0141576Y0041241D01*
X0141662Y0041255D01*
X0141747Y0041272D01*
X0141832Y0041293D01*
X0141915Y0041318D01*
X0141998Y0041346D01*
X0142079Y0041378D01*
X0142158Y0041414D01*
X0142236Y0041453D01*
X0142312Y0041495D01*
X0142386Y0041541D01*
X0142458Y0041590D01*
X0142528Y0041642D01*
X0142595Y0041697D01*
X0142660Y0041755D01*
X0142723Y0041816D01*
X0142782Y0041880D01*
X0142839Y0041946D01*
X0142892Y0042015D01*
X0142943Y0042086D01*
X0142990Y0042159D01*
X0143035Y0042234D01*
X0143075Y0042311D01*
X0143113Y0042389D01*
X0143146Y0042470D01*
X0143177Y0042551D01*
X0143203Y0042634D01*
X0143226Y0042719D01*
X0143245Y0042804D01*
X0143260Y0042889D01*
X0143272Y0042976D01*
X0143280Y0043062D01*
X0143284Y0043149D01*
X0143284Y0043237D01*
X0143280Y0043324D01*
X0143272Y0043410D01*
X0143260Y0043497D01*
X0143245Y0043582D01*
X0143226Y0043667D01*
X0143203Y0043752D01*
X0143177Y0043835D01*
X0143146Y0043916D01*
X0143113Y0043997D01*
X0143075Y0044075D01*
X0143035Y0044152D01*
X0142990Y0044227D01*
X0142943Y0044300D01*
X0142892Y0044371D01*
X0142839Y0044440D01*
X0142782Y0044506D01*
X0142723Y0044570D01*
X0142660Y0044631D01*
X0142595Y0044689D01*
X0142528Y0044744D01*
X0142458Y0044796D01*
X0142386Y0044845D01*
X0142312Y0044891D01*
X0142236Y0044933D01*
X0142158Y0044972D01*
X0142079Y0045008D01*
X0141998Y0045040D01*
X0141915Y0045068D01*
X0141832Y0045093D01*
X0141747Y0045114D01*
X0141662Y0045131D01*
X0141576Y0045145D01*
X0141489Y0045154D01*
X0141402Y0045160D01*
X0141315Y0045162D01*
X0141315Y0043193D02*
X0138362Y0041224D01*
X0141315Y0039256D01*
X0141315Y0037287D02*
X0141402Y0037289D01*
X0141489Y0037295D01*
X0141576Y0037304D01*
X0141662Y0037318D01*
X0141747Y0037335D01*
X0141832Y0037356D01*
X0141915Y0037381D01*
X0141998Y0037409D01*
X0142079Y0037441D01*
X0142158Y0037477D01*
X0142236Y0037516D01*
X0142312Y0037558D01*
X0142386Y0037604D01*
X0142458Y0037653D01*
X0142528Y0037705D01*
X0142595Y0037760D01*
X0142660Y0037818D01*
X0142723Y0037879D01*
X0142782Y0037943D01*
X0142839Y0038009D01*
X0142892Y0038078D01*
X0142943Y0038149D01*
X0142990Y0038222D01*
X0143035Y0038297D01*
X0143075Y0038374D01*
X0143113Y0038452D01*
X0143146Y0038533D01*
X0143177Y0038614D01*
X0143203Y0038697D01*
X0143226Y0038782D01*
X0143245Y0038867D01*
X0143260Y0038952D01*
X0143272Y0039039D01*
X0143280Y0039125D01*
X0143284Y0039212D01*
X0143284Y0039300D01*
X0143280Y0039387D01*
X0143272Y0039473D01*
X0143260Y0039560D01*
X0143245Y0039645D01*
X0143226Y0039730D01*
X0143203Y0039815D01*
X0143177Y0039898D01*
X0143146Y0039979D01*
X0143113Y0040060D01*
X0143075Y0040138D01*
X0143035Y0040215D01*
X0142990Y0040290D01*
X0142943Y0040363D01*
X0142892Y0040434D01*
X0142839Y0040503D01*
X0142782Y0040569D01*
X0142723Y0040633D01*
X0142660Y0040694D01*
X0142595Y0040752D01*
X0142528Y0040807D01*
X0142458Y0040859D01*
X0142386Y0040908D01*
X0142312Y0040954D01*
X0142236Y0040996D01*
X0142158Y0041035D01*
X0142079Y0041071D01*
X0141998Y0041103D01*
X0141915Y0041131D01*
X0141832Y0041156D01*
X0141747Y0041177D01*
X0141662Y0041194D01*
X0141576Y0041208D01*
X0141489Y0041217D01*
X0141402Y0041223D01*
X0141315Y0041225D01*
X0141315Y0039256D02*
X0138362Y0037287D01*
X0141315Y0037287D01*
X0138362Y0037287D02*
X0138362Y0041224D01*
X0138362Y0045161D01*
X0135902Y0045161D01*
X0135902Y0037287D01*
X0138362Y0037287D01*
X0164445Y0045161D02*
X0164779Y0045168D01*
X0165113Y0045168D01*
X0165447Y0045159D01*
X0165780Y0045143D01*
X0166113Y0045119D01*
X0166446Y0045087D01*
X0166777Y0045047D01*
X0167108Y0045000D01*
X0167437Y0044945D01*
X0171000Y0069618D02*
X0171000Y0070618D01*
X0181000Y0070618D01*
X0181000Y0069618D01*
X0181000Y0092618D02*
X0171500Y0092618D01*
X0171500Y0093618D01*
X0181000Y0093618D02*
X0181000Y0092618D01*
X0211500Y0092618D02*
X0211500Y0093618D01*
X0211500Y0092618D02*
X0221000Y0092618D01*
X0221000Y0093618D01*
X0221000Y0070618D02*
X0211000Y0070618D01*
X0211000Y0069618D01*
X0221000Y0069618D02*
X0221000Y0070618D01*
X0141000Y0092618D02*
X0141000Y0093618D01*
X0141000Y0092618D02*
X0131500Y0092618D01*
X0131500Y0093618D01*
X0068000Y0151618D02*
X0067000Y0151618D01*
X0067000Y0161118D01*
X0068000Y0161118D01*
X0045000Y0161618D02*
X0045000Y0151618D01*
X0044000Y0151618D01*
X0044000Y0161618D02*
X0045000Y0161618D01*
X0086000Y0199618D02*
X0086000Y0200618D01*
X0095500Y0200618D01*
X0095500Y0199618D01*
X0096000Y0222618D02*
X0086000Y0222618D01*
X0086000Y0223618D01*
X0096000Y0223618D02*
X0096000Y0222618D01*
X0126000Y0222618D02*
X0136000Y0222618D01*
X0136000Y0223618D01*
X0126000Y0223618D02*
X0126000Y0222618D01*
X0126000Y0200618D02*
X0126000Y0199618D01*
X0126000Y0200618D02*
X0135500Y0200618D01*
X0135500Y0199618D01*
X0166000Y0199618D02*
X0166000Y0200618D01*
X0175500Y0200618D01*
X0175500Y0199618D01*
X0176000Y0222618D02*
X0166000Y0222618D01*
X0166000Y0223618D01*
X0176000Y0223618D02*
X0176000Y0222618D01*
X0206000Y0222618D02*
X0216000Y0222618D01*
X0216000Y0223618D01*
X0206000Y0223618D02*
X0206000Y0222618D01*
X0206000Y0200618D02*
X0206000Y0199618D01*
X0206000Y0200618D02*
X0215500Y0200618D01*
X0215500Y0199618D01*
X0234000Y0166618D02*
X0235000Y0166618D01*
X0235000Y0157118D01*
X0234000Y0157118D01*
X0257000Y0156618D02*
X0258000Y0156618D01*
X0257000Y0156618D02*
X0257000Y0166618D01*
X0258000Y0166618D01*
D19*
X0127339Y0066422D02*
X0127339Y0061818D01*
X0128873Y0061818D02*
X0125804Y0061818D01*
X0124269Y0061818D02*
X0121200Y0066422D01*
X0124269Y0066422D02*
X0121200Y0061818D01*
X0125804Y0064887D02*
X0127339Y0066422D01*
D20*
X0136050Y0035138D02*
X0136050Y0033637D01*
X0137051Y0033637D01*
X0136550Y0034387D02*
X0136050Y0034387D01*
X0136050Y0035138D02*
X0137051Y0035138D01*
X0138997Y0035138D02*
X0138997Y0033637D01*
X0139997Y0033637D01*
X0141943Y0033637D02*
X0141943Y0035138D01*
X0142944Y0035138D01*
X0142443Y0034387D02*
X0141943Y0034387D01*
X0141943Y0033637D02*
X0142944Y0033637D01*
X0144890Y0033887D02*
X0144890Y0034888D01*
X0145140Y0035138D01*
X0145640Y0035138D01*
X0145890Y0034888D01*
X0145890Y0033887D02*
X0145640Y0033637D01*
X0145140Y0033637D01*
X0144890Y0033887D01*
X0147836Y0035138D02*
X0148837Y0035138D01*
X0148336Y0035138D02*
X0148336Y0033637D01*
X0150783Y0033637D02*
X0150783Y0035138D01*
X0151533Y0035138D01*
X0151783Y0034888D01*
X0151783Y0034387D01*
X0151533Y0034137D01*
X0150783Y0034137D01*
X0151283Y0034137D02*
X0151783Y0033637D01*
X0153729Y0033887D02*
X0153979Y0033637D01*
X0154480Y0033637D01*
X0154730Y0033887D01*
X0154730Y0034888D01*
X0154480Y0035138D01*
X0153979Y0035138D01*
X0153729Y0034888D01*
X0153729Y0033887D01*
X0156676Y0033637D02*
X0156676Y0035138D01*
X0157676Y0033637D01*
X0157676Y0035138D01*
X0159622Y0035138D02*
X0160122Y0035138D01*
X0159872Y0035138D02*
X0159872Y0033637D01*
X0159622Y0033637D02*
X0160122Y0033637D01*
X0162077Y0033887D02*
X0162328Y0033637D01*
X0162828Y0033637D01*
X0163078Y0033887D01*
X0162077Y0033887D02*
X0162077Y0034888D01*
X0162328Y0035138D01*
X0162828Y0035138D01*
X0163078Y0034888D01*
X0165024Y0034888D02*
X0165024Y0034637D01*
X0165274Y0034387D01*
X0165775Y0034387D01*
X0166025Y0034137D01*
X0166025Y0033887D01*
X0165775Y0033637D01*
X0165274Y0033637D01*
X0165024Y0033887D01*
X0165024Y0034888D02*
X0165274Y0035138D01*
X0165775Y0035138D01*
X0166025Y0034888D01*
D21*
X0096000Y0039368D03*
M02*
